<?xml version="1.0" encoding="UTF-8" standalone="no"?><!DOCTYPE svg PUBLIC "-//W3C//DTD SVG 1.1//EN" "http://www.w3.org/Graphics/SVG/1.1/DTD/svg11.dtd"><svg width="100%" height="100%" viewBox="0 0 3344 676" version="1.1" xmlns="http://www.w3.org/2000/svg" xmlns:xlink="http://www.w3.org/1999/xlink" xml:space="preserve" xmlns:serif="http://www.serif.com/" style="fill-rule:evenodd;clip-rule:evenodd;stroke-linejoin:round;stroke-miterlimit:2;"><rect id="ArtBoard2" x="0" y="0" width="3343.39" height="675.032" style="fill:none;"/><g transform="matrix(4.16667,0,0,4.16667,36.6858,151.961)"><text x="0px" y="56px" style="font-family:'GoldenPlains', 'Golden Plains - Demo';font-size:80px;">Dein Einverstandnis</text><text x="591.12px" y="56px" style="font-family:'AmaticSC-Regular', 'Amatic SC';font-stretch:condensed;font-size:54px;">.</text></g><path d="M1792.31,285.414c2.078,-1.182 3.48,-3.417 3.48,-5.977c-0,-3.794 -3.081,-6.875 -6.875,-6.875c-1.797,0 -2.777,0.438 -3.527,0.825c-0.926,0.479 -2.497,2.121 -2.497,2.121c0,0 0.183,-0.226 0.344,-0.386c-2.683,2.683 -2.683,7.039 -0,9.722c2.477,2.477 6.38,2.668 9.075,0.57Zm-2.816,0.872l-0.138,0.011l0.064,-0.003l0.074,-0.008Z"/><path d="M1744.12,276.709l-0,0.818c-0,3.795 3.08,6.875 6.875,6.875c3.794,0 6.875,-3.08 6.875,-6.875l-0,-0.818c-0,-3.795 -3.081,-6.875 -6.875,-6.875c-3.795,-0 -6.875,3.08 -6.875,6.875Z"/><path d="M1782.47,275.463c-1.508,1.26 -2.467,3.155 -2.467,5.273c0,3.794 3.081,6.875 6.875,6.875c-0.049,-0 -0.176,-0.004 -0.176,-0.004c0,0 2.07,0.129 2.911,0.061c1.265,-0.103 2.255,-0.462 2.898,-0.783c2.909,-1.455 4.842,-4.736 3.808,-8.763c-0.489,-1.906 -1.832,-3.846 -3.238,-4.888c-1.427,-1.058 -3.003,-1.505 -4.497,-1.505c-2.663,-0 -4.974,1.517 -6.114,3.734Z"/><path d="M1752.5,272.159c-2.684,-1.925 -6.448,-1.681 -8.859,0.731c-2.641,2.641 -2.603,5.11 -2.386,6.631c0.301,2.106 1.377,3.997 3.594,5.287c0.764,0.444 1.818,0.861 3.101,1.054c1.412,0.211 3.668,0.043 4.389,0.043c3.795,0 6.875,-3.08 6.875,-6.875c0,-3.74 -2.994,-6.787 -6.714,-6.871Zm1.061,10.246l-0.198,0.207c0.07,-0.069 0.135,-0.138 0.198,-0.207Z"/></svg>