<?xml version="1.0" encoding="UTF-8" standalone="no"?><!DOCTYPE svg PUBLIC "-//W3C//DTD SVG 1.1//EN" "http://www.w3.org/Graphics/SVG/1.1/DTD/svg11.dtd"><svg width="100%" height="100%" viewBox="0 0 3334 2500" version="1.1" xmlns="http://www.w3.org/2000/svg" xmlns:xlink="http://www.w3.org/1999/xlink" xml:space="preserve" xmlns:serif="http://www.serif.com/" style="fill-rule:evenodd;clip-rule:evenodd;stroke-linecap:round;stroke-linejoin:round;stroke-miterlimit:1.5;"><g><path d="M1816.75,1224.48c0,0 34.177,-21.583 41.033,-58.341c5.74,-30.776 0.525,-63.529 12.937,-122.238c18.379,-86.935 76.997,-88.314 112.899,-218.085c26.793,-96.843 -6.587,-195.321 -9.111,-202.185c-37.914,-103.084 -144.627,-219.011 -314.36,-214.563c-44.83,1.175 -92.219,12.117 -136.353,30.806c-129.58,54.872 -198.796,179.649 -190.006,320.195c7.859,125.649 62.812,174.474 82.186,205.034c19.373,30.56 37.101,55.527 45.128,99.173c9.379,51.005 -2.768,70.843 5.535,97.236c8.303,26.392 26.293,79.177 73.344,79.177c47.05,-0 276.768,-16.209 276.768,-16.209Z" style="fill:#ffcf51;"/><g><path d="M1422.74,641.508c-0,-0 33.544,-99.217 138.304,-140.005" style="fill:none;stroke:#fff;stroke-width:52.09px;"/><g><path d="M1548.99,284.219c-4.226,-13.326 -18.476,-20.713 -31.801,-16.487c-13.326,4.226 -20.713,18.476 -16.487,31.801l22.895,72.191c4.226,13.325 18.476,20.713 31.801,16.487c13.326,-4.227 20.713,-18.476 16.487,-31.802l-22.895,-72.19Z" style="fill:#fff;"/><path d="M1305.46,437.273c-11.178,-8.395 -27.069,-6.135 -35.464,5.043c-8.395,11.178 -6.136,27.069 5.043,35.464l61.192,45.957c11.178,8.395 27.069,6.135 35.464,-5.043c8.395,-11.178 6.135,-27.069 -5.043,-35.464l-61.192,-45.957Z" style="fill:#fff;"/><path d="M1198.49,704.947c-13.98,0 -25.329,11.35 -25.329,25.329c-0,13.98 11.349,25.33 25.329,25.33l75.734,-0c13.979,-0 25.329,-11.35 25.329,-25.33c-0,-13.979 -11.35,-25.329 -25.329,-25.329l-75.734,0Z" style="fill:#fff;"/><path d="M1267.17,984.505c-11.455,8.014 -14.248,23.82 -6.234,35.275c8.014,11.454 23.82,14.247 35.275,6.233l50.371,-35.242c11.454,-8.014 14.248,-23.82 6.234,-35.275c-8.014,-11.454 -23.82,-14.247 -35.275,-6.233l-50.371,35.242Z" style="fill:#fff;"/></g><g><path d="M1786.5,287.783c4.227,-13.325 18.476,-20.713 31.802,-16.486c13.325,4.226 20.713,18.475 16.487,31.801l-22.895,72.19c-4.227,13.326 -18.476,20.713 -31.802,16.487c-13.325,-4.226 -20.713,-18.476 -16.487,-31.801l22.895,-72.191Z" style="fill:#fff;"/><path d="M2030.02,440.838c11.178,-8.395 27.069,-6.136 35.464,5.042c8.396,11.179 6.136,27.07 -5.042,35.465l-61.192,45.956c-11.178,8.395 -27.069,6.136 -35.464,-5.042c-8.395,-11.179 -6.136,-27.07 5.042,-35.465l61.192,-45.956Z" style="fill:#fff;"/><path d="M2136.99,708.512c13.979,-0 25.329,11.349 25.329,25.329c-0,13.98 -11.35,25.329 -25.329,25.329l-75.734,0c-13.98,0 -25.329,-11.349 -25.329,-25.329c-0,-13.98 11.349,-25.329 25.329,-25.329l75.734,-0Z" style="fill:#fff;"/><path d="M2068.32,988.07c11.454,8.014 14.247,23.82 6.233,35.274c-8.014,11.455 -23.82,14.248 -35.274,6.234l-50.372,-35.243c-11.454,-8.014 -14.247,-23.82 -6.233,-35.274c8.014,-11.454 23.82,-14.248 35.274,-6.233l50.372,35.242Z" style="fill:#fff;"/></g></g><g><path d="M1505.54,1260.33c-0,0 220.729,-5.19 311.47,-21.397" style="fill:none;stroke:#fff;stroke-width:25.95px;"/><path d="M1505.54,1309.21c-0,0 220.729,-5.189 311.47,-21.397" style="fill:none;stroke:#fff;stroke-width:25.95px;"/><path d="M1505.54,1360.23c-0,0 220.729,-5.189 311.47,-21.397" style="fill:none;stroke:#fff;stroke-width:25.95px;"/><path d="M1511.47,1407.41c119.648,1.258 216.176,-5.892 303.337,-16.448c0,-0 -129.701,127.332 -149.226,129.528c-19.525,2.195 -100.13,-49.409 -154.111,-113.08Z" style="fill:#fff;stroke:#fff;stroke-width:20.83px;"/></g></g><g transform="matrix(31.7282,0,0,31.7282,-12919.3,-14919.8)"><g transform="matrix(10,0,0,10,439.718,534.433)"><path d="M0.083,-0.492l-0.009,0.072c0,0.039 0.005,0.105 0.013,0.197c0.009,0.092 0.018,0.146 0.027,0.16c0.018,0.027 0.044,0.04 0.079,0.04c0.035,0 0.061,-0.01 0.077,-0.029c0.006,0 0.014,-0.001 0.023,-0.003l0.005,0.005c-0,0.032 -0.026,0.053 -0.076,0.063c-0.012,0.002 -0.026,0.003 -0.041,0.003c-0.015,0 -0.033,-0.007 -0.054,-0.022c-0.02,-0.015 -0.035,-0.032 -0.043,-0.05c-0.008,-0.018 -0.017,-0.075 -0.025,-0.17c-0.008,-0.095 -0.012,-0.179 -0.012,-0.251c-0,-0.072 0.002,-0.115 0.006,-0.128c-0.002,-0.011 -0.003,-0.022 -0.003,-0.032c-0,-0.04 0.014,-0.071 0.043,-0.094c0.028,-0.022 0.064,-0.033 0.105,-0.033c0.012,-0 0.024,0.003 0.038,0.011c0.013,0.007 0.02,0.016 0.02,0.026c-0,0.007 -0.005,0.011 -0.016,0.011c-0.003,0 -0.007,-0.002 -0.012,-0.006c-0.005,-0.004 -0.009,-0.006 -0.013,-0.006c-0.003,-0 -0.007,0.001 -0.011,0.002c-0.008,-0.003 -0.016,-0.004 -0.024,-0.004c-0.008,0 -0.018,0.002 -0.029,0.005c-0.012,0.004 -0.022,0.008 -0.029,0.013c-0.008,0.006 -0.014,0.013 -0.02,0.022c-0.005,0.009 -0.009,0.018 -0.012,0.026c-0.003,0.008 -0.005,0.019 -0.007,0.032c-0.002,0.019 -0.003,0.042 -0.003,0.069l0.003,0.071Zm0.114,-0.228l-0.002,-0l0.002,-0Z" style="fill:#fff;fill-rule:nonzero;"/></g><g transform="matrix(10,0,0,10,443.116,534.433)"><path d="M0.05,-0.629c-0,-0.025 0.007,-0.038 0.022,-0.038c0.032,0 0.059,0.008 0.08,0.025c0.022,0.016 0.032,0.04 0.032,0.072l0,0.073c0,0.026 -0.013,0.062 -0.039,0.11c-0.009,0.016 -0.013,0.025 -0.013,0.026c-0,0.002 0.012,0.055 0.038,0.159c0.025,0.104 0.038,0.157 0.039,0.16c0.002,0.004 0.005,0.011 0.01,0.021c0.005,0.01 0.008,0.019 0.008,0.027c0,0.007 -0.004,0.011 -0.011,0.011l-0.015,-0.005c-0.015,-0.017 -0.033,-0.082 -0.051,-0.195c-0.018,-0.109 -0.033,-0.163 -0.046,-0.163l-0.004,-0c-0.015,-0 -0.022,0.005 -0.022,0.014c0,0.036 0.002,0.097 0.006,0.182c0.005,0.085 0.008,0.132 0.011,0.142l-0.007,0.017l-0.015,-0l-0.007,-0.008c-0.011,-0.289 -0.016,-0.499 -0.016,-0.63Zm0.028,0.014l0.004,0.242l0.002,0.002c0.013,-0 0.024,-0.007 0.034,-0.02c0.01,-0.013 0.018,-0.029 0.023,-0.048c0.011,-0.039 0.016,-0.069 0.016,-0.089c0,-0.02 -0,-0.035 -0.002,-0.045c-0.001,-0.011 -0.004,-0.022 -0.008,-0.033c-0.009,-0.023 -0.028,-0.035 -0.057,-0.035c-0.004,-0 -0.007,0.003 -0.009,0.009c-0.002,0.006 -0.003,0.012 -0.003,0.017Z" style="fill:#fff;fill-rule:nonzero;"/></g><g transform="matrix(10,0,0,10,445.802,534.433)"><path d="M0.053,-0.008l0.001,-0.025l-0.003,-0.004c0.005,-0.013 0.007,-0.027 0.007,-0.041l-0.005,-0.132l0.007,-0.301l-0.004,-0.12c0,-0.019 0.01,-0.028 0.029,-0.028c0.007,-0 0.013,0.002 0.016,0.006c0.002,0.001 0.012,0.002 0.029,0.004c0.041,0.005 0.062,0.013 0.063,0.025c-0,0.005 -0.006,0.012 -0.019,0.019c-0.037,-0.012 -0.064,-0.018 -0.081,-0.019l-0.005,0.006c0.001,0.009 0.001,0.024 0.001,0.043l-0.004,0.155c-0,0.019 0.005,0.028 0.014,0.028l0.034,-0.002c0.025,-0 0.038,0.006 0.039,0.018c-0,0.007 -0.002,0.013 -0.005,0.018c-0.004,0.005 -0.01,0.008 -0.019,0.008c-0.008,-0 -0.015,-0.003 -0.019,-0.008l-0.033,-0.005l-0.004,0l-0.005,0.005l-0,0.003c0.001,0.017 0.002,0.044 0.002,0.079l-0.002,0.142c-0,0.067 0.004,0.103 0.014,0.111c0.005,0.004 0.016,0.007 0.032,0.007l0.037,-0.002c0.019,-0 0.029,0.004 0.029,0.013c0,0.012 -0.014,0.018 -0.043,0.018l-0.083,0c-0.012,0 -0.019,-0.007 -0.02,-0.021Z" style="fill:#fff;fill-rule:nonzero;"/></g><g transform="matrix(10,0,0,10,448.199,534.433)"><path d="M0.179,-0.149l-0.026,0.001c-0.01,-0.004 -0.02,-0.006 -0.031,-0.006c-0.012,0 -0.018,0.001 -0.019,0.001c-0.001,0.001 -0.002,0.002 -0.002,0.004c-0,0.001 -0.001,0.002 -0.001,0.003l-0.002,0.02c-0.001,0.017 -0.004,0.037 -0.009,0.061c-0.009,0.047 -0.019,0.07 -0.029,0.07c-0.004,-0 -0.009,-0.002 -0.013,-0.005c-0.005,-0.004 -0.007,-0.008 -0.007,-0.012c0.009,-0.025 0.017,-0.063 0.026,-0.114c0.01,-0.051 0.015,-0.082 0.017,-0.095c0.003,-0.012 0.007,-0.038 0.013,-0.076c0.006,-0.038 0.01,-0.063 0.012,-0.075c0.002,-0.012 0.008,-0.038 0.016,-0.078c0.009,-0.04 0.014,-0.066 0.016,-0.079c0.002,-0.012 0.004,-0.029 0.006,-0.05c0.006,-0.052 0.01,-0.081 0.013,-0.087l0.014,0.001c0.008,-0 0.014,-0.002 0.018,-0.006c0.004,0 0.008,0.001 0.012,0.004c0.004,0.003 0.006,0.007 0.006,0.011c-0,0.032 0.004,0.094 0.012,0.185c0.008,0.092 0.015,0.151 0.019,0.178c0.005,0.027 0.011,0.053 0.017,0.079c0.006,0.026 0.009,0.046 0.009,0.059l-0.005,0.014c0,0.015 0.003,0.037 0.009,0.066c0.005,0.029 0.008,0.05 0.008,0.062c-0,0.011 -0.003,0.019 -0.008,0.022c-0.014,-0 -0.022,-0.002 -0.025,-0.006c-0.003,-0.004 -0.005,-0.01 -0.005,-0.019c0,-0.008 -0,-0.019 -0.001,-0.032c-0.002,-0.012 -0.003,-0.022 -0.004,-0.03l-0.011,-0.066c-0.013,-0.003 -0.028,-0.005 -0.045,-0.005Zm-0.07,-0.049c-0,0.007 0.008,0.012 0.024,0.017c0.024,0.007 0.051,0.01 0.081,0.01l0.01,0c-0.004,-0.013 -0.006,-0.028 -0.006,-0.045l-0,-0.023c-0,-0.041 -0.005,-0.101 -0.016,-0.18c-0.01,-0.08 -0.015,-0.138 -0.016,-0.177c-0.035,0.172 -0.056,0.278 -0.065,0.319c-0.008,0.04 -0.012,0.067 -0.012,0.079Z" style="fill:#fff;fill-rule:nonzero;"/></g><g transform="matrix(10,0,0,10,451.456,534.433)"><path d="M0.204,-0.627l-0.054,-0.007l-0.005,0.006l0.002,0.004c-0.001,0.003 -0.002,0.022 -0.002,0.057c0,0.036 0.006,0.119 0.017,0.249c0.011,0.13 0.016,0.228 0.016,0.293c0,0.005 -0.002,0.009 -0.006,0.013c-0.004,0.004 -0.008,0.006 -0.013,0.006l-0.011,-0.008l-0.002,-0.073l0.002,-0.035c-0,-0.009 -0.001,-0.017 -0.004,-0.024c0,-0.057 -0.004,-0.139 -0.012,-0.248c-0.008,-0.108 -0.012,-0.188 -0.013,-0.24c-0.052,0 -0.08,-0.006 -0.084,-0.019c0.003,-0.007 0.009,-0.011 0.019,-0.011l0.136,0.009l0.018,-0.001c0.012,0 0.018,0.004 0.018,0.013c0,0.004 -0.002,0.008 -0.007,0.011c-0.005,0.004 -0.01,0.005 -0.015,0.005Z" style="fill:#fff;fill-rule:nonzero;"/></g><g transform="matrix(10,0,0,10,454.112,534.433)"><path d="M0.207,-0.008l-0.033,-0.003c-0.005,-0 -0.012,0.002 -0.019,0.005c-0.007,0.004 -0.015,0.006 -0.025,0.006c-0.01,-0 -0.017,-0.003 -0.019,-0.01l-0.017,0.001c-0.014,0 -0.023,-0.003 -0.027,-0.01c-0,-0.004 0.002,-0.008 0.006,-0.011c0.003,-0.002 0.006,-0.005 0.007,-0.006l0.029,-0l0.004,-0.004l0.003,-0.021c0,-0 -0.002,-0.073 -0.007,-0.219l0.005,-0.233c-0,-0.045 -0.002,-0.084 -0.005,-0.116c-0.007,-0.002 -0.017,-0.003 -0.03,-0.003l-0.024,0.002c-0.013,0 -0.019,-0.006 -0.019,-0.017c0,-0.003 0.003,-0.006 0.009,-0.008c0.006,-0.003 0.011,-0.004 0.015,-0.004c0.093,-0 0.139,0.01 0.139,0.03c0,0.002 -0.001,0.005 -0.002,0.008l-0.023,0.002c-0.005,-0.004 -0.015,-0.006 -0.029,-0.006l-0.005,0.003c0.002,0.006 0.003,0.024 0.003,0.053l-0.003,0.238l0.007,0.219l-0.001,0.031c-0,0.016 0.001,0.025 0.003,0.028l-0.001,0.002c-0,0.007 0.007,0.01 0.022,0.01l0.029,-0.001c0.02,0 0.03,0.005 0.03,0.014c0,0.006 -0.002,0.011 -0.006,0.015c-0.005,0.003 -0.01,0.005 -0.016,0.005Z" style="fill:#fff;fill-rule:nonzero;"/></g><g transform="matrix(10,0,0,10,456.798,534.433)"><path d="M0.294,-0.681c0.007,0.002 0.011,0.006 0.011,0.013c0,0.006 -0.001,0.014 -0.002,0.023c-0.002,0.01 -0.004,0.021 -0.007,0.034c-0.003,0.012 -0.005,0.022 -0.007,0.029c-0.001,0.007 -0.007,0.033 -0.017,0.076c-0.01,0.044 -0.016,0.078 -0.02,0.101c-0.004,0.024 -0.008,0.057 -0.012,0.101c-0.004,0.043 -0.007,0.072 -0.009,0.086c-0.002,0.015 -0.006,0.034 -0.012,0.059c-0.007,0.024 -0.011,0.04 -0.012,0.047c-0.001,0.007 -0.002,0.017 -0.003,0.028c-0.001,0.011 -0.002,0.022 -0.003,0.032c-0.001,0.009 -0.003,0.02 -0.006,0.03c-0.005,0.023 -0.015,0.034 -0.031,0.034l-0.011,-0.009c-0,-0.109 -0.03,-0.294 -0.089,-0.555c-0.001,-0.004 -0.004,-0.015 -0.008,-0.031c-0.013,-0.044 -0.019,-0.068 -0.019,-0.071c0,-0.003 0.002,-0.006 0.005,-0.009c0.002,-0.003 0.006,-0.004 0.009,-0.004c0.004,0 0.008,0.003 0.012,0.009c0.003,0.005 0.007,0.013 0.009,0.022c0.003,0.009 0.005,0.018 0.007,0.027c0.002,0.009 0.004,0.018 0.005,0.027c0.002,0.009 0.004,0.018 0.007,0.027c0.002,0.01 0.005,0.023 0.009,0.041c0.004,0.017 0.008,0.033 0.011,0.047c0.003,0.015 0.006,0.032 0.01,0.052c0.004,0.02 0.007,0.036 0.009,0.047c0.002,0.012 0.005,0.029 0.009,0.051c0.003,0.023 0.006,0.038 0.007,0.047c0.002,0.009 0.005,0.026 0.009,0.051c0.003,0.025 0.006,0.041 0.006,0.047c0.001,0.007 0.004,0.024 0.008,0.052c0.004,0.027 0.006,0.044 0.007,0.048c0.013,-0.045 0.025,-0.109 0.034,-0.192c0.009,-0.082 0.022,-0.167 0.04,-0.255c0.018,-0.087 0.028,-0.14 0.031,-0.157l0.013,-0.005Zm-0.119,0.612l-0.001,0.002l0.001,0.002l-0,-0.004Zm-0.028,-0.471l-0,0.002l-0.001,-0c-0,-0.001 0,-0.002 0.001,-0.002Z" style="fill:#fff;fill-rule:nonzero;"/></g><g transform="matrix(10,0,0,10,460.284,534.433)"><path d="M0.207,-0.008l-0.033,-0.003c-0.005,-0 -0.012,0.002 -0.019,0.005c-0.007,0.004 -0.015,0.006 -0.025,0.006c-0.01,-0 -0.017,-0.003 -0.019,-0.01l-0.017,0.001c-0.014,0 -0.023,-0.003 -0.027,-0.01c-0,-0.004 0.002,-0.008 0.006,-0.011c0.003,-0.002 0.006,-0.005 0.007,-0.006l0.029,-0l0.004,-0.004l0.003,-0.021c0,-0 -0.002,-0.073 -0.007,-0.219l0.005,-0.233c-0,-0.045 -0.002,-0.084 -0.005,-0.116c-0.007,-0.002 -0.017,-0.003 -0.03,-0.003l-0.024,0.002c-0.013,0 -0.019,-0.006 -0.019,-0.017c0,-0.003 0.003,-0.006 0.009,-0.008c0.006,-0.003 0.011,-0.004 0.015,-0.004c0.093,-0 0.139,0.01 0.139,0.03c0,0.002 -0.001,0.005 -0.002,0.008l-0.023,0.002c-0.005,-0.004 -0.015,-0.006 -0.029,-0.006l-0.005,0.003c0.002,0.006 0.003,0.024 0.003,0.053l-0.003,0.238l0.007,0.219l-0.001,0.031c-0,0.016 0.001,0.025 0.003,0.028l-0.001,0.002c-0,0.007 0.007,0.01 0.022,0.01l0.029,-0.001c0.02,0 0.03,0.005 0.03,0.014c0,0.006 -0.002,0.011 -0.006,0.015c-0.005,0.003 -0.01,0.005 -0.016,0.005Z" style="fill:#fff;fill-rule:nonzero;"/></g><g transform="matrix(10,0,0,10,462.97,534.433)"><path d="M0.204,-0.627l-0.054,-0.007l-0.005,0.006l0.002,0.004c-0.001,0.003 -0.002,0.022 -0.002,0.057c0,0.036 0.006,0.119 0.017,0.249c0.011,0.13 0.016,0.228 0.016,0.293c0,0.005 -0.002,0.009 -0.006,0.013c-0.004,0.004 -0.008,0.006 -0.013,0.006l-0.011,-0.008l-0.002,-0.073l0.002,-0.035c-0,-0.009 -0.001,-0.017 -0.004,-0.024c0,-0.057 -0.004,-0.139 -0.012,-0.248c-0.008,-0.108 -0.012,-0.188 -0.013,-0.24c-0.052,0 -0.08,-0.006 -0.084,-0.019c0.003,-0.007 0.009,-0.011 0.019,-0.011l0.136,0.009l0.018,-0.001c0.012,0 0.018,0.004 0.018,0.013c0,0.004 -0.002,0.008 -0.007,0.011c-0.005,0.004 -0.01,0.005 -0.015,0.005Z" style="fill:#fff;fill-rule:nonzero;"/></g><g transform="matrix(15,0,0,15,465.626,534.433)"><path d="M0.568,-0.551c-0,0.001 -0,0.001 -0.001,0.001c0,0 -0,0 -0,0.001c-0.013,0.038 -0.028,0.075 -0.045,0.11c-0.017,0.035 -0.033,0.07 -0.049,0.106c0.001,0.005 0.001,0.011 -0.002,0.017c-0.002,0.005 -0.004,0.01 -0.006,0.015l0,0.002c0,0.001 0,0.002 0.001,0.002l-0.023,0.057c0,0 -0.002,0.001 -0.007,0.003c-0.001,0.003 -0.002,0.007 -0.004,0.01c-0.001,0.003 -0.003,0.006 -0.004,0.01l0,-0.006c-0.001,0.001 -0.002,0.003 -0.003,0.004c-0.001,0.001 -0.002,0.002 -0.003,0.003c-0.001,0.001 -0.001,0.002 0.001,0.002c0.001,-0.001 0.001,-0.001 0,0c-0.003,0.007 -0.007,0.014 -0.011,0.021c-0.003,0.007 -0.007,0.013 -0.01,0.02c0.001,0.001 0.002,0.002 0.001,0.002c-0.001,-0.001 -0.002,-0.001 -0.003,-0.002c-0.001,0.009 -0.004,0.017 -0.009,0.026c-0.005,0.008 -0.011,0.015 -0.016,0.022c-0.001,0.002 -0.002,0.004 -0.002,0.006c-0.001,0.002 -0.002,0.004 -0.003,0.005c-0.001,0.001 -0.003,0.001 -0.005,0.001c-0.003,0.003 -0.005,0.006 -0.007,0.011c-0.002,0.004 -0.004,0.009 -0.006,0.014c-0.003,0.003 -0.006,0.007 -0.008,0.012c-0.002,0.004 -0.004,0.009 -0.005,0.014c-0.004,0.001 -0.007,0.004 -0.008,0.007c-0.001,0.003 -0.003,0.007 -0.004,0.01c-0.001,0 -0.002,-0 -0.003,-0.001c-0.001,0.003 -0.003,0.005 -0.005,0.008c-0.002,0.002 -0.003,0.004 -0.003,0.007c-0.004,0.002 -0.007,0.005 -0.008,0.009c-0.001,0.004 -0.003,0.008 -0.005,0.011c-0.001,0.001 -0.001,0.002 -0.001,0.001c-0.001,-0.001 -0.002,-0.001 -0.004,0c-0.001,0.001 -0,0.002 0.002,0.002c0.001,-0.001 0.001,-0.001 0,0c0,0 -0.002,0.001 -0.005,0.002c-0.003,0.005 -0.006,0.01 -0.009,0.013c-0.004,0.003 -0.007,0.007 -0.01,0.012c-0.001,-0 -0.001,-0 -0,-0.001c-0,0 -0.001,-0 -0.002,0c-0.003,0.001 -0.004,0.003 -0.005,0.005c-0.001,0.003 -0.002,0.005 -0.004,0.006l-0.001,-0.001c-0.003,0.003 -0.006,0.006 -0.007,0.011c-0.001,0.005 -0.004,0.007 -0.008,0.007c-0.002,0.002 -0.004,0.004 -0.007,0.006c-0.003,0.003 -0.006,0.006 -0.008,0.009c-0.001,-0 -0.002,0 -0.003,0.001c-0.001,0.001 -0.002,0.002 -0.003,0.003c-0.001,0.001 -0.003,0.003 -0.005,0.004c0,0.001 -0.001,0.002 -0.004,0.004c-0.007,0.005 -0.014,0.011 -0.021,0.018c-0.007,0.007 -0.016,0.012 -0.025,0.013c-0.001,0.001 -0.001,0.002 -0.001,0.003c-0.001,0.001 -0.002,0.001 -0.005,0c-0.001,0.002 -0.002,0.003 -0.003,0.003c-0.001,0.001 -0.002,0.002 -0.003,0.005c-0.001,-0.001 -0.002,-0.002 -0.002,-0.001c-0.001,0.001 -0.002,0.001 -0.003,0c-0.003,0.001 -0.006,0.003 -0.009,0.004c-0.003,0.001 -0.007,0.002 -0.012,0.001c-0.012,0.004 -0.024,0.005 -0.035,0.003c-0.011,-0.002 -0.022,-0.006 -0.031,-0.013c-0.01,-0.006 -0.018,-0.013 -0.025,-0.022c-0.007,-0.009 -0.013,-0.018 -0.016,-0.027c-0.001,-0.007 -0.003,-0.013 -0.005,-0.018c-0.002,-0.005 -0.004,-0.011 -0.005,-0.018l-0.006,-0.027c-0.003,0.001 -0.003,0 -0.001,-0.003c0.001,-0.004 0,-0.007 -0.003,-0.008c0.003,-0.001 0.004,-0.003 0.003,-0.004c-0.001,-0.001 -0.002,-0.003 -0.003,-0.005c-0.001,-0.003 -0,-0.005 0.002,-0.007c0.001,-0.002 0.002,-0.004 0.001,-0.006c-0.001,-0.001 -0.001,-0.001 -0.001,-0.002l0,-0.003c0,-0.015 0.001,-0.03 0.002,-0.047c0.001,-0.017 0.003,-0.035 0.005,-0.052c0.002,-0.018 0.005,-0.035 0.008,-0.052c0.003,-0.017 0.006,-0.034 0.009,-0.049l0.001,-0.016c0.011,-0.057 0.024,-0.112 0.04,-0.165c0.016,-0.054 0.029,-0.107 0.04,-0.16c-0.002,-0.002 -0.003,-0.004 -0.003,-0.007c0,-0.003 0,-0.006 0.001,-0.009c0.001,0.001 0.003,0.001 0.004,-0.001c0.001,-0.002 0.003,-0.003 0.005,-0.003c0.001,0.001 0.003,0.003 0.005,0.004c0.001,0.001 0.002,0.003 0.003,0.005c0.013,0 0.023,0.002 0.029,0.006c0.006,0.004 0.012,0.01 0.019,0.017c0.001,0.007 0.003,0.014 0.005,0.021c0.001,0.007 -0,0.014 -0.005,0.021c-0.001,0.011 -0.003,0.022 -0.004,0.033c-0.002,0.01 -0.005,0.02 -0.008,0.031c-0.001,0.004 -0.002,0.008 -0.003,0.011c-0.002,0.004 -0.004,0.009 -0.005,0.014c-0.001,0.003 -0.002,0.005 -0.003,0.008c-0.002,0.003 -0.004,0.005 -0.005,0.008c0,0.003 -0,0.006 -0.001,0.009c-0.001,0.003 -0.002,0.007 -0.003,0.01c-0.003,0.007 -0.006,0.015 -0.008,0.023c-0.002,0.008 -0.004,0.017 -0.005,0.026l-0.005,0.012c-0.003,0.013 -0.004,0.026 -0.005,0.039c-0.001,0.013 -0.004,0.025 -0.007,0.038l-0.007,0.022l-0.008,0.042l-0.013,0.045c-0.001,0.003 -0.002,0.006 -0.002,0.009c0,0.003 -0.001,0.007 -0.002,0.011c-0.001,0.007 -0.003,0.015 -0.004,0.024c-0.002,0.009 -0.003,0.018 -0.004,0.027c0,0.021 -0,0.044 -0,0.068c-0.001,0.024 0.001,0.046 0.006,0.065c0.003,0.003 0.005,0.008 0.005,0.013c0.003,0.003 0.006,0.006 0.007,0.009c0.001,0.003 0.003,0.006 0.004,0.008c0.01,0.001 0.018,0 0.025,-0.003c0.006,-0.003 0.012,-0.008 0.019,-0.013c0.002,-0.001 0.004,-0.002 0.007,-0.002c0.002,-0 0.004,-0.002 0.005,-0.005c0.019,-0.015 0.036,-0.032 0.053,-0.051c0.016,-0.019 0.031,-0.038 0.046,-0.057c0.007,-0.014 0.016,-0.027 0.025,-0.038c0.009,-0.011 0.018,-0.024 0.025,-0.037c0.003,-0.003 0.005,-0.006 0.007,-0.009c0.002,-0.003 0.003,-0.006 0.004,-0.009c0.013,-0.019 0.025,-0.04 0.036,-0.061c0.011,-0.021 0.022,-0.042 0.033,-0.061c-0.001,0.006 -0.004,0.012 -0.008,0.019c-0.005,0.007 -0.008,0.014 -0.011,0.021c0.004,-0.005 0.008,-0.011 0.011,-0.018c0.003,-0.007 0.007,-0.013 0.01,-0.018c0.002,0.002 0.003,0 0.004,-0.005c0.001,-0.005 0.002,-0.008 0.003,-0.007c0,-0.001 -0,-0.002 -0,-0.002c-0.001,-0 -0.001,0 -0.001,0.001c-0.001,-0.001 -0.001,-0.002 0,-0.002c0.001,0.001 0.002,0.001 0.003,-0c0.003,-0.005 0.006,-0.009 0.007,-0.014c0.001,-0.004 0.002,-0.009 0.004,-0.014c-0.001,-0.001 -0.001,-0.003 -0.001,-0.004c0.003,0.001 0.003,0.004 0.001,0.007c-0.002,0.003 -0.003,0.007 -0.003,0.01c0.002,-0.001 0.003,-0.003 0.004,-0.005c-0,-0.002 0.001,-0.004 0.002,-0.006c0.001,0 0.001,0 0.001,0.001c0,-0 0,0 0.001,0c0,-0.001 -0.001,-0.002 -0.002,-0.002c0.001,-0.004 0.003,-0.008 0.006,-0.012c0.002,-0.003 0.004,-0.008 0.006,-0.014l0.002,0c0,-0.001 -0,-0.001 -0.001,-0.001c-0.001,0 -0,-0.001 0.001,-0.002c0.001,0.001 0.001,0.001 0.001,-0.002c0,-0.003 0,-0.005 0.001,-0.006c0.002,0 0.003,0.001 0.002,0.002c-0.001,0.001 -0.002,0.002 -0.001,0.003c0.005,-0.009 0.008,-0.018 0.011,-0.025c0.003,-0.008 0.007,-0.017 0.012,-0.026c0.001,0.004 0.001,0.007 -0.001,0.01c-0.003,0.002 -0.004,0.006 -0.005,0.011c-0.001,0.001 -0.002,0.001 -0.001,0c0.001,-0.001 0.001,-0.001 0,-0.002c-0.001,0.001 -0.002,0.002 -0.001,0.005c0.001,0.003 0.001,0.005 0.001,0.007c-0.003,0.001 -0.004,0.004 -0.004,0.008c0,0.004 -0.001,0.005 -0.004,0.004c-0.001,0.003 -0.002,0.006 -0.002,0.008c-0.001,0.001 -0.002,0.003 -0.003,0.006c-0.001,0 -0.002,-0.001 -0.001,-0.002c0.001,-0.001 0.001,-0.003 0.001,-0.004c-0.003,0.003 -0.005,0.006 -0.007,0.011c-0.002,0.005 -0.004,0.009 -0.005,0.013c-0.002,0.005 -0.003,0.01 -0.004,0.015c-0.001,0.005 -0.003,0.008 -0.006,0.011c0.001,0.002 0.001,0.004 -0.001,0.005c-0.003,0.001 -0.004,0.003 -0.005,0.006c-0.003,0.003 -0.005,0.007 -0.006,0.01c-0.001,0.004 -0.003,0.008 -0.004,0.011c-0.001,-0.001 -0.002,0.001 -0.003,0.004c-0.002,0.004 -0.004,0.008 -0.005,0.011c-0.001,0.002 -0.003,0.004 -0.004,0.006c-0.001,0.002 -0.001,0.004 0,0.007c0.005,-0.007 0.009,-0.014 0.013,-0.023c0.004,-0.009 0.008,-0.017 0.013,-0.026c0.002,-0.005 0.005,-0.011 0.009,-0.016c0.003,-0.005 0.007,-0.01 0.01,-0.015l0,0.001c0,0.001 -0,0.001 -0,0.002c-0.001,0.001 -0.001,0.001 -0.001,0.002l-0.003,0.006l0,0.001l-0.002,0.004l0,0.001c0,0.001 -0,0.001 -0,0.001c-0.001,-0.001 -0.001,-0.001 -0.001,0l0,0.009l0.001,0l0,-0.001c0,0 0.001,-0.001 0.002,-0.004l0,-0.001c0,0 0,-0 0.001,-0.001l0,-0.001l0.001,-0.001l0.004,-0.008c0.001,-0.001 0.001,-0.001 0.001,-0.002c0,-0.001 0,-0.002 0.001,-0.003l0,-0.003c0,-0.001 0,-0.001 0.001,-0.001l0,-0.004l0,0.001l0,-0.001c0,0 0,0 0.001,0.001l0.001,0l0.001,-0.001l0,-0.001l0.002,0l0,-0.002l0.001,-0.002l0,-0.002l0.001,-0.001c0.001,-0.004 0.003,-0.008 0.006,-0.012c0.002,-0.003 0.004,-0.007 0.005,-0.011c0,-0.001 0,-0.001 0.001,-0.001c-0,-0.001 0,-0.001 0,-0.002l0,-0.001c0,0 0,-0.001 0.001,-0.002l0,-0.001l-0.002,0.002c-0.001,0.001 -0.001,0.001 -0.001,0.002l-0.003,0.004c-0.001,0.001 -0.001,0.001 -0.001,0.002c-0.001,0.003 -0.002,0.004 -0.002,0.005l-0.001,0.001c-0.001,0.002 -0.001,0.004 -0.002,0.005c-0.001,0.001 -0.001,0.003 -0.002,0.004l0,-0.001l-0.001,0.001l0,0.001l0.001,0l0,0.001c0,0.001 -0,0.001 -0.001,0.002c0,0.001 -0,0.002 -0,0.002c-0.001,0 -0.001,0 -0.001,0.001l0,0.001c0,0.001 -0,0.001 -0.001,0.001c0,0.001 -0,0.001 -0.001,0.001c0,0.001 -0.001,0.002 -0.003,0.003l-0.003,0l0.003,-0.005c0.001,-0.005 0.001,-0.008 0.002,-0.011c-0,-0.003 0.002,-0.005 0.005,-0.006c0,-0.006 0.001,-0.009 0.004,-0.009c0.003,-0.005 0.006,-0.01 0.008,-0.015c0.002,-0.005 0.005,-0.009 0.008,-0.014c-0.001,-0.001 -0.001,-0.002 -0.001,-0.003c0.005,-0.009 0.01,-0.019 0.015,-0.029c0.005,-0.01 0.009,-0.02 0.012,-0.03c0.002,-0.005 0.004,-0.009 0.006,-0.012c0.002,-0.003 0.004,-0.007 0.005,-0.012c0.001,0.001 0.002,0.002 0.001,0.004c-0.001,0.001 -0.001,0.003 -0.001,0.004c0.003,-0.005 0.006,-0.011 0.008,-0.016c0.002,-0.006 0.004,-0.012 0.006,-0.019c0,0.008 -0.002,0.015 -0.005,0.02c-0.004,0.005 -0.007,0.012 -0.008,0.02c-0.001,0 -0.002,-0.001 -0.001,-0.002c0.001,-0.001 0,-0.002 -0.001,-0.001c-0.001,0.009 -0.004,0.018 -0.009,0.027c-0.005,0.009 -0.009,0.018 -0.012,0.027c-0.001,0 -0.001,-0 -0,-0.001c-0,0 -0,0 -0.001,0c-0.001,0.006 -0.004,0.012 -0.007,0.018c-0.003,0.005 -0.006,0.012 -0.007,0.019c0.001,-0.003 0.003,-0.005 0.004,-0.008c0.001,-0.002 0.002,-0.005 0.003,-0.009c0.001,0.001 0.002,0.003 0.001,0.005l0.021,-0.047c0.003,-0.001 0.005,-0.003 0.007,-0.004c0.001,-0.001 0.001,-0.003 -0.001,-0.005c0.002,0 0.003,-0.001 0.003,-0.002c0,-0.001 0.001,-0.002 0.002,-0.002c0.001,-0.001 0.001,-0.003 0.001,-0.005c0,-0.001 0.001,-0.002 0.002,-0.003l0.002,-0.01c0.003,-0.009 0.006,-0.015 0.009,-0.02c0.001,-0.001 0.001,-0.004 0.001,-0.009c0.001,-0.003 0.003,-0.006 0.004,-0.008c0.001,-0.002 0.003,-0.005 0.004,-0.008c0.001,-0.002 0.001,-0.004 0.002,-0.005c-0,-0.002 0.001,-0.003 0.004,-0.004c-0.001,-0.001 -0.001,-0.003 -0.001,-0.006c0.001,-0.001 0.002,-0.002 0.003,-0.004c0.001,-0.002 0.001,-0.004 0.002,-0.005c0.001,0 0.002,0 0.003,0.001c0.006,-0.019 0.012,-0.037 0.019,-0.056c0.007,-0.019 0.012,-0.039 0.016,-0.059c-0.001,-0.001 -0.003,0.001 -0.004,0.005c-0.002,0.003 -0.002,0.006 -0.001,0.008l-0.003,0c0,0.001 -0.001,0.003 -0.002,0.006c-0.002,0.003 -0.003,0.003 -0.002,0.002c0,-0.005 0.001,-0.009 0.003,-0.012c0.002,-0.003 0.002,-0.007 0.001,-0.011c0.001,-0.001 0.001,-0.003 0.002,-0.004c0.001,-0.002 0.001,-0.005 0.001,-0.008c-0.003,0.001 -0.005,0.004 -0.004,0.008c-0,0.003 -0.001,0.005 -0.003,0.006c-0.001,0.005 -0.002,0.008 -0.003,0.011c-0.001,0.002 -0.002,0.005 -0.003,0.008c-0.001,-0.004 -0.001,-0.007 0.001,-0.009c0.001,-0.003 0.002,-0.006 0.002,-0.01c-0.003,0.009 -0.007,0.02 -0.012,0.032c-0.005,0.012 -0.009,0.024 -0.011,0.036c-0.002,-0.001 -0.003,0 -0.003,0.003c-0.001,0 -0.001,-0.001 -0.001,-0.002c-0.001,0 -0.002,0.001 -0.002,0.003c0,0.002 -0,0.004 -0.001,0.005c0.001,0.001 0.002,0.001 0.002,0c0,-0.001 0,-0.001 0.001,0c-0.001,0.003 -0.001,0.006 -0.002,0.008c-0.001,0.002 -0.001,0.005 -0.001,0.008c-0.001,-0.001 -0.002,-0.003 -0.001,-0.005c-0,-0.002 0,-0.004 0.001,-0.005c-0.001,0 -0.002,0.002 -0.003,0.005c-0.001,0.003 -0.001,0.005 -0.001,0.006l-0.001,-0.001c-0.002,0.003 -0.003,0.006 -0.003,0.009c-0.001,0.003 -0.002,0.005 -0.003,0.007c0.002,0.001 0.003,0 0.003,-0.001c-0.001,-0.002 -0,-0.004 0.001,-0.005c0,0.005 -0.001,0.01 -0.003,0.016c-0.002,0.005 -0.005,0.01 -0.008,0.015c0,-0.003 0.001,-0.006 0.004,-0.007c0.002,-0.002 0.003,-0.006 0.003,-0.011c-0.001,0.003 -0.003,0.005 -0.005,0.006c-0.002,0.001 -0.003,0.003 -0.002,0.006c-0.003,0.001 -0.004,0.004 -0.005,0.007c-0.001,0.003 -0.002,0.005 -0.002,0.007c-0.001,0.001 -0.001,0.001 -0.002,0c-0.003,0.003 -0.004,0.007 -0.004,0.011c0,0.004 -0.001,0.008 -0.002,0.011c0.001,0.003 0.001,0.007 0,0.01c-0.001,-0.001 -0.001,-0.003 -0,-0.005c0.001,-0.001 0.001,-0.003 0,-0.005c-0.001,0.001 -0.001,0.001 -0.001,0.002c-0.001,-0.001 -0.002,-0.003 -0.001,-0.004c0.001,-0.001 0.001,-0.002 0.002,-0.003c-0.002,-0.005 -0.002,-0.008 0,-0.01c0.002,-0.002 0.003,-0.004 0.002,-0.007c0.003,-0.003 0.006,-0.006 0.007,-0.011c0.001,-0.005 0.001,-0.009 0,-0.013c-0.001,0.003 -0.002,0.005 -0.003,0.007c-0.001,0.002 -0.002,0.004 -0.003,0.006c0,-0.002 0.001,-0.004 0.002,-0.007c0.001,-0.003 0.003,-0.006 0.004,-0.009l0,0.003l0.001,0.001l0,0.001c0.003,-0.003 0.006,-0.007 0.007,-0.011c0.001,-0.005 0.003,-0.01 0.005,-0.016c0.001,0.001 0.002,0.003 0.001,0.004c-0.001,0.001 -0.002,0.002 -0.001,0.003c0.001,-0.005 0.003,-0.009 0.005,-0.014c0.002,-0.005 0.003,-0.01 0.002,-0.015c0.001,0 0.001,0 0.002,0.001l0,0.001c0.001,-0.003 0.002,-0.005 0.002,-0.007c0,-0.003 0,-0.005 0.001,-0.007c-0.001,0.001 -0.002,0.002 -0.003,0.005c-0.001,0.003 -0.001,0.005 0,0.006c-0.002,0 -0.003,0 -0.003,0.001c0.005,-0.017 0.01,-0.035 0.015,-0.053c0.001,-0.003 0.003,-0.006 0.005,-0.008c0.001,-0.003 0.003,-0.006 0.005,-0.009c0,-0.001 -0,-0.003 -0,-0.004c-0.001,-0.002 -0.001,-0.004 -0.001,-0.006c0.001,-0.005 0.002,-0.01 0.004,-0.015c0.001,-0.005 0.002,-0.01 0.001,-0.015c-0.001,-0.001 -0.001,-0.001 -0.002,-0c-0.001,-0 -0.001,-0.001 0,-0.002c-0.001,-0.001 -0.001,-0.002 0,-0.002c0.001,-0.001 0.001,-0.002 0.001,-0.003c-0.001,-0.005 -0,-0.008 0.003,-0.009c0.003,-0.002 0.004,-0.006 0.005,-0.011l0.004,0c-0.002,0.003 -0.001,0.005 0.004,0.007c0.004,0.002 0.007,0.001 0.008,-0.003c0,0.003 0.001,0.006 0.002,0.007c0.001,-0.001 0.001,-0.002 0.001,-0.003c-0.001,-0.001 -0.001,-0.002 0,-0.003c0.001,0 0.002,0.001 0.001,0.002c-0.001,0.001 -0.001,0.002 0,0.003c0.003,0 0.005,-0.001 0.004,-0.004c0.001,0 0.001,0.002 0.001,0.006c0.002,0 0.003,-0.001 0.003,-0.002c0,-0.001 0.001,-0.001 0.002,0.002c0,-0.001 0,-0.002 0.001,-0.002c-0,-0.001 0,-0.002 0.001,-0.003c0.002,0.001 0.004,0.003 0.006,0.006c0.002,0.002 0.004,0.003 0.007,0.004c0,0.009 -0.001,0.019 -0.003,0.029c-0.002,0.01 -0.006,0.018 -0.011,0.025c-0.001,0.004 -0.002,0.007 -0.003,0.01c-0.002,0.002 -0.004,0.006 -0.005,0.011c-0.003,0.009 -0.006,0.019 -0.009,0.029c-0.003,0.009 -0.007,0.018 -0.014,0.026c0.001,0.003 0.001,0.006 -0.001,0.007c-0.002,0.001 -0.002,0.003 -0.001,0.006c-0.005,0.007 -0.009,0.016 -0.011,0.025c-0.003,0.009 -0.006,0.017 -0.011,0.023c-0.003,0.008 -0.006,0.015 -0.009,0.021c-0.003,0.006 -0.007,0.013 -0.01,0.021c-0.001,-0 -0.002,-0.001 -0.001,-0.002c0.001,-0.001 0,-0 -0.001,0.001c0.001,-0.003 0.003,-0.005 0.004,-0.008c0.001,-0.003 0.002,-0.006 0.001,-0.009c-0.003,0.004 -0.006,0.009 -0.007,0.015c-0.002,0.007 -0.004,0.014 -0.005,0.022c-0.001,-0 -0.001,-0.001 -0.001,-0.002c0,-0.001 -0,-0.001 -0.001,-0.001c-0.002,0.007 -0.004,0.014 -0.007,0.019c-0.003,0.005 -0.007,0.012 -0.01,0.019c-0.001,-0 -0.001,-0 -0.002,-0.001c-0.007,0.018 -0.013,0.033 -0.019,0.046c-0.007,0.013 -0.014,0.028 -0.021,0.043c0.003,-0.01 0.007,-0.02 0.011,-0.031c0.004,-0.011 0.008,-0.021 0.013,-0.032l-0.001,0c-0.004,0.011 -0.008,0.022 -0.013,0.031c-0.005,0.01 -0.011,0.02 -0.016,0.03c0.001,0.001 0.001,0.003 0,0.004c0,-0 -0.001,0.001 -0.002,0.002c0.001,0.003 0,0.005 -0.001,0.006c-0.001,0.001 -0.002,0.003 -0.002,0.006c-0.003,0.001 -0.005,0.004 -0.006,0.008c-0.001,0.005 -0.002,0.009 -0.005,0.012c-0.001,0.008 -0.003,0.014 -0.006,0.019c-0.003,0.005 -0.006,0.011 -0.008,0.018c-0.002,0.002 -0.004,0.005 -0.005,0.009c0.001,-0 0.001,-0 0.002,-0.001c0.001,-0.001 0.001,-0 0.002,0.002c0.003,-0.007 0.006,-0.014 0.01,-0.019c0.003,-0.005 0.007,-0.012 0.01,-0.019c0.002,0.001 0.003,0 0.004,-0.001c-0,-0.001 0.001,-0.002 0.002,-0.003c0.006,-0.014 0.012,-0.028 0.018,-0.041c0.006,-0.013 0.012,-0.026 0.018,-0.039c0.001,0.001 0,0.004 -0.002,0.009c-0.002,0.005 -0.004,0.009 -0.007,0.013c-0.002,0.009 -0.005,0.015 -0.01,0.02c-0.001,0.005 -0.003,0.01 -0.004,0.013c-0.001,0.003 -0.003,0.008 -0.005,0.013c0.005,-0.001 0.008,-0.005 0.009,-0.012c0.001,-0.006 0.003,-0.011 0.006,-0.014l0.037,-0.08c0.001,-0 0.002,0 0.001,0.001c-0.001,0.001 -0.001,0.002 0,0.003c0.006,-0.017 0.013,-0.032 0.02,-0.047c0.007,-0.014 0.014,-0.03 0.019,-0.047c0.001,-0 0.002,-0 0.003,-0.001c0.001,0 0.001,-0 0.002,-0c0.009,-0.023 0.017,-0.045 0.026,-0.066c0.009,-0.021 0.017,-0.043 0.024,-0.066c0.004,-0.01 0.007,-0.02 0.008,-0.03c0.001,-0.01 0.004,-0.02 0.009,-0.029c0.001,0.001 0.001,0.003 0,0.005c-0.001,0.002 -0.001,0.002 0.002,-0c0,0.003 -0.001,0.007 -0.003,0.01c-0.002,0.003 -0.002,0.007 0,0.011c-0.003,0.002 -0.004,0.004 -0.003,0.007c0.001,0.003 0.001,0.005 0.002,0.007c0.002,-0.005 0.003,-0.01 0.003,-0.017c-0.001,-0.006 0,-0.011 0.003,-0.016c0.001,0.009 0.001,0.018 -0,0.028c-0.002,0.011 -0.004,0.021 -0.007,0.032c0.001,0.001 0.002,0.004 0.001,0.007c-0.001,0.003 -0.003,0.007 -0.004,0.011c-0.001,-0.001 -0.001,-0.001 -0.001,-0.002c-0.003,0.005 -0.005,0.011 -0.006,0.016c-0.002,0.005 -0.004,0.011 -0.005,0.018c0.001,0.002 0,0.004 -0.001,0.005c-0.001,0.002 -0.002,0.004 -0.003,0.006c-0.003,0.008 -0.006,0.016 -0.007,0.024c-0.002,0.008 -0.005,0.015 -0.008,0.021c-0.003,0.003 -0.005,0.006 -0.006,0.01c-0.002,0.004 -0.004,0.008 -0.006,0.011c-0.001,0.009 -0.004,0.017 -0.008,0.024c-0.004,0.007 -0.008,0.014 -0.011,0.022c-0.003,0.001 -0.004,0.002 -0.003,0.002c-0.001,0.005 -0.002,0.01 -0.005,0.013c-0.003,0.003 -0.006,0.007 -0.007,0.012c0.001,0.003 0,0.006 -0.002,0.009c-0.002,0.003 -0.004,0.006 -0.005,0.01l0,-0.001c-0.005,0.007 -0.009,0.014 -0.012,0.021c-0.003,0.008 -0.006,0.015 -0.009,0.022c-0.003,0.001 -0.004,0.003 -0.005,0.007c-0.001,0.004 -0.003,0.007 -0.006,0.008c0.001,-0.005 0.003,-0.009 0.005,-0.012c0.002,-0.003 0.004,-0.006 0.007,-0.01c0.003,-0.011 0.007,-0.022 0.012,-0.032c0.005,-0.009 0.009,-0.02 0.014,-0.031c0.001,-0 0.001,-0.001 0.001,-0.002c0,-0.001 0.001,-0.001 0.002,-0c0.002,-0.013 0.005,-0.024 0.01,-0.033c0.004,-0.009 0.008,-0.019 0.013,-0.03c0.003,-0.007 0.005,-0.013 0.006,-0.019c0.001,-0.005 0.003,-0.01 0.005,-0.015c0.001,-0.003 0.003,-0.007 0.005,-0.01c0.001,-0.003 0.003,-0.006 0.005,-0.009c0.001,-0.002 0.002,-0.004 0.003,-0.007c-0,-0.003 0,-0.005 0.001,-0.007c0.001,-0.005 0.003,-0.011 0.006,-0.016c0.003,-0.005 0.005,-0.012 0.006,-0.02c-0.001,0.001 -0.002,0.002 -0.002,0.004c-0.001,0.003 -0.001,0.005 -0.002,0.006c-0.001,-0.001 -0.001,-0.003 0,-0.004c0.001,-0.001 0.001,-0.002 0.001,-0.003c-0.003,0.003 -0.004,0.005 -0.003,0.008c0.001,0.003 0,0.006 -0.001,0.009c-0.001,-0 -0.001,-0.001 -0.001,-0.003c-0.001,0.001 -0.001,0.002 -0.002,0.003c-0.001,0.001 -0.001,0.003 -0.001,0.004c0,-0 0,-0 0.001,-0.001Zm-0.14,0.303c-0.001,-0.001 -0.002,-0.002 -0.002,-0.002l-0.002,0.004c-0.001,0.003 -0.003,0.006 -0.004,0.007c0,0.001 -0,0.001 -0.001,0.002l-0.003,0.006l-0.008,0.015l-0.003,0.01c-0.001,-0 -0.002,-0 -0.002,-0.001c-0.001,0 -0.002,-0 -0.003,-0c-0.002,0.007 -0.004,0.013 -0.006,0.018c-0.003,0.006 -0.006,0.012 -0.009,0.018l-0.004,0.008c-0.003,0.005 -0.005,0.011 -0.007,0.016c-0.003,0.006 -0.005,0.012 -0.007,0.019c0.003,-0.003 0.005,-0.006 0.007,-0.009c0.001,-0.003 0.003,-0.007 0.005,-0.011l0.005,-0.015l0.009,-0.017c0.001,0.003 -0,0.005 -0.003,0.008c-0.003,0.003 -0.004,0.007 -0.003,0.01l0,0.001c0,0.001 0,0.001 0.001,0.001l0.019,-0.043l0.009,-0.018l0.005,-0.009l0,-0.001c0,-0.001 0.001,-0.002 0.002,-0.003l0,-0.001c0,-0 0,-0 0.001,-0.001c0,-0.001 0,-0.001 0.001,-0.002c-0,-0.001 0,-0.001 0,-0.002c0,-0 0,-0 0.001,-0.001c0,-0.001 0,-0.001 0.001,-0.002c-0,0 0,-0 0,-0.001l0.002,-0.003l0.004,-0.009l0.002,-0.003l0.001,-0.001l0.003,-0.006c0,-0.001 0,-0.001 0.001,-0.001c-0,-0 0,-0 0,-0.001c0.001,-0.003 0.002,-0.004 0.002,-0.005c0.003,-0.005 0.005,-0.011 0.007,-0.019c0,-0.001 0,-0.001 0.001,-0.002c-0,0 0,-0 0,-0.001l-0.003,0.007l-0.003,0.006l-0.006,0.013c-0.001,0.002 -0.003,0.005 -0.004,0.009l-0.001,0.001l0,0.001l-0.001,-0.001l0,0.004c0,0.001 -0,0.001 -0,0.001c-0.001,-0 -0.001,0 -0.001,0.001l-0.001,0.001c-0.001,0.001 -0.001,0.001 -0.001,0.002c-0.001,-0 -0.001,0 -0.001,0.001l0,0.001Zm0.004,-0.011l0,0.004c0,0.001 -0,0.001 -0,0.001c-0.001,-0 -0.001,0 -0.001,0.001l-0.001,0.001c-0.001,0.001 -0.001,0.001 -0.001,0.002c-0.001,-0 -0.001,0 -0.001,0.001l0,0.001c-0.001,-0.001 -0.002,-0.002 -0.002,-0.002l-0.002,0.004c-0.001,0.003 -0.003,0.006 -0.004,0.007c0,0.001 -0,0.001 -0.001,0.002l-0.003,0.006l-0.008,0.015l-0.003,0.01c-0.001,-0 -0.002,-0 -0.002,-0.001c-0.001,0 -0.002,-0 -0.003,-0c-0.002,0.007 -0.004,0.013 -0.006,0.018c-0.003,0.006 -0.006,0.012 -0.009,0.018l-0.004,0.008c-0.003,0.005 -0.005,0.011 -0.007,0.016c-0.003,0.006 -0.005,0.012 -0.007,0.019c0.003,-0.003 0.005,-0.006 0.007,-0.009c0.001,-0.003 0.003,-0.007 0.005,-0.011l0.005,-0.015l0.009,-0.017c0.001,0.003 -0,0.005 -0.003,0.008c-0.003,0.003 -0.004,0.007 -0.003,0.01l0,0.001c0,0.001 0,0.001 0.001,0.001l0.019,-0.043l0.009,-0.018l0.005,-0.009l0,-0.001c0,-0.001 0.001,-0.002 0.002,-0.003l0,-0.001c0,-0 0,-0 0.001,-0.001c0,-0.001 0,-0.001 0.001,-0.002c-0,-0.001 0,-0.001 0,-0.002c0,-0 0,-0 0.001,-0.001c0,-0.001 0,-0.001 0.001,-0.002c-0,0 0,-0 0,-0.001l0.002,-0.003l0.004,-0.009l0.002,-0.003l0.001,-0.001l0.003,-0.006c0,-0.001 0,-0.001 0.001,-0.001c-0,-0 0,-0 0,-0.001c0.001,-0.003 0.002,-0.004 0.002,-0.005c0.003,-0.005 0.005,-0.011 0.007,-0.019c0,-0.001 0,-0.001 0.001,-0.002c-0,0 0,-0 0,-0.001l-0.003,0.007l-0.003,0.006l-0.006,0.013c-0.001,0.002 -0.003,0.005 -0.004,0.009l-0.001,0.001l0,0.001l-0.001,-0.001Zm0.002,-0.067l-0.001,-0c0.001,-0.001 0.001,-0.001 0.001,-0.001l0,0.002c0.001,-0.001 0.001,-0.003 0.002,-0.004c0.001,-0.001 0.001,-0.003 0.002,-0.005l0.001,-0.001c0,-0.001 0.001,-0.002 0.002,-0.005c0,-0.001 0,-0.001 0.001,-0.002l0.003,-0.004c0,-0.001 0,-0.001 0.001,-0.002l0.002,-0.002l0,0.001c-0.001,0.001 -0.001,0.002 -0.001,0.002l0,0.001c0,0.001 -0,0.001 -0,0.001c-0.001,0.001 -0.001,0.001 -0.001,0.002c-0.001,0.004 -0.003,0.008 -0.005,0.011c-0.003,0.004 -0.005,0.008 -0.006,0.012l-0.001,0.001l0,0.002l-0.001,0.002l0,0.002l-0.002,-0l0,0.001l-0.001,0.001l-0.002,-0l0,0.003c-0.001,-0 -0.001,0 -0.001,0.001l0,0.003c-0.001,0.001 -0.001,0.002 -0.001,0.003c0,0.001 -0,0.001 -0.001,0.002l-0.004,0.008l-0.001,0.001l0,0.001c-0.001,0.001 -0.001,0.001 -0.001,0.001l0,0.001c-0.001,0.003 -0.002,0.004 -0.002,0.004l0,0.001l-0.001,-0l0,-0.009c0,-0.001 0,-0.001 0.001,-0.001c-0,0.001 0,0.001 0,-0l0,-0.001l0.002,-0.004l0,-0.001l0.003,-0.006c0,-0.001 0,-0.001 0.001,-0.002c-0,-0.001 0,-0.001 0,-0.002l0,-0.001c0.001,-0.001 0.001,-0.001 0.001,-0.002l0,-0.001l0.003,-0c0.002,-0.001 0.003,-0.002 0.003,-0.003c0.001,-0 0.001,-0 0.001,-0.001c0.001,-0 0.001,-0 0.001,-0.001l0,-0.001c0,-0.001 0,-0.001 0.001,-0.001c-0,-0 0,-0.001 0,-0.002c0.001,-0.001 0.001,-0.001 0.001,-0.002l0,-0.001l-0.001,-0l0,-0.001l0.001,-0.001Zm-0.047,0.103c0.003,-0.006 0.006,-0.012 0.008,-0.017l0.009,-0.02c-0.001,-0.001 -0.002,-0.001 -0.003,-0.001l-0.006,0.015c-0.003,0.005 -0.005,0.01 -0.007,0.014c-0.003,0.004 -0.005,0.008 -0.006,0.013l0,0.002c-0.001,0.001 -0.001,0.002 -0.001,0.004c0,-0.001 0,-0.001 0.001,-0.001c-0,-0 0,-0 0,-0.001l0.005,-0.008Zm0,-0c0.003,-0.006 0.006,-0.012 0.008,-0.017l0.009,-0.02c-0.001,-0.001 -0.002,-0.001 -0.003,-0.001l-0.006,0.015c-0.003,0.005 -0.005,0.01 -0.007,0.014c-0.003,0.004 -0.005,0.008 -0.006,0.013l0,0.002c-0.001,0.001 -0.001,0.002 -0.001,0.004c0,-0.001 0,-0.001 0.001,-0.001c-0,-0 0,-0 0,-0.001l0.005,-0.008Zm0.177,-0.293c0,0.001 -0,0.001 -0.001,0.002l0,0.003l-0.004,0.009c-0.001,-0 -0.001,0 -0.001,0.001c-0.001,0.001 -0.002,0.002 -0.002,0.003l-0.006,0.01c-0.001,0.001 -0.001,0.002 -0.001,0.003c0,0.001 -0,0.001 -0.001,0.002l0,0.004l0.001,-0l0.006,-0.01l0.004,-0.008c0,-0.001 0.001,-0.002 0.002,-0.005l0.002,-0.007l0,-0.002c0,-0.001 0,-0.001 0.001,-0.001c-0,-0 0,-0 0,-0.001l0,-0.003Zm-0.001,0.005l-0.004,0.009c-0.001,-0 -0.001,0 -0.001,0.001c-0.001,0.001 -0.002,0.002 -0.002,0.003l-0.006,0.01c-0.001,0.001 -0.001,0.002 -0.001,0.003c0,0.001 -0,0.001 -0.001,0.002l0,0.004l0.001,-0l0.006,-0.01l0.004,-0.008c0,-0.001 0.001,-0.002 0.002,-0.005l0.002,-0.007l0,-0.002Zm-0.107,0.105c0.001,-0 0.001,-0.001 0.001,-0.002c0.001,-0 0.001,0.002 0.001,0.006c-0.003,-0.001 -0.005,-0 -0.005,0.004c-0.001,0.004 -0.001,0.007 -0.002,0.009c-0.001,-0 -0.002,-0 -0.001,-0.001c0.001,-0.001 0,-0.001 -0.001,-0.001c0.001,-0.003 0.003,-0.008 0.004,-0.013c0.001,-0.005 0.004,-0.009 0.007,-0.012c0.001,0.001 0,0.003 -0.001,0.004c-0.001,0.001 -0.001,0.002 0,0.003c-0.001,-0 -0.002,0 -0.003,0c-0.001,0.001 -0.001,0.002 0,0.003Zm0.127,-0.183c0,-0 0,-0.001 0.001,-0.002l0.001,-0.001c0,-0.001 0,-0.001 0.001,-0.002c-0,0 0,-0 0,-0.001c0.001,-0 0.001,-0 0.001,-0.001c0,-0.001 0,-0.001 0.001,-0.002l0,-0.001l0.003,-0.009c-0.001,-0 -0.001,0 -0.001,0.001l-0.003,0.003c-0.002,0.002 -0.003,0.004 -0.003,0.005l0,0.001l-0.001,0.001l0,0.008Zm0.008,-0.019c-0.001,-0 -0.001,0 -0.001,0.001l-0.003,0.003c-0.002,0.002 -0.003,0.004 -0.003,0.005l0,0.001l-0.001,0.001l0,0.008c0,-0 0,-0.001 0.001,-0.002l0.001,-0.001c0,-0.001 0,-0.001 0.001,-0.002c-0,0 0,-0 0,-0.001c0.001,-0 0.001,-0 0.001,-0.001c0,-0.001 0,-0.001 0.001,-0.002l0,-0.001l0.003,-0.009Zm-0.065,0.04c0,-0.001 -0.001,-0.002 -0.002,-0.003l0,-0.002c0,-0 0,-0 0.001,-0.001l0,0.003l0.001,-0c0,-0 0,-0 0.001,-0.001l0,-0.002c0,-0 0,-0.001 0.001,-0.002l-0.002,-0l-0.001,0.001l0,-0.004l0.001,-0.002c0,-0.002 0,-0.004 0.001,-0.005l0,-0.001l0.003,-0.008c-0.002,0.001 -0.004,0.004 -0.005,0.009c-0.001,0.001 -0.001,0.003 -0.001,0.005l0,0.008c0,0.001 -0,0.001 -0,0.002c-0.001,0.001 -0.001,0.001 -0.001,0.002l0.001,-0c0,0.001 0,0.001 0.001,0.001l0,0.001l0.001,-0l0,-0.001Zm-0.065,0.151c0.001,-0.002 0.001,-0.005 0.002,-0.008c0.001,-0.003 0.002,-0.007 0.003,-0.01c0.001,-0 0.001,0.001 0.001,0.002c-0.001,0.001 -0,0.002 0.001,0.001c-0.001,0.003 -0.002,0.006 -0.003,0.008c-0.001,0.003 -0.003,0.005 -0.004,0.007Zm0.079,-0.198c0,-0.001 0,-0.001 0.001,-0.001l0,-0.002l0.003,-0.009l0,-0.002c0,-0.001 0,-0.001 0.001,-0.001c-0,-0 0,-0 0,-0.001l0,-0.003l-0.001,0.001l-0.001,-0c0,-0 -0,0 -0.001,0.001l-0.002,0.012l-0.002,0.003l0,0.001l0.001,-0c0,0.001 0,0.001 0.001,0.002l0,-0.001Zm0,-0c0,-0.001 0,-0.001 0.001,-0.001l0,-0.002l0.003,-0.009l0,-0.002c0,-0.001 0,-0.001 0.001,-0.001c-0,-0 0,-0 0,-0.001l0,-0.003l-0.001,0.001l-0.001,-0c0,-0 -0,0 -0.001,0.001l-0.002,0.012l-0.002,0.003l0,0.001l0.001,-0c0,0.001 0,0.001 0.001,0.002l0,-0.001Zm-0.015,0.029c-0.001,0.001 -0.001,0.003 -0.001,0.005l0,0.008c0,-0 0,-0 0.001,-0.001l0,0.003l0.001,-0c0,-0 0,-0 0.001,-0.001l0,-0.002c0,-0 0,-0.001 0.001,-0.002l-0.002,-0l-0.001,0.001l0,-0.004l0.001,-0.002c0,-0.002 0,-0.004 0.001,-0.005l0,-0.001l0.003,-0.008c-0.002,0.001 -0.004,0.004 -0.005,0.009Zm-0.136,0.376c-0.001,0.001 -0.002,0.002 -0.002,0.003l0,0.001c-0.003,0.004 -0.004,0.007 -0.005,0.009c-0.001,0.001 -0.001,0.004 -0.001,0.007c0,-0 0,-0 0.001,-0.001c0,-0.001 0.001,-0.002 0.002,-0.003l0.004,-0.013c0,-0 0,-0.001 0.001,-0.002l0,-0.001Zm0,-0c-0.001,0.001 -0.002,0.002 -0.002,0.003l0,0.001c-0.003,0.004 -0.004,0.007 -0.005,0.009c-0.001,0.001 -0.001,0.004 -0.001,0.007c0,-0 0,-0 0.001,-0.001c0,-0.001 0.001,-0.002 0.002,-0.003l0.004,-0.013c0,-0 0,-0.001 0.001,-0.002l0,-0.001Zm0.158,-0.379c0,0.005 -0.001,0.009 -0.002,0.012c-0.002,0.003 -0.003,0.006 -0.004,0.01c-0.001,-0.007 0.001,-0.015 0.006,-0.022Zm-0.057,0.234c0.001,-0.005 0.003,-0.01 0.005,-0.017c0.001,-0.007 0.003,-0.012 0.006,-0.015l-0.011,0.032Zm-0.083,0.082c0,0.001 -0,0.003 -0,0.004c-0.001,0.002 -0.001,0.004 -0.001,0.005c0,0.001 -0,0.001 -0.001,0.001l0.001,-0l0.003,-0.006l-0.002,-0l0,-0.001c0,-0.001 0.001,-0.002 0.002,-0.003l0.001,-0.001c-0.001,0.001 -0.001,0.002 -0.001,0.003l0,0.001l0.001,-0l0,-0.002l0.002,-0.002l0,-0.001c0.001,-0.001 0.001,-0.002 0,-0.004l0,-0.001c-0.001,0.001 -0.001,0.001 -0.001,0.002c-0.001,0.001 -0.001,0.001 -0.002,0.001l0,-0.001l-0.002,0.005Zm0.005,-0.007c-0.001,0.001 -0.001,0.001 -0.001,0.002c-0.001,0.001 -0.001,0.001 -0.002,0.001l0,-0.001l-0.002,0.005c0,0.001 -0,0.003 -0,0.004c-0.001,0.002 -0.001,0.004 -0.001,0.005l0,0.001l0.003,-0.006l-0.002,-0l0,-0.001c0,-0.001 0.001,-0.002 0.002,-0.003l0.001,-0.001c-0.001,0.001 -0.001,0.002 -0.001,0.003l0,0.001l0.001,-0l0,-0.002l0.002,-0.002l0,-0.001c0.001,-0.001 0.001,-0.002 0,-0.004l0,-0.001Zm0.059,-0.022c0.002,-0.003 0.004,-0.007 0.005,-0.01c0.001,-0.003 0.003,-0.006 0.004,-0.009c0.001,0.003 0.001,0.007 -0.002,0.01c-0.003,0.003 -0.005,0.006 -0.007,0.009Zm0.038,-0.242c0.001,-0.001 0.001,-0.003 0.001,-0.006c-0.001,-0.003 0.001,-0.004 0.004,-0.004c0,0.007 -0.002,0.01 -0.005,0.01Zm0.004,0.047c-0.001,-0.001 -0.001,-0.003 0.001,-0.005c0.001,-0.001 0.002,-0.003 0.002,-0.006c0.001,0.001 0.002,0.003 0.001,0.006c-0.001,0.003 -0.001,0.005 -0.002,0.007c-0.001,-0.001 -0.002,-0.002 -0.001,-0.003c-0,-0.001 -0,-0 -0.001,0.001Zm-0.093,0.229c-0.001,-0.001 -0.001,-0.003 0,-0.005c0.001,-0.001 0.002,-0.002 0.003,-0.002c0,-0.001 0.001,-0.004 0.002,-0.007c0.001,-0.003 0.002,-0.004 0.005,-0.003c-0.003,0.002 -0.005,0.004 -0.006,0.007c-0.001,0.003 -0.003,0.007 -0.004,0.01Zm0.071,-0.122c0.001,-0.003 0.002,-0.007 0.003,-0.011c0.001,-0.004 0.002,-0.007 0.004,-0.01l-0.007,0.021Zm-0.016,-0.066c0.001,-0.001 0.001,-0.004 0.002,-0.008c-0,-0.003 0,-0.004 0.001,-0.001c0,0.001 -0,0.002 -0,0.003c-0.001,0.001 -0.001,0.002 -0.001,0.003c-0.001,0.001 -0,0.002 0.001,0.001c0.001,0 0.002,0.001 0.001,0.002c-0.001,-0 -0.002,-0 -0.002,-0.001c0,0 -0.001,0 -0.002,0.001Zm0,-0c0.001,0.003 0.001,0.005 -0,0.006c-0.001,0.002 -0.002,0.004 -0.002,0.005c-0.001,-0.001 -0.001,-0.003 -0,-0.006c0.001,-0.002 0.001,-0.004 0.002,-0.005Zm0.006,0.047c-0.001,0.001 -0.001,0.001 -0.001,0.002l0.001,-0c0.002,-0 0.003,-0.002 0.003,-0.006c0,-0 -0,-0.001 -0.001,-0.002l-0.002,0.006Zm0,-0c-0.001,0.001 -0.001,0.001 -0.001,0.002l0.001,-0c0.002,-0 0.003,-0.002 0.003,-0.006c0,-0 -0,-0.001 -0.001,-0.002l-0.002,0.006Zm-0.096,0.139c-0.001,-0.002 -0,-0.004 0.001,-0.006c0.001,-0.001 0.001,-0.003 0.002,-0.004c0,0.003 -0.001,0.006 -0.003,0.01Zm0.095,-0.203c0,-0.003 0.001,-0.007 0.003,-0.011c0.002,-0.003 0.004,-0.007 0.005,-0.01c-0.001,0.003 -0.003,0.007 -0.004,0.01c-0.001,0.003 -0.003,0.007 -0.004,0.011Zm0.072,-0.133c0.001,-0.001 0.002,-0.001 0.001,0c-0.001,0.002 -0.001,0.003 0,0.003c-0.001,0.001 -0.002,0.002 -0.001,0.003c0.001,0.001 0.001,0.002 0,0.003c-0.001,-0.001 -0.002,-0.003 -0.001,-0.005c-0,-0.001 0,-0.003 0.001,-0.004Zm-0.159,0.391c0.001,-0 0.001,-0 0.002,-0.001l0,-0.001c0,-0 0,-0 0.001,-0.001l0,-0.004c-0.002,0.002 -0.003,0.004 -0.003,0.006l0,0.001Zm0.002,-0.002c0,-0 0,-0 0.001,-0.001l0,-0.004c-0.002,0.002 -0.003,0.004 -0.003,0.006l0,0.001c0.001,-0 0.001,-0 0.002,-0.001l0,-0.001Zm0.013,-0.099c0.001,-0.001 0.001,-0.002 0.002,-0.003c0.001,-0.001 0.001,-0.002 0.001,-0.003c0.001,0.001 0.001,0.002 0.001,0.003c-0.001,0.001 -0.001,0.002 -0.001,0.003l-0.003,-0Zm0.08,-0.151c0.001,-0.001 0.002,-0.003 0.005,-0.006c0,0.001 -0,0.002 -0.001,0.003c-0.001,0.002 -0.003,0.003 -0.004,0.003Zm-0.123,0.252l-0.001,0.001c0,-0 -0,0.001 -0.001,0.002c0,0.001 0.001,0.001 0.002,0.001c0.001,-0.001 0.002,-0.002 0.001,-0.003l0,-0.001l-0.001,-0Zm0,-0l-0.001,0.001c0,-0 -0,0.001 -0.001,0.002c0,0.001 0.001,0.001 0.002,0.001c0.001,-0.001 0.002,-0.002 0.001,-0.003l0,-0.001l-0.001,-0Zm0.105,-0.237c-0.001,-0.001 -0.001,-0.003 0,-0.005c0.001,-0.001 0.002,-0.003 0.002,-0.004c0.001,0.001 0.002,0.003 0.001,0.004c-0.001,0.001 -0.002,0.003 -0.003,0.005Zm-0.038,0.087c-0.001,-0.001 -0,-0.003 0.001,-0.005c0.001,-0.001 0.002,-0.003 0.002,-0.005c0.001,0.001 0.001,0.003 0,0.004c-0.001,0.002 -0.002,0.004 -0.003,0.006Zm-0.42,0.37c0.001,0.001 0.002,0.003 0.001,0.004c-0.001,0.001 -0.001,0.003 -0.001,0.005c-0.001,-0.003 -0.001,-0.006 0,-0.009Zm0.449,-0.435c-0.001,-0.001 -0,-0.003 0.001,-0.004c0.001,-0.001 0.001,-0.003 0.001,-0.006c0.001,0.003 0.002,0.005 0.001,0.006c-0.001,0.001 -0.002,0.003 -0.003,0.004Zm-0.091,0.205c0,0.001 -0,0.001 -0,0.002c-0.001,0.001 -0.001,0.002 -0.001,0.003l0.001,-0l0,-0.001c0,-0.001 0.001,-0.002 0.002,-0.002l0,-0.001l-0.001,-0.001l-0.001,-0Zm0,-0c0,0.001 -0,0.001 -0,0.002c-0.001,0.001 -0.001,0.002 -0.001,0.003l0.001,-0l0,-0.001c0,-0.001 0.001,-0.002 0.002,-0.002l0,-0.001l-0.001,-0.001l-0.001,-0Zm0.019,-0.055c-0.001,-0.001 -0.001,-0.002 -0,-0.003c0.001,0 0.002,-0.001 0.003,-0.002c0.001,0.001 0.001,0.001 -0,0.002c-0.002,0.001 -0.003,0.002 -0.003,0.003Zm0.202,-0.303c0.001,-0 0.002,-0.001 0.003,-0.003l0,-0.002l-0.001,-0.001l0,0.003c-0.001,0.001 -0.002,0.002 -0.002,0.003Zm0.002,-0.003c-0.001,0.001 -0.002,0.002 -0.002,0.003c0.001,-0 0.002,-0.001 0.003,-0.003l0,-0.002l-0.001,-0.001l0,0.003Zm-0.129,0.146c0,-0.001 0.001,-0.003 0.002,-0.004c0.001,-0.001 0.001,-0.003 0.001,-0.004c0.001,0.002 0,0.005 -0.003,0.008Zm0.066,-0.144c0,-0.001 0.001,-0.002 0.002,-0.005l0,-0.001c0,-0 -0,-0 -0.001,-0.001c0,0.002 -0.001,0.004 -0.002,0.007l0,0.001l0.001,-0l0,-0.001Zm0.001,-0.007c0,0.002 -0.001,0.004 -0.002,0.007l0,0.001l0.001,-0l0,-0.001c0,-0.001 0.001,-0.002 0.002,-0.005l0,-0.001c0,-0 -0,-0 -0.001,-0.001Zm-0.02,0.119c0,0.001 -0,0.001 -0.001,0.001c0,-0 0,0 0,0.001c0,-0 -0,0 -0.001,0.001l0.002,-0l0.001,-0.001l0,-0.002l-0.001,-0l0,-0.001l0,0.001Zm0,-0c0,0.001 -0,0.001 -0.001,0.001c0,-0 0,0 0,0.001c0,-0 -0,0 -0.001,0.001l0.002,-0l0.001,-0.001l0,-0.002l-0.001,-0l0,-0.001l0,0.001Zm-0.006,0.104c-0.001,-0 -0.002,-0.001 -0.001,-0.002c0.001,-0.001 0.001,-0.002 0.001,-0.003c0.001,0.001 0.001,0.001 0,0.002c-0.001,0.001 -0.001,0.002 0,0.003Zm0.019,-0.201c0,0.001 0,0.001 0.001,0.001l0,0.001l0.001,-0l0,-0.001c0,-0.001 -0.001,-0.002 -0.002,-0.003l0,-0.002c0,0.001 -0,0.001 -0.001,0.002c0,0.001 0,0.001 0,0.002l0.001,-0Zm-0.14,0.411c0,0.001 -0.001,0.002 -0.002,0.003l0,0.001l0.001,-0l0,-0.001l0.001,-0c0,-0 0,-0 0.001,-0.001l0,-0.001l-0.001,-0l0,-0.001Zm-0.001,0.003l0.001,-0c0,-0 0,-0 0.001,-0.001l0,-0.001l-0.001,-0l0,-0.001c0,0.001 -0.001,0.002 -0.002,0.003l0,0.001l0.001,-0l0,-0.001Zm0.145,-0.34c0,-0.002 0,-0.003 0.001,-0.004l0,-0.001c-0.001,-0 -0.001,0 -0.001,0.001c-0.001,-0 -0.001,0 -0.001,0.001l0,0.002l0.001,0.001Zm0,-0c0,-0.002 0,-0.003 0.001,-0.004l0,-0.001c-0.001,-0 -0.001,0 -0.001,0.001c-0.001,-0 -0.001,0 -0.001,0.001l0,0.002l0.001,0.001Zm-0.131,0.209c-0.001,-0 -0.001,0 -0.001,0.001c0,-0.001 0.001,-0.003 0.002,-0.005c0.001,-0.001 0,-0 -0.001,0.004Zm0.031,-0.071c-0.001,-0.001 -0.001,-0.003 0,-0.004c0.002,-0.001 0.003,-0.002 0.003,-0.003c0.001,0.001 0.001,0.002 -0.001,0.003c-0.002,0.001 -0.003,0.003 -0.002,0.004Zm0.136,-0.159c-0,0.001 -0,0.001 -0.001,0.002l-0,0.003c-0,-0.001 0,-0.001 0,-0.001c0.001,-0 0.001,-0 0.001,-0.001l-0,-0.003Zm-0.056,0.142c-0.002,-0 -0.002,-0.001 0,-0.003l0,0.003Zm-0.049,-0.054c0,0.003 -0.001,0.005 -0.003,0.007c0.003,-0.003 0.004,-0.005 0.003,-0.007Zm-0.005,0.012c0,-0.001 0.001,-0.002 0.002,-0.005c-0.001,0.003 -0.002,0.004 -0.002,0.005Zm0.061,-0.144c-0.001,0.003 -0.002,0.004 -0.002,0.005c0,-0.002 0.001,-0.004 0.002,-0.005Zm-0.011,0.115l0,-0.003l0,0.003Zm-0.015,-0.046l0,0.002l0,-0.002Zm-0.066,0.182c0,-0 0,-0.001 0.001,-0.002c0,0.001 -0,0.001 -0.001,0.002Z" style="fill:#ffcf51;fill-rule:nonzero;"/></g><g transform="matrix(15,0,0,15,473.741,534.433)"><path d="M0.044,0.166c-0.002,0.005 -0.002,0.01 0.001,0.015c0.003,0.005 0.002,0.01 -0.001,0.014c0.003,0.001 0.005,0.003 0.005,0.006c0,0.003 0.001,0.005 0.002,0.006c0.002,-0 0.004,-0 0.005,-0.001c0.001,0 0.003,0 0.004,0.001c-0.003,0.003 -0.004,0.006 -0.003,0.009c-0.002,-0 -0.003,-0 -0.004,-0.001c-0.001,0 -0.002,-0 -0.003,-0c-0.001,-0 -0.001,0 -0.002,0.001c-0.001,0.001 -0,0.001 0.001,0.002c-0.007,-0.001 -0.013,-0.004 -0.018,-0.008c-0.005,-0.003 -0.009,-0.007 -0.013,-0.01c-0.001,-0.003 -0.002,-0.006 -0.003,-0.009c-0.002,-0.003 -0.004,-0.006 -0.006,-0.009c0.003,-0.003 0.003,-0.007 0.002,-0.01c-0.001,-0.003 -0.003,-0.007 -0.004,-0.01c0.003,-0.02 0.007,-0.04 0.01,-0.059c0.003,-0.019 0.008,-0.04 0.015,-0.063c0.003,-0.011 0.006,-0.022 0.01,-0.034c0.004,-0.012 0.008,-0.025 0.012,-0.038c0.001,-0.002 0.001,-0.004 0.001,-0.006c0,-0.003 0.001,-0.006 0.003,-0.009c0.001,-0.001 0.002,-0.002 0.003,-0.003c0.001,-0.001 0,-0.002 -0.001,-0.004l0.003,0c0,-0.001 -0.001,-0.002 -0.002,-0.002c-0.001,-0.001 -0.001,-0.002 -0.001,-0.003l0.036,-0.118c0,-0.001 0.001,-0.002 0.003,-0.001c0.001,0.001 0.002,0 0.003,-0.001c0.001,-0.001 0.001,-0.002 -0.001,-0.001c-0.001,-0 -0.002,-0.001 -0.002,-0.002c0.003,-0.015 0.009,-0.032 0.016,-0.05c0.007,-0.018 0.014,-0.035 0.019,-0.05c0.002,-0.004 0.004,-0.008 0.006,-0.012c0.001,-0.005 0.003,-0.009 0.004,-0.014c0.001,-0.001 0.002,-0.002 0.002,-0.002l-0.001,0c0.004,-0.015 0.01,-0.031 0.017,-0.048c0.007,-0.017 0.012,-0.03 0.015,-0.038c0.006,-0.015 0.013,-0.028 0.02,-0.04c0.001,-0.001 0.001,-0.003 0,-0.005c0,-0.001 -0,-0.003 -0,-0.004c-0,-0.001 0,-0.001 0.001,-0.001c0.001,0 0.002,-0 0.002,-0.001c0.003,-0.005 0.005,-0.012 0.006,-0.019c0.005,-0.005 0.007,-0.011 0.008,-0.018c0.001,-0.008 0.006,-0.015 0.013,-0.02c0.001,-0.005 0.002,-0.009 0.003,-0.012c0.001,-0.003 0.002,-0.005 0.003,-0.008c0.003,-0.005 0.006,-0.011 0.007,-0.016c0.002,-0.006 0.005,-0.012 0.008,-0.017c0.003,-0.008 0.007,-0.015 0.012,-0.022c0.005,-0.007 0.008,-0.015 0.009,-0.022c0.001,-0.001 0.002,-0.003 0.002,-0.004l-0,-0.004c0.002,-0.009 0.006,-0.017 0.012,-0.025c0.006,-0.008 0.01,-0.017 0.011,-0.026l-0.003,0.002c-0,-0.002 0,-0.004 0.001,-0.005c0.001,-0.002 0.001,-0.004 0.001,-0.007c-0,-0.001 0.001,-0.002 0.003,-0.004c0.005,-0.004 0.009,-0.008 0.012,-0.011c0.004,-0.003 0.008,-0.007 0.011,-0.011c0.001,0 0.002,0 0.003,0.001c0.001,0.001 0.003,0.001 0.004,0.001c0.005,0.003 0.01,0.006 0.015,0.008c0.005,0.002 0.011,0.004 0.018,0.005l0.001,0l0.002,0.002c0.001,0.001 0.001,0.003 0.001,0.004c0.001,0.001 0.002,0.002 0.003,0.003c0.002,0.007 0.001,0.014 -0.002,0.023c-0.001,0.005 -0.002,0.01 -0.003,0.015c-0.001,0.004 -0.002,0.009 -0.005,0.014c-0.002,0.005 -0.005,0.01 -0.009,0.014c-0.003,0.004 -0.006,0.009 -0.007,0.014c-0,0.002 0,0.004 0,0.006c0.001,0.001 0.001,0.003 -0,0.004c-0.001,0.005 -0.004,0.011 -0.008,0.016c-0.003,0.005 -0.007,0.01 -0.01,0.015c-0.002,0.005 -0.004,0.011 -0.005,0.017c-0.001,0.005 -0.003,0.011 -0.006,0.016c-0.003,0.005 -0.006,0.01 -0.009,0.014c-0.003,0.003 -0.006,0.008 -0.011,0.013l-0.06,0.141c0.001,0.002 0,0.003 -0.002,0.004c-0.001,0.001 -0.001,0.002 0.001,0.003c-0.001,0.001 -0.002,0.002 -0.004,0.002c-0,0.004 -0.001,0.007 -0.003,0.009c-0.001,0.003 -0.003,0.005 -0.005,0.007c-0.001,0.001 -0,0.002 0.001,0.003c0.002,0.001 0.002,0.003 0.001,0.004c-0.004,0.001 -0.006,0.006 -0.007,0.014c-0.001,0.008 -0.004,0.015 -0.009,0.021c-0.002,-0 -0.004,-0.001 -0.005,-0.002c-0.001,-0.001 -0.001,-0.002 -0,-0.003c-0.001,-0.001 -0.002,-0.002 -0.003,-0.001c-0.001,0.001 -0.002,0.002 -0.004,0.001c-0.001,0.001 -0.001,0.001 -0.001,0.002c0.001,0.001 0,0.002 -0.001,0.003l0.003,-0c-0.001,0.001 -0.002,0.002 -0.003,0.002c-0.001,0.001 -0,0.002 0.002,0.004c0.001,-0.001 0.003,-0.001 0.004,-0.002c0.001,0 0.002,-0.001 0.002,-0.004c0.001,-0 0.002,0 0.002,0c0.001,0.001 0.002,0.001 0.003,0.001c-0.001,0.003 -0.001,0.006 -0.002,0.008c-0.001,0.003 -0.001,0.005 -0.001,0.007c-0.001,-0 -0.003,0.001 -0.006,0.003c-0.002,0.002 -0.004,0.002 -0.007,0.001c0.005,-0.003 0.007,-0.008 0.005,-0.013c-0.002,-0.001 -0.003,-0.001 -0.004,0c0,0.001 -0.001,0.002 -0.002,0.001c0.002,0.001 0.003,0.002 0.002,0.003c-0.001,0.001 -0,0.002 0.001,0.005c-0.001,0.001 -0.003,0.002 -0.006,0.002c-0.003,0.001 -0.005,0.002 -0.006,0.005c-0,0.001 0.001,0.001 0.002,0c0.001,0 0.003,0.001 0.004,0.002c0.001,-0 0.003,-0.001 0.005,-0.003c-0.001,0.001 -0.002,0.003 -0.003,0.005c-0.001,0.002 -0.001,0.005 -0.001,0.008c0.002,-0 0.003,-0.001 0.002,-0.003c0.003,0.002 0.004,0.004 0.001,0.005c-0.003,0.002 -0.005,0.003 -0.008,0.002c-0,0.001 0.001,0.002 0.002,0.001c0.001,0 0.002,0 0.003,0.001c-0.001,0.001 -0.003,0.002 -0.006,0.002c0.001,0.003 -0.001,0.007 -0.006,0.011c-0.005,0.004 -0.007,0.008 -0.007,0.013c-0,0.001 0.001,0 0.002,-0.002c0.002,-0.001 0.003,-0.003 0.003,-0.005c0.001,-0.001 0.002,-0.001 0.003,-0.001c0.001,0.001 0.002,0.001 0.004,0.002c0.001,-0.001 0.003,-0.004 0.005,-0.007c0.002,-0.003 0.003,-0.005 0.004,-0.007c0.001,0.003 0.002,0.004 0.002,0.004l-0.005,0.008c-0.003,0.003 -0.004,0.005 -0.004,0.008c0.001,0.003 -0.001,0.006 -0.006,0.007c0.003,-0.005 0.004,-0.009 0.004,-0.012c-0.003,0.001 -0.004,0.002 -0.005,0.004c0,0.002 -0.001,0.004 -0.002,0.005c-0.003,-0 -0.005,0.001 -0.007,0.003c-0,0.001 0,0.002 0.001,0.003c0.001,0.001 0.001,0.002 0.001,0.003c0.003,0.001 0.004,0.001 0.003,-0.001c0,-0.001 0.001,-0.001 0.003,-0c-0.001,0.003 -0.003,0.005 -0.006,0.005c-0.003,0.001 -0.005,0.001 -0.007,0.001c-0.002,0.001 -0.002,0.002 -0,0.001c0.002,0 0.002,0.001 0.001,0.002c-0.003,-0.001 -0.004,-0.001 -0.005,-0c0,0.001 -0.001,0 -0.002,-0.001l-0.006,0.008c0.003,0.001 0.005,0 0.006,-0.001c0.001,-0.001 0.003,-0.002 0.006,-0.001c-0.003,0.003 -0.005,0.006 -0.006,0.009c-0.003,-0.001 -0.003,-0.001 -0.002,-0.002c0.002,-0.001 0.002,-0.002 0.001,-0.003c-0.001,-0.001 -0.002,-0.001 -0.003,-0c0,0.001 -0.001,0.001 -0.002,-0c-0.001,0.001 -0.001,0.002 -0,0.003c0.001,0.001 -0,0.002 -0.002,0.002c-0,0.001 0.001,0.002 0.002,0.002l0.004,-0c-0,0.003 -0.001,0.005 -0.004,0.006c-0.002,0.001 -0.004,0.004 -0.005,0.007c0.001,0.001 0.002,0.001 0.003,0.001c0.001,0.001 0.002,0.001 0.004,0.001c-0.001,0.001 -0.003,0.001 -0.006,0.002c-0.002,0.001 -0.003,0.004 -0.003,0.008c-0.001,0.001 -0.001,0.002 0,0.002c0.001,-0 0.002,0.001 0.002,0.002c-0.005,0.007 -0.009,0.013 -0.01,0.018c-0.001,0.005 -0.004,0.011 -0.008,0.018c0,0.001 0.001,0.001 0.004,0.001c-0.005,0.007 -0.009,0.016 -0.011,0.027c-0.004,0.011 -0.008,0.021 -0.014,0.03c-0,0.001 0.001,0.002 0.002,0.001c0.002,-0.001 0.004,-0.001 0.005,-0c-0.001,0.001 -0.003,0.004 -0.006,0.008c-0.003,0.005 -0.003,0.008 -0.002,0.009c-0.002,0.001 -0.003,0.003 -0.004,0.006c-0.001,0.003 -0.001,0.005 -0.001,0.008c0,0.003 -0,0.006 -0.001,0.009c-0.001,0.003 -0.002,0.005 -0.005,0.006c-0.001,0.001 -0.002,0.002 -0.002,0.001c0.001,0 0.002,-0 0.004,-0c-0.003,0.003 -0.005,0.006 -0.005,0.009c0.001,0.003 -0.001,0.006 -0.004,0.009c-0.001,0.001 -0,0.002 0.002,0.003c0.001,0.001 0.003,0.003 0.004,0.004c-0.003,-0.001 -0.004,-0.001 -0.004,0c-0.001,0.001 0,0.002 0.002,0.002c-0.003,0.001 -0.005,0.004 -0.006,0.008c-0.001,0.004 -0.002,0.008 -0.003,0.013c0,0.001 0,0.002 0.001,0.001c0.001,-0.001 0.001,-0.001 0.002,-0.001c-0.002,0.002 -0.002,0.003 0.001,0.003c-0.001,0.001 -0.002,0.003 -0.002,0.004c0,0.001 -0.002,0.002 -0.005,0.001c0,0.001 0.001,0.002 0.002,0.002c0.001,-0 0.001,0 0.002,0.001c-0.004,0.003 -0.007,0.006 -0.008,0.011c-0.001,0.005 -0.003,0.008 -0.004,0.011c-0.003,-0.001 -0.004,-0.002 -0.002,-0.003c0.002,-0.001 0.002,-0.001 0.001,-0.002c-0.003,0.001 -0.004,0.002 -0.004,0.003c-0.001,0.002 -0.002,0.003 -0.004,0.002c0,-0.001 0.001,-0.001 0.002,-0.001c0,-0.001 -0,-0.002 -0.001,-0.002c-0.001,0.001 -0.002,0.001 -0.003,-0c0.001,-0.001 0.001,-0.003 0.001,-0.007c-0.001,-0 -0.002,0.001 -0.001,0.002c-0,0.001 0,0.003 0,0.004c-0.001,-0 -0.003,0 -0.004,0c-0.001,0.001 -0.002,0.002 -0.002,0.003c0.002,0.001 0.003,-0 0.004,-0.002c0.002,0.002 0.003,0.003 0.002,0.004c-0.001,0.001 -0.001,0.003 0,0.005c0.001,0.001 0.004,0 0.008,-0.001c0.003,-0.001 0.007,-0 0.01,0.001c-0.001,0.001 -0.003,0.003 -0.004,0.006c-0.001,0.003 -0.004,0.003 -0.009,0.002c0.001,0.003 0.001,0.006 0,0.008c-0.001,0.002 -0.002,0.005 -0.003,0.008c0.001,0.001 0.002,0.001 0.003,-0c0.001,-0.001 0.002,-0.002 0.003,-0.001c0.003,0.001 0.004,0.003 0.001,0.004c-0.003,0.002 -0.002,0.004 0.001,0.006c-0.004,-0.001 -0.007,-0.001 -0.008,0c-0.001,0.001 -0.002,0.003 -0.002,0.005l0,0.006c0,0.003 -0.001,0.005 -0.002,0.006c-0.002,0.001 -0.002,0 -0.001,-0.002c0.001,-0.001 -0,-0.002 -0.003,-0.002c-0.001,0.001 -0.001,0.003 -0.002,0.004c-0.001,0.001 -0.002,0.001 -0.004,-0c-0.001,0.001 -0.001,0.002 0,0.002c0.001,-0 0.001,0 0,0.001c0.001,0.001 0.002,0.001 0.003,0c0.001,-0.001 0.001,-0.001 0.002,-0c-0.001,0.002 -0.001,0.003 -0.002,0.002c-0.001,0 -0.003,-0 -0.005,-0.001c0,0.004 0.001,0.009 0.002,0.014c0.001,0.005 0.003,0.008 0.004,0.007l-0.004,0.012Zm0.035,-0.258c-0.001,-0 -0.003,-0 -0.004,-0.001c-0.001,0 -0.002,0.001 -0.001,0.002c0,0.001 0,0.001 0.001,0.001c0.001,0.001 0.002,0 0.003,-0.001c0.001,-0.001 0.002,-0.001 0.003,-0c0,-0.001 0.001,-0.002 0.002,-0.005l0.004,-0.015l0.004,-0.009l0.001,-0.001c-0.003,-0 -0.006,0.001 -0.007,0.002l-0.003,0.003c-0.001,-0 -0.001,0 -0.001,0.001l-0.002,0.003c0,0.001 -0,0.001 -0,0.001c-0.001,0.001 -0.001,0.001 -0.001,0.002l0,0.001l0.005,0.003l0,0.001c-0.001,-0 -0.002,0.001 -0.002,0.002c-0.001,0.001 -0.001,0.001 -0,0.002c-0,0.001 -0,0.003 -0.001,0.004l0,0.002c0,0.001 -0,0.001 -0.001,0.002Zm0.088,-0.096c-0.002,-0 -0.002,-0.001 -0.001,-0.002c-0.002,0.001 -0.002,0.001 -0.001,0.001c0.001,0.001 0.001,0.002 0,0.003c-0.003,-0.001 -0.005,-0 -0.005,0.001c0,0.002 -0.001,0.004 -0.002,0.007c0.001,-0.001 0.002,-0.001 0.003,-0.002c-0,-0.001 0,-0.001 0.001,-0.002c0.001,0.001 0.002,0.002 0.003,0.001c0.001,-0.001 0.002,-0.001 0.003,-0c0,0.001 -0.002,0.001 -0.005,0.001c0,0.001 0,0.002 0.001,0.002c-0.002,0.001 -0.003,0.002 -0.004,0.005c-0.001,-0.001 -0.001,-0.002 -0.001,-0.003c0,-0.001 -0.001,-0.001 -0.002,-0.001l-0.002,0.002c-0.001,0.001 -0.001,0.002 0,0.002c-0.003,0.001 -0.004,-0.001 -0.001,-0.006c0.003,-0.005 0.005,-0.007 0.008,-0.008c-0.001,-0.003 0,-0.006 0.004,-0.008c0.004,-0.002 0.008,-0.003 0.011,-0.004c0.001,0.001 0,0.002 -0.002,0.003c-0.002,0.001 -0.003,0.003 -0.002,0.006c-0.001,-0.001 -0.002,-0.002 -0.002,-0.003c-0.001,0 -0.003,0 -0.006,0.001c0.001,0.001 0.002,0.002 0.003,0.002c0.001,-0 0.001,0.001 -0.001,0.002Zm-0.032,0.049c0.001,0.001 0.003,0 0.005,-0.001c0.001,-0.001 0.003,-0.002 0.005,-0.003c0.001,-0.001 0,-0.002 -0.001,-0.001c-0.001,0.001 -0.002,0.001 -0.003,-0c0.002,-0.002 0.003,-0.004 0.004,-0.007c-0,-0.002 0.001,-0.004 0.003,-0.006c0.001,0.001 0.002,0.001 0.003,-0c0.001,-0.001 0.002,-0.001 0.003,-0c0,0.001 -0,0.002 -0,0.002c-0.001,0.001 -0.001,0.002 -0.002,0.003c-0.001,-0 -0.001,-0.001 -0,-0.002c0.001,-0.001 0,-0.001 -0.001,-0.001c-0.003,0.001 -0.004,0.003 -0.004,0.005c0,0.002 0.001,0.003 0.004,0.004c-0.001,0.001 -0.002,0.002 -0.003,0.002c-0.001,0.001 -0.002,0.002 -0.001,0.004c-0.001,0.001 -0.002,0.001 -0.005,-0c0,0.001 -0.001,0.002 -0.002,0.003c-0.001,0.001 -0.001,0.002 0.001,0.003c0,0.001 -0.002,0.001 -0.007,0.001c0.003,-0.001 0.005,-0.002 0.005,-0.003c-0.001,-0.001 -0.002,-0.002 -0.004,-0.003Zm0.039,-0.105l-0.002,-0.001l-0.003,0.003l0,0.002c-0.001,0.001 -0.001,0.001 -0.001,0.002c-0.001,0.001 -0.001,0.001 -0.001,0.002l0,0.001l-0.003,0.007l0.001,-0c0.001,0.001 0.001,0.001 0.001,0.002l0.004,-0.004c0.001,-0.001 0.003,-0.003 0.004,-0.006l0,-0.001l0.001,-0l0,-0.001c0,-0 0,-0.001 0.001,-0.002c0,-0.001 0,-0.003 0.001,-0.004l-0.003,-0Zm0,-0c-0.001,-0 -0.001,-0 -0.002,-0.001l-0.003,0.003l0,0.002c-0.001,0.001 -0.001,0.001 -0.001,0.002c-0.001,0.001 -0.001,0.001 -0.001,0.002l0,0.001l-0.003,0.007l0.001,-0c0.001,0.001 0.001,0.001 0.001,0.002l0.004,-0.004c0.001,-0.001 0.003,-0.003 0.004,-0.006l0,-0.001l0.001,-0l0,-0.001c0,-0 0,-0.001 0.001,-0.002c0,-0.001 0,-0.003 0.001,-0.004l-0.003,-0Zm-0.099,0.164l-0.001,0.001l-0.002,0.004l0,0.007c0,-0 0,0 0.001,0.001c-0.001,-0 -0.002,0 -0.002,0c0,0.001 -0,0.001 -0.001,0.001l-0.002,-0c0,-0 -0,-0 -0.001,-0.001c-0.001,0.001 -0.002,0.002 -0.001,0.002l0,0.001l0.003,-0l0,0.001l-0.004,-0l-0.004,0.002c0,-0 0,0 0.001,0.001c0.002,-0 0.003,-0 0.004,-0.001c0.001,-0 0.003,-0.001 0.006,-0.002l0.001,-0c0,-0 0.001,-0 0.002,-0.001l0.001,-0l0,-0.001c0.001,-0.001 0.001,-0.003 0.001,-0.004c-0.001,-0.001 -0.001,-0.002 0,-0.003c0,-0.001 0,-0.001 0.001,-0.001c-0,-0 0,-0 0,-0.001c-0.001,-0 -0.001,0 -0.001,0c-0.001,0.001 -0.001,0.001 -0.002,0.001c-0.001,-0 -0.001,-0 -0.001,-0.001l-0.001,-0l0,-0.001l0.001,-0c0.001,-0.001 0.001,-0.002 0.001,-0.004c0,-0 0,-0 0.001,-0.001l-0.001,-0Zm0,-0l-0.001,0.001l-0.002,0.004l0,0.007c0,-0 0,0 0.001,0.001l0.001,-0l-0.001,-0c-0.001,-0 -0.001,0 -0.001,0c-0.001,0.001 -0.001,0.001 -0.002,0.001l-0.002,-0c0,-0 -0,-0 -0.001,-0.001c-0.001,0.001 -0.002,0.002 -0.001,0.002l0,0.001l0.003,-0l0,0.001l-0.004,-0l-0.004,0.002c0,-0 0,0 0.001,0.001c0.002,-0 0.003,-0 0.004,-0.001c0.001,-0 0.003,-0.001 0.006,-0.002l0.001,-0c0,-0 0.001,-0 0.002,-0.001l0.001,-0l0,-0.001c0.001,-0.001 0.001,-0.003 0.001,-0.004c-0.001,-0.001 -0.001,-0.002 0,-0.003c0,-0.001 0,-0.001 0.001,-0.001c-0,-0 0,-0 0,-0.001c-0.001,-0 -0.001,0 -0.001,0c-0.001,0.001 -0.001,0.001 -0.002,0.001c-0.001,-0 -0.001,-0 -0.001,-0.001l-0.001,-0l0,-0.001l0.001,-0c0.001,-0.001 0.001,-0.002 0.001,-0.004c0,-0 0,-0 0.001,-0.001l-0.001,-0Zm0.012,0.019c-0.001,0.001 -0.001,0.001 -0.001,0.002c-0.001,0.003 -0.002,0.005 -0.002,0.006c-0.001,-0 -0.001,0 -0.001,0.001l0,0.001c0,0.001 -0,0.001 -0.001,0.002l0,0.002c0,0.001 -0,0.001 -0.001,0.002l0,0.002l-0.003,0.01l0,0.001c0,-0.001 0,-0.001 0.001,-0.001c-0,-0 0,-0 0,-0.001l0.005,-0.009l0,-0.001c0,-0.001 0,-0.001 0.001,-0.002l0,-0.001l0.002,-0.005l0,-0.001c0,-0.001 0,-0.001 0.001,-0.002c-0,-0.001 0,-0.001 0,-0.002l0,-0.005l-0.001,0.001Zm0,-0c-0.001,0.001 -0.001,0.001 -0.001,0.002c-0.001,0.003 -0.002,0.005 -0.002,0.006c-0.001,-0 -0.001,0 -0.001,0.001l0,0.001c0,0.001 -0,0.001 -0.001,0.002l0,0.002c0,0.001 -0,0.001 -0.001,0.002l0,0.002l-0.003,0.01l0,0.001c0,-0.001 0,-0.001 0.001,-0.001c-0,-0 0,-0 0,-0.001l0.005,-0.009l0,-0.001c0,-0.001 0,-0.001 0.001,-0.002l0,-0.001l0.002,-0.005l0,-0.001c0,-0.001 0,-0.001 0.001,-0.002c-0,-0.001 0,-0.001 0,-0.002l0,-0.005l-0.001,0.001Zm0.055,-0.069c-0.001,0.001 -0.002,0.004 -0.003,0.007c-0.001,0.004 -0.003,0.007 -0.006,0.009c-0.003,-0.001 -0.003,-0.003 -0.002,-0.004c0.001,-0 0.002,0 0.002,0c-0.001,0.001 0,0 0.003,-0.001c0,-0.001 -0.001,-0.002 -0.003,-0.002c-0.001,-0.002 -0,-0.003 0.001,-0.004c0.001,-0.001 0,-0.002 -0.001,-0.003c0.004,0.001 0.006,0.001 0.007,-0.001c-0,-0.001 0.001,-0.002 0.002,-0.001Zm-0.058,0.108l0.002,-0.011c0.001,-0.001 0.001,-0.002 0.001,-0.002c0.001,-0.001 0.001,-0.003 0.002,-0.004c-0,-0.001 0.001,-0.003 0.002,-0.005l0.002,-0.002l0,0.001c0,0.001 -0,0.001 -0,0c-0.001,0 -0.001,0 -0.001,0.001l0,0.003c0,0.001 -0,0.001 -0,0.001c-0.001,-0 -0.001,0 -0.001,0.001l0,0.003l-0.002,0.006c-0.001,0.004 -0.003,0.007 -0.005,0.008Zm0,-0l0.002,-0.011c0.001,-0.001 0.001,-0.002 0.001,-0.002c0.001,-0.001 0.001,-0.003 0.002,-0.004c-0,-0.001 0.001,-0.003 0.002,-0.005l0.002,-0.002l0,0.001c0,0.001 -0,0.001 -0,0c-0.001,0 -0.001,0 -0.001,0.001l0,0.003c0,0.001 -0,0.001 -0,0.001c-0.001,-0 -0.001,0 -0.001,0.001l0,0.003l-0.002,0.006c-0.001,0.004 -0.003,0.007 -0.005,0.008Zm0.016,-0.062c-0.001,-0 -0.001,0 -0.002,0.001c0,-0 -0,0 -0.001,0.001c-0.001,-0 -0.002,0.001 -0.002,0.002l-0.002,0.002c-0.001,0.003 -0.003,0.005 -0.004,0.008c-0.001,0.003 -0.003,0.006 -0.005,0.008c0.001,0.001 0.002,0 0.005,-0.001l0.001,-0l0,-0.001l0.004,-0.01c0.001,-0.001 0.001,-0.002 0.001,-0.003c0.001,-0.001 0.002,-0.002 0.002,-0.003l0.002,-0.003l0.001,-0.001Zm-0.028,0.097c0.001,-0 0.001,-0 0.001,-0.001l0.001,-0.001l0.002,-0l0,-0.011l-0.002,-0.003l0,0.001c0,0.001 -0,0.001 -0.001,0.002l0,0.002c-0.001,0.001 -0.001,0.002 -0.001,0.003c0,0.001 -0,0.001 -0,0.001c-0.001,0.001 -0.001,0.001 -0.001,0.002l0,0.006l0.001,-0.001Zm-0.027,0.11c0,-0.001 -0,-0.001 -0.001,-0.002l0,-0.005c0.001,-0.001 0.001,-0.002 0.001,-0.004c0.001,-0.001 0.001,-0.003 0.001,-0.004c-0.001,0.001 -0.002,0.002 -0.002,0.003l-0.003,0.004c0,0.001 -0.001,0.002 -0.002,0.003c-0.001,-0 -0.001,0 -0.002,0.001c0,-0 -0,0.001 -0.001,0.002l0.007,-0c0,-0 0.001,0.001 0.002,0.002Zm-0.001,-0.007c0.001,-0.001 0.001,-0.002 0.001,-0.004c0.001,-0.001 0.001,-0.003 0.001,-0.004c-0.001,0.001 -0.002,0.002 -0.002,0.003l-0.003,0.004c0,0.001 -0.001,0.002 -0.002,0.003c-0.001,-0 -0.001,0 -0.002,0.001c0,-0 -0,0.001 -0.001,0.002l0.007,-0c0,-0 0.001,0.001 0.002,0.002c0,-0.001 -0,-0.001 -0.001,-0.002l0,-0.005Zm0.003,-0.026c-0.001,0.001 -0.001,0.002 -0.002,0.002c-0.001,0.001 -0.002,0.002 -0.002,0.003c0.001,0.001 0.002,0.001 0.003,-0c0.001,-0.001 0.001,-0.001 0.002,-0l-0.001,0.001l0,0.002l-0.003,0.003l-0.001,-0l0,0.002c0,0.001 -0,0.001 -0,0.001c-0.001,-0 -0.001,0 -0.001,0.001c0,0.001 0.001,0.001 0.004,0.001l0,-0.001c-0.001,-0.001 -0.002,-0.002 -0.002,-0.002c0.003,0.001 0.005,-0.001 0.005,-0.004c-0.001,-0.003 -0.001,-0.005 0,-0.008c-0.001,-0 -0.001,-0 -0.001,-0.001c0,0 -0,-0 -0.001,-0Zm0,-0c-0.001,0.001 -0.001,0.002 -0.002,0.002c-0.001,0.001 -0.002,0.002 -0.002,0.003c0.001,0.001 0.002,0.001 0.003,-0c0.001,-0.001 0.001,-0.001 0.002,-0l-0.001,0.001l0,0.002l-0.003,0.003l-0.001,-0l0,0.002c0,0.001 -0,0.001 -0,0.001c-0.001,-0 -0.001,0 -0.001,0.001c0,0.001 0.001,0.001 0.004,0.001l0,-0.001c-0.001,-0.001 -0.002,-0.002 -0.002,-0.002c0.003,0.001 0.005,-0.001 0.005,-0.004c-0.001,-0.003 -0.001,-0.005 0,-0.008c-0.001,-0 -0.001,-0 -0.001,-0.001c0,0 -0,-0 -0.001,-0Zm0.072,-0.166c-0.001,-0.001 -0.001,-0.001 0.002,-0.001c0.002,0.001 0.004,0.001 0.006,0.001c-0.005,0.003 -0.008,0.007 -0.009,0.012c-0.003,-0.001 -0.004,-0.002 -0.004,-0.005c0.002,-0 0.004,-0.001 0.005,-0.003c0.001,-0.001 0.001,-0.003 0,-0.004Zm-0.02,-0.019c-0.001,-0 -0.001,0 -0.001,0c0,0.001 -0,0.001 -0.001,0.001l0,0.001l-0.002,0.005l0,0.002c0.001,0.001 0.002,0.001 0.004,0.001l0.001,-0.001l-0.001,-0l0,-0.001c0,-0.001 0,-0.001 0.001,-0.002l0,-0.001c0,-0 0,-0.001 0.001,-0.002l0,-0.002l-0.001,-0.001l0,-0.001l-0.001,0.001Zm0,-0c-0.001,-0 -0.001,0 -0.001,0c0,0.001 -0,0.001 -0.001,0.001l0,0.001l-0.002,0.005l0,0.002c0.001,0.001 0.002,0.001 0.004,0.001l0.001,-0.001l-0.001,-0l0,-0.001c0,-0.001 0,-0.001 0.001,-0.002l0,-0.001c0,-0 0,-0.001 0.001,-0.002l0,-0.002l-0.001,-0.001l0,-0.001l-0.001,0.001Zm-0.049,0.203c0,0.001 -0,0.003 -0,0.004c-0.001,0.001 -0.001,0.003 -0.001,0.004c-0.001,0.001 -0.001,0.003 -0.001,0.005c0.001,-0 0.002,-0.002 0.004,-0.005c0.001,-0.003 0.002,-0.005 0.001,-0.007l0,-0.001c-0.002,-0 -0.003,-0 -0.003,-0Zm-0.002,0.013c0.001,-0 0.002,-0.002 0.004,-0.005c0.001,-0.003 0.002,-0.005 0.001,-0.007l0,-0.001c-0.002,-0 -0.003,-0 -0.003,-0c0,0.001 -0,0.003 -0,0.004c-0.001,0.001 -0.001,0.003 -0.001,0.004c-0.001,0.001 -0.001,0.003 -0.001,0.005Zm0,-0.069c-0.001,-0 -0.002,-0 -0.002,-0.001c0,0 -0,-0 -0.001,-0l0.001,-0c0.001,-0.001 0.002,-0.002 0.002,-0.004c-0.001,-0 -0.001,-0 -0.001,-0.001c-0.002,-0 -0.003,0.001 -0.003,0.004l-0.001,-0c0,-0 -0.001,0.001 -0.002,0.002c0.001,0.001 0.002,0.002 0.004,0.002c0.002,-0 0.003,-0.001 0.003,-0.002Zm0,-0c-0.001,-0 -0.002,-0 -0.002,-0.001c0,0 -0,-0 -0.001,-0l0.001,-0c0.001,-0.001 0.002,-0.002 0.002,-0.004c-0.001,-0 -0.001,-0 -0.001,-0.001c-0.002,-0 -0.003,0.001 -0.003,0.004l-0.001,-0c0,-0 -0.001,0.001 -0.002,0.002c0.001,0.001 0.002,0.002 0.004,0.002c0.002,-0 0.003,-0.001 0.003,-0.002Zm0.041,-0.187l-0.001,0.001l0,0.001l0.001,0.001c0.001,-0 0.002,-0.001 0.004,-0.003l0,-0.001c0,-0.001 0,-0.001 0.001,-0.001c-0,-0 0,-0 0,-0.001c0,-0.001 -0,-0.002 -0.001,-0.003l-0.002,0.002l-0.002,-0l0,0.004Zm0.002,-0.004l-0.002,-0l0,0.004l-0.001,0.001l0,0.001l0.001,0.001c0.001,-0 0.002,-0.001 0.004,-0.003l0,-0.001c0,-0.001 0,-0.001 0.001,-0.001c-0,-0 0,-0 0,-0.001c0,-0.001 -0,-0.002 -0.001,-0.003l-0.002,0.002Zm0.069,-0.018c0.003,0.001 0.003,0.002 0.001,0.005c-0.002,0.003 -0.004,0.004 -0.006,0.004c0.001,-0.003 0.002,-0.005 0.002,-0.005c0,0.001 0.001,-0.001 0.003,-0.004Zm-0.099,0.181c-0.001,-0.001 -0,-0.003 0.001,-0.006l0,-0.002c0,-0.001 -0.001,-0.002 -0.002,-0.002c-0.001,0.001 -0.002,0.002 -0.002,0.002c-0.001,0.003 0,0.006 0.002,0.007c0,-0 0,0 0.001,0.001Zm0,-0c-0.001,-0.001 -0,-0.003 0.001,-0.006l0,-0.002c0,-0.001 -0.001,-0.002 -0.002,-0.002c-0.001,0.001 -0.002,0.002 -0.002,0.002c-0.001,0.003 0,0.006 0.002,0.007c0,-0 0,0 0.001,0.001Zm0.092,-0.227c0.001,0.001 0.002,0.002 0.002,0.002c0.001,-0 0.001,-0 0.002,-0.001c0,-0 0,-0.001 0.001,-0.002l0,-0.002c0,-0.001 0,-0.001 0.001,-0.001c-0,-0 0,-0 0,-0.001l0.001,-0.001l-0.003,-0l-0.001,-0.001c0,0.003 -0,0.004 -0.001,0.004c-0.001,0.001 -0.002,0.002 -0.002,0.002l0,0.001Zm0.003,-0.007c0,0.003 -0,0.004 -0.001,0.004c-0.001,0.001 -0.002,0.002 -0.002,0.002l0,0.001c0.001,0.001 0.002,0.002 0.002,0.002c0.001,-0 0.001,-0 0.002,-0.001c0,-0 0,-0.001 0.001,-0.002l0,-0.002c0,-0.001 0,-0.001 0.001,-0.001c-0,-0 0,-0 0,-0.001l0.001,-0.001l-0.003,-0l-0.001,-0.001Zm0.027,-0.029c0,0.005 -0.001,0.01 -0.004,0.013c0,-0.003 0,-0.006 0.001,-0.007c0.001,-0.001 0.002,-0.003 0.003,-0.006Zm-0.078,0.048c0,-0.001 0,-0.001 0.001,-0.001c0.001,-0 0.001,-0 0.002,-0.001c0,-0.001 0,-0.002 0.001,-0.003c0.001,-0.001 0.001,-0.003 0,-0.005l0,-0.001l-0.001,-0l0,0.001c-0.001,0.001 -0.001,0.003 -0.001,0.004c0,0.001 -0,0.001 -0,0.001c-0.001,0.001 -0.001,0.001 -0.001,0.002c-0.001,0.001 -0.001,0.001 -0.001,0.002l0,0.001Zm0,-0c0,-0.001 0,-0.001 0.001,-0.001c0.001,-0 0.001,-0 0.002,-0.001c0,-0.001 0,-0.002 0.001,-0.003c0.001,-0.001 0.001,-0.003 0,-0.005l0,-0.001l-0.001,-0l0,-0.001l0,0.002c-0.001,0.001 -0.001,0.003 -0.001,0.004c0,0.001 -0,0.001 -0,0.001c-0.001,0.001 -0.001,0.001 -0.001,0.002c-0.001,0.001 -0.001,0.001 -0.001,0.002l0,0.001Zm0.036,0.09c0.001,-0.001 0.001,0.001 0.001,0.005c-0.001,0.004 -0.002,0.006 -0.004,0.005c0,-0.003 0.001,-0.007 0.003,-0.01Zm0.012,-0.046c0.001,-0 0.003,0 0.004,0c0.001,0.001 0.002,0.001 0.003,0.001c-0.003,0.003 -0.005,0.004 -0.007,0.004c0.001,-0.001 0.001,-0.002 0,-0.003c-0.001,-0.001 -0.001,-0.001 0,-0.002Zm-0.048,0.063c0.001,-0.001 0.002,-0.003 0.003,-0.005c0.001,-0.001 0,-0.003 -0.001,-0.004c0,-0 -0,-0 -0.001,-0.001c-0.001,0.004 -0.002,0.006 -0.002,0.006l0,0.004l0.001,0.001l0,-0.001Zm0,-0c0.001,-0.001 0.002,-0.003 0.003,-0.005c0.001,-0.001 0,-0.003 -0.001,-0.004c0,-0 -0,-0 -0.001,-0.001c-0.001,0.004 -0.002,0.006 -0.002,0.006l0,0.004l0.001,0.001l0,-0.001Zm-0.058,0.097c-0.001,0.003 -0.002,0.005 -0.001,0.006c-0,0.001 0,0.003 0,0.004l0.001,-0.001c0.001,-0.001 0.001,-0.001 0.001,-0.002c0,-0.001 0,-0.002 0.001,-0.003l0,-0.001c0,-0.001 -0.001,-0.002 -0.002,-0.003Zm0,-0c-0.001,0.003 -0.002,0.005 -0.001,0.006c-0,0.001 0,0.003 0,0.004l0.001,-0.001c0.001,-0.001 0.001,-0.001 0.001,-0.002c0,-0.001 0,-0.002 0.001,-0.003l0,-0.001c0,-0.001 -0.001,-0.002 -0.002,-0.003Zm0.008,0.036c0,-0 0,-0 0.001,-0.001l-0.001,-0l0,-0.003c0,-0.001 -0.001,-0.001 -0.002,-0l-0.001,-0l-0.001,0.001l-0.001,-0c-0.001,0.001 -0.001,0.002 0,0.003l0.005,-0Zm0,-0.001l0,-0.003c0,-0.001 -0.001,-0.001 -0.002,-0l-0.001,-0l-0.001,0.001l-0.001,-0c-0.001,0.001 -0.001,0.002 0,0.003l0.005,-0c0,-0 0,-0 0.001,-0.001l-0.001,-0Zm0.12,-0.303c-0.001,-0 -0.001,0 -0.001,0c0,0.001 -0,0.001 -0.001,0.001l0,0.002c0,0.001 -0,0.001 -0,0.001c-0.001,-0 -0.001,0 -0.001,0.001l0,0.003l0.002,-0c0,-0 0,-0 0.001,-0.001c0,-0.001 -0,-0.001 -0,-0.002c-0.001,-0.001 -0.001,-0.002 0,-0.003c0,-0 0,-0.001 0.001,-0.002l-0.001,-0Zm0,-0c-0.001,-0 -0.001,0 -0.001,0c0,0.001 -0,0.001 -0.001,0.001l0,0.002c0,0.001 -0,0.001 -0,0.001c-0.001,-0 -0.001,0 -0.001,0.001l0,0.003l0.002,-0c0,-0 0,-0 0.001,-0.001c0,-0.001 -0,-0.001 -0,-0.002c-0.001,-0.001 -0.001,-0.002 0,-0.003c0,-0 0,-0.001 0.001,-0.002l-0.001,-0Zm-0.014,0.091c-0.003,-0.001 -0.005,-0.001 -0.005,-0c-0.001,0.001 -0.002,0 -0.004,-0.001c0.001,-0.002 0.002,-0.002 0.003,-0.001c0.001,0.001 0.002,0.002 0.005,0.001c0.001,-0.001 0.003,-0.002 0.004,-0.004c0.001,-0.001 0.002,-0.002 0.003,-0.001l-0.006,0.006Zm-0.077,0.083l-0.003,0.003c-0.001,0.001 -0.001,0.002 -0.001,0.003c-0.001,0.002 -0.001,0.004 0.001,0.006c0,-0 -0,-0.001 -0.001,-0.002l0.001,-0.001c0,-0.001 0,-0.001 0.001,-0.002c-0,0 0,-0 0,-0.001l0.001,-0.001c0.001,-0.001 0.002,-0.003 0.001,-0.004l0,-0.001Zm0,-0l-0.003,0.003c-0.001,0.001 -0.001,0.002 -0.001,0.003c-0.001,0.002 -0.001,0.004 0.001,0.006c0,-0 -0,-0.001 -0.001,-0.002l0.001,-0.001c0,-0.001 0,-0.001 0.001,-0.002c-0,0 0,-0 0,-0.001l0.001,-0.001c0.001,-0.001 0.002,-0.003 0.001,-0.004l0,-0.001Zm0.115,-0.21c-0.001,-0 -0.001,-0 -0,-0.001c-0,-0.001 -0,-0.001 -0.001,-0.001l-0.001,-0.001l-0.001,-0l-0.003,0.002l0,0.002l0.006,-0l0.001,-0.001l-0.001,-0Zm0,0.001l0.001,-0.001l-0.001,-0c-0.001,-0 -0.001,-0 -0,-0.001c-0,-0.001 -0,-0.001 -0.001,-0.001l-0.001,-0.001l-0.001,-0l-0.003,0.002l0,0.002l0.006,-0Zm-0.157,0.331l0.002,-0c0.001,-0 0.001,-0 0.002,-0.001c0.001,-0.001 0.002,-0.002 0.002,-0.003c0,-0.001 0.001,-0.002 0.002,-0.003l-0.002,-0l-0.006,0.007Zm0,-0l0.002,-0c0.001,-0 0.001,-0 0.002,-0.001c0.001,-0.001 0.002,-0.002 0.002,-0.003c0,-0.001 0.001,-0.002 0.002,-0.003l-0.002,-0l-0.006,0.007Zm0.012,-0.002c0,-0.001 0.001,-0.002 0.002,-0.005c0,-0 0,-0.001 0.001,-0.002c-0.001,-0 -0.001,0 -0.002,0.001c0,-0 -0,0 -0.001,0.001c-0.002,-0 -0.003,0.001 -0.003,0.002l-0.001,0.001l0.001,0.001c0.001,-0 0.001,0 0.002,0c-0,0.001 0,0.001 0.001,0.001Zm0,-0c0,-0.001 0.001,-0.002 0.002,-0.005c0,-0 0,-0.001 0.001,-0.002c-0.001,-0 -0.001,0 -0.002,0.001c0,-0 -0,0 -0.001,0.001c-0.002,-0 -0.003,0.001 -0.003,0.002l-0.001,0.001l0.001,0.001c0.001,-0 0.001,0 0.002,0c-0,0.001 0,0.001 0.001,0.001Zm0.036,0.008c-0.003,-0.001 -0.005,-0.002 -0.005,-0.003c0.001,-0.001 0.003,-0.002 0.006,-0.001c0.002,0.001 0.002,0.003 -0.001,0.004Zm-0.036,0.084c0.002,0.001 0.002,0.002 0.001,0.004c-0.002,0.003 -0.004,0.004 -0.005,0.003c0,-0.001 0.001,-0.002 0.002,-0.003c0.001,-0.001 0.001,-0.002 0.002,-0.004Zm0.003,-0.144c0.002,-0 0.003,-0.001 0.003,-0.003c0.001,-0.001 0.001,-0.002 0.001,-0.003c0,-0 -0,-0 -0.001,-0.001c-0.001,0.001 -0.001,0.002 -0.001,0.003l-0.001,-0c-0.001,0.001 -0.002,0.002 -0.002,0.003l0,0.001l0.001,-0Zm0,-0c0.002,-0 0.003,-0.001 0.003,-0.003c0.001,-0.001 0.001,-0.002 0.001,-0.003c0,-0 -0,-0 -0.001,-0.001c-0.001,0.001 -0.001,0.002 -0.001,0.003l-0.001,-0c-0.001,0.001 -0.002,0.002 -0.002,0.003l0,0.001l0.001,-0Zm-0.005,0.091c-0.001,-0.001 -0.001,-0.001 -0.001,-0.002c0,-0.001 0,-0.001 0.001,-0.001c-0,-0 0,-0 0,-0.001c-0.001,-0 -0.001,-0 -0.001,-0.001c-0.001,0 -0.001,-0 -0.002,-0c0.001,-0 0.001,0.001 0.001,0.002c0,0.001 -0,0.001 -0,0.001c-0.001,-0 -0.001,0 -0.001,0.001l-0.001,0.001l0,0.001l0.005,-0l-0.001,-0.001Zm0,-0c-0.001,-0.001 -0.001,-0.001 -0.001,-0.002c0,-0.001 0,-0.001 0.001,-0.001c-0,-0 0,-0 0,-0.001c-0.001,-0 -0.001,-0 -0.001,-0.001c-0.001,0 -0.001,-0 -0.002,-0c0.001,-0 0.001,0.001 0.001,0.002c0,0.001 -0,0.001 -0,0.001c-0.001,-0 -0.001,0 -0.001,0.001l-0.001,0.001l0,0.001l0.005,-0l-0.001,-0.001Zm0.101,-0.208c-0.001,0.001 -0.002,0.002 -0.001,0.004c-0,0.002 -0.001,0.002 -0.004,0.001c0.001,-0.001 0.001,-0.003 0.002,-0.004c-0,-0.001 0.001,-0.002 0.003,-0.001Zm-0.097,0.227c0,-0.001 0,-0.001 0.001,-0.001c-0,-0 0,-0 0,-0.001l-0.003,-0c-0.001,-0 -0.002,0.001 -0.002,0.002c0.001,-0 0.001,0 0.001,0.001l0,0.001c0,-0 0.001,0 0.002,0.001c0.001,-0.001 0.001,-0.001 0.001,-0.002l0,-0.001Zm0,-0c0,-0.001 0,-0.001 0.001,-0.001c-0,-0 0,-0 0,-0.001l-0.003,-0c-0.001,-0 -0.002,0.001 -0.002,0.002c0.001,-0 0.001,0 0.001,0.001l0,0.001c0,-0 0.001,0 0.002,0.001c0.001,-0.001 0.001,-0.001 0.001,-0.002l0,-0.001Zm0.115,-0.285c0,0.003 -0.002,0.004 -0.005,0.003c0,-0.002 0.002,-0.003 0.005,-0.003Zm0.01,-0.069c0,0.001 -0,0.001 -0.001,0.001l-0.002,-0c-0.001,-0 -0.001,0 -0.001,0.001l0,0.002l0.003,-0c0.001,-0.001 0.002,-0.002 0.002,-0.003l-0.001,-0.001Zm0,-0c0,0.001 -0,0.001 -0.001,0.001l-0.002,-0c-0.001,-0 -0.001,0 -0.001,0.001l0,0.002l0.003,-0c0.001,-0.001 0.002,-0.002 0.002,-0.003l-0.001,-0.001Zm0.023,-0.036l-0.002,0.002c-0.001,0.001 -0.001,0.001 -0.001,0.002l0,0.001l0.002,-0l0.002,-0.002l0,-0.001c0,-0 0,-0.001 0.001,-0.002l-0.002,-0Zm0,-0l-0.002,0.002c-0.001,0.001 -0.001,0.001 -0.001,0.002l0,0.001l0.002,-0l0.002,-0.002l0,-0.001c0,-0 0,-0.001 0.001,-0.002l-0.002,-0Zm-0.126,0.269c0.001,-0.001 0.001,-0.003 0,-0.004l-0.001,-0.001c-0.001,0.001 -0.002,0.002 -0.001,0.003l0,0.003c0.001,0.001 0.001,0.001 0.002,0.001l0,-0.002Zm0,-0c0.001,-0.001 0.001,-0.003 0,-0.004l-0.001,-0.001c-0.001,0.001 -0.002,0.002 -0.001,0.003l0,0.003c0.001,0.001 0.001,0.001 0.002,0.001l0,-0.002Zm-0.019,0.051l-0.003,-0c-0.001,0.001 -0.002,0.002 -0.002,0.003l0.001,0.001c0.001,-0 0.001,-0 0.002,-0.001c-0,0 0,-0 0.001,-0c0,-0.001 0,-0.001 0.001,-0.001c-0,-0 0,-0 0,-0.001l0,-0.001Zm-0.003,-0c-0.001,0.001 -0.002,0.002 -0.002,0.003l0.001,0.001c0.001,-0 0.001,-0 0.002,-0.001c-0,0 0,-0 0.001,-0c0,-0.001 0,-0.001 0.001,-0.001c-0,-0 0,-0 0,-0.001l0,-0.001l-0.003,-0Zm0.116,-0.23c0,-0.001 0.001,-0.002 0.002,-0.002c0.001,-0 0.002,-0.001 0.003,-0.002c0,0.001 -0,0.003 -0.001,0.004c-0.001,0.002 -0.003,0.002 -0.004,-0Zm-0.077,0.153c-0.001,-0 -0.001,-0 -0.002,-0.001l-0.001,-0c-0.001,-0 -0.001,0 -0.001,0.001l0,0.003l0.003,-0l0,-0.001l0.001,-0l0,-0.002Zm0,-0c-0.001,-0 -0.001,-0 -0.002,-0.001l-0.001,-0c-0.001,-0 -0.001,0 -0.001,0.001l0,0.003l0.003,-0l0,-0.001l0.001,-0l0,-0.002Zm0.011,-0.022c0.001,0.001 0.002,0.001 0.002,-0c0,-0 0,-0.001 0.001,-0.002c0,-0 -0,-0.001 -0.001,-0.002l-0.001,-0.001c0,-0.001 -0,-0.001 -0.001,-0.001l0,0.006Zm0.002,-0c0,-0 0,-0.001 0.001,-0.002c0,-0 -0,-0.001 -0.001,-0.002l-0.001,-0.001c0,-0.001 -0,-0.001 -0.001,-0.001l0,0.006c0.001,0.001 0.002,0.001 0.002,-0Zm0.057,-0.101c0,-0.001 -0,-0.001 -0,-0.002c-0.001,-0.001 -0.001,-0.002 -0.001,-0.003c0.001,0.001 0.001,0.001 0.002,-0c-0,-0.001 0.001,-0 0.002,0.001c0.001,0.001 0.001,0.002 0,0.002c-0.001,-0 -0.002,0.001 -0.003,0.002Zm0.027,-0.085c-0.001,0.001 -0.002,0.003 -0.003,0.004c-0.001,0.001 -0.002,0.002 -0.003,0.002c0.001,-0.004 0.003,-0.006 0.006,-0.006Zm-0.041,0.124c0.003,-0 0.004,0 0.004,0.001c0,0.001 -0.001,0.002 -0.003,0.001c-0.002,0 -0.002,-0.001 -0.001,-0.002Zm-0.093,0.283c0.001,0.001 0,0.002 -0.003,0.003c-0.004,0.001 -0.004,-0 -0.001,-0.003c0.001,0.001 0.002,0.001 0.003,0.001c0.001,-0 0.001,-0 0.001,-0.001Zm0.078,-0.264c0.003,-0 0.004,0.001 0.004,0.002c-0.001,0.002 -0.002,0.002 -0.005,0.001c0,-0.001 0,-0.002 0.001,-0.002c-0,-0 0,-0 0,-0.001Zm-0.007,0.001c0.001,-0 0.003,0.001 0.004,0.002c-0.002,0.002 -0.003,0.003 -0.004,0.002c0.001,-0.001 0.001,-0.002 0,-0.002c-0.001,-0 -0.001,-0.001 0,-0.002Zm0.021,-0.001c-0.001,0.001 -0.002,0.002 -0.004,0.001c-0.002,0 -0.004,-0 -0.005,-0c0.001,-0.001 0.002,-0.002 0.004,-0.002c0.002,-0 0.004,0 0.005,0.001Zm-0.065,-0.016c-0.001,-0 -0.001,0 -0.001,0.001l0,0.003c0,0.001 0,0.002 0.001,0.002l0.001,-0l0,-0.001l0.001,-0.001l-0.001,-0l0,-0.003l-0.001,-0.001Zm0,-0c-0.001,-0 -0.001,0 -0.001,0.001l0,0.003c0,0.001 0,0.002 0.001,0.002l0.001,-0l0,-0.001l0.001,-0.001l-0.001,-0l0,-0.003l-0.001,-0.001Zm0.066,-0.033c0.001,-0 0.002,0.001 0.001,0.003c-0.001,0.003 -0.002,0.003 -0.003,0.002c0,-0.001 0,-0.002 0.001,-0.003c0.001,0 0.001,-0.001 0.001,-0.002Zm-0.087,0.238c0.002,-0 0.002,0 0.001,0.001c-0.001,0.001 -0.003,0.002 -0.005,0.002c0,-0.002 0.001,-0.003 0.004,-0.003Zm0.039,-0.242l-0.001,0.001l-0.001,-0c0,0.001 -0,0.001 -0,0.001c-0.001,-0 -0.001,0 -0.001,0.001c0,0.001 0,0.001 0.001,0.001l0.002,-0.002c0,-0 0,-0.001 0.001,-0.002l0,-0.002l-0.001,-0l0,0.002Zm0,-0l-0.001,0.001l-0.001,-0c0,0.001 -0,0.001 -0,0.001c-0.001,-0 -0.001,0 -0.001,0.001c0,0.001 0,0.001 0.001,0.001l0.002,-0.002c0,-0 0,-0.001 0.001,-0.002l0,-0.002l-0.001,-0l0,0.002Zm0.026,0.069c-0.001,-0.001 -0.002,-0.001 -0.004,-0.001c-0.001,-0.002 0,-0.003 0.002,-0.003c0.002,0.001 0.003,0.002 0.002,0.004Zm-0.069,0.154c0,-0 0.001,-0 0.002,-0.001l0.001,-0.001l-0.001,-0.001l-0.002,-0c0,-0 -0,0.001 -0.001,0.002l0,0.001l0.001,0.001l0,-0.001Zm0,-0c0,-0 0.001,-0 0.002,-0.001l0.001,-0.001l-0.001,-0.001l-0.002,-0c0,-0 -0,0.001 -0.001,0.002l0,0.001l0.001,0.001l0,-0.001Zm0.035,-0.202c0,0.001 -0.001,0.002 -0.002,0.003l0,0.002l0.001,-0l0.001,-0.001c0.001,-0.001 0.001,-0.001 0.001,-0.002l0,-0.001l-0.001,-0.001Zm0,-0c0,0.001 -0.001,0.002 -0.002,0.003l0,0.002l0.001,-0l0.001,-0.001c0.001,-0.001 0.001,-0.001 0.001,-0.002l0,-0.001l-0.001,-0.001Zm-0.015,0.186c0,-0.001 0,-0.002 0.001,-0.003c0.001,0 0.001,-0.001 0.002,-0.002c0,0.001 -0,0.003 -0,0.004c-0.001,0.001 -0.002,0.002 -0.003,0.001Zm0.006,0.034c-0.001,0.001 -0.001,0.002 -0.001,0.004c-0.001,-0 -0.001,-0.001 -0.001,-0.003c-0.001,-0 -0.002,-0 -0.002,-0c0,-0.001 0.001,-0.001 0.004,-0.001Zm0.113,-0.372c-0.001,0.001 -0.001,0.001 -0.001,0.001l0.001,-0.001Z" style="fill:#ffcf51;fill-rule:nonzero;"/></g></g></svg>