<?xml version="1.0" encoding="UTF-8" standalone="no"?><!DOCTYPE svg PUBLIC "-//W3C//DTD SVG 1.1//EN" "http://www.w3.org/Graphics/SVG/1.1/DTD/svg11.dtd"><svg width="100%" height="100%" viewBox="0 0 3334 2500" version="1.1" xmlns="http://www.w3.org/2000/svg" xmlns:xlink="http://www.w3.org/1999/xlink" xml:space="preserve" xmlns:serif="http://www.serif.com/" style="fill-rule:evenodd;clip-rule:evenodd;stroke-linecap:round;stroke-linejoin:round;stroke-miterlimit:1.5;"><g><path d="M1907.49,1740.4c-0,-0 54.84,-34.632 65.842,-93.616c9.21,-49.384 0.843,-101.94 20.759,-196.147c29.491,-139.498 123.551,-141.709 181.161,-349.944c42.992,-155.397 -10.569,-313.417 -14.62,-324.431c-60.837,-165.412 -232.072,-351.43 -504.431,-344.294c-71.934,1.885 -147.975,19.443 -218.794,49.433c-207.928,88.049 -318.994,288.27 -304.889,513.794c12.61,201.618 100.79,279.965 131.877,329.002c31.088,49.036 59.535,89.1 72.414,159.136c15.05,81.843 -4.441,113.676 8.882,156.026c13.323,42.35 42.19,127.05 117.689,127.05c75.499,-0 444.11,-26.009 444.11,-26.009Z" style="fill:#ffcf51;"/><g><path d="M1275.25,804.944c0,0 53.826,-159.206 221.927,-224.655" style="fill:none;stroke:#fff;stroke-width:83.59px;"/><g><path d="M1477.83,231.63c-6.782,-21.383 -29.647,-33.237 -51.03,-26.455c-21.382,6.781 -33.236,29.646 -26.455,51.029l36.738,115.838c6.782,21.383 29.647,33.237 51.029,26.455c21.383,-6.781 33.237,-29.646 26.456,-51.029l-36.738,-115.838Z" style="fill:#fff;"/><path d="M1087.07,477.225c-17.936,-13.471 -43.435,-9.846 -56.906,8.091c-13.471,17.937 -9.846,43.436 8.091,56.907l98.19,73.743c17.937,13.471 43.436,9.845 56.907,-8.091c13.471,-17.937 9.845,-43.436 -8.091,-56.907l-98.191,-73.743Z" style="fill:#fff;"/><path d="M915.421,906.741c-22.432,0 -40.644,18.212 -40.644,40.644c0,22.432 18.212,40.644 40.644,40.644l121.525,0c22.432,0 40.644,-18.212 40.644,-40.644c-0,-22.432 -18.212,-40.644 -40.644,-40.644l-121.525,0Z" style="fill:#fff;"/><path d="M1025.62,1355.33c-18.38,12.86 -22.862,38.222 -10.003,56.602c12.86,18.38 38.223,22.862 56.603,10.003l80.827,-56.551c18.38,-12.859 22.862,-38.222 10.002,-56.602c-12.859,-18.38 -38.222,-22.862 -56.602,-10.003l-80.827,56.551Z" style="fill:#fff;"/></g><g><path d="M1858.95,237.35c6.781,-21.383 29.646,-33.237 51.029,-26.456c21.382,6.782 33.236,29.647 26.455,51.03l-36.738,115.838c-6.781,21.383 -29.647,33.237 -51.029,26.455c-21.383,-6.781 -33.237,-29.646 -26.455,-51.029l36.738,-115.838Z" style="fill:#fff;"/><path d="M2249.71,482.944c17.937,-13.471 43.436,-9.845 56.907,8.092c13.471,17.937 9.845,43.436 -8.092,56.907l-98.19,73.743c-17.937,13.471 -43.436,9.845 -56.907,-8.092c-13.471,-17.936 -9.845,-43.435 8.092,-56.906l98.19,-73.744Z" style="fill:#fff;"/><path d="M2421.36,912.461c22.432,0 40.644,18.212 40.644,40.644c-0,22.432 -18.212,40.644 -40.644,40.644l-121.525,-0c-22.432,-0 -40.644,-18.212 -40.644,-40.644c0,-22.432 18.212,-40.644 40.644,-40.644l121.525,0Z" style="fill:#fff;"/><path d="M2311.16,1361.05c18.38,12.859 22.862,38.222 10.003,56.602c-12.86,18.38 -38.222,22.862 -56.602,10.003l-80.828,-56.551c-18.38,-12.859 -22.862,-38.222 -10.002,-56.602c12.859,-18.38 38.222,-22.862 56.602,-10.003l80.827,56.551Z" style="fill:#fff;"/></g></g><g><path d="M1408.12,1797.92c0,-0 354.188,-8.328 499.794,-34.335" style="fill:none;stroke:#fff;stroke-width:41.64px;"/><path d="M1408.12,1876.37c0,0 354.188,-8.327 499.794,-34.335" style="fill:none;stroke:#fff;stroke-width:41.64px;"/><path d="M1408.12,1958.22c0,0 354.188,-8.327 499.794,-34.334" style="fill:none;stroke:#fff;stroke-width:41.64px;"/><path d="M1417.64,2033.94c191.99,2.018 346.882,-9.455 486.743,-26.393c0,-0 -208.122,204.321 -239.453,207.844c-31.33,3.523 -160.671,-79.283 -247.29,-181.451Z" style="fill:#fff;stroke:#fff;stroke-width:20.83px;"/></g></g></svg>