<?xml version="1.0" encoding="UTF-8" standalone="no"?>
<!DOCTYPE svg PUBLIC "-//W3C//DTD SVG 1.1//EN" "http://www.w3.org/Graphics/SVG/1.1/DTD/svg11.dtd">
<svg width="100%" height="100%" viewBox="0 0 800 600" version="1.1" xmlns="http://www.w3.org/2000/svg" xmlns:xlink="http://www.w3.org/1999/xlink" xml:space="preserve" xmlns:serif="http://www.serif.com/" style="fill-rule:evenodd;clip-rule:evenodd;stroke-linejoin:round;stroke-miterlimit:2;">
    <g transform="matrix(2.13407,0,0,2.13407,-464.155,-866.313)">
        <g transform="matrix(76.1478,0,0,76.1478,252.83,564.151)">
            <path d="M0.083,-0.492L0.074,-0.42C0.074,-0.381 0.079,-0.315 0.087,-0.223C0.096,-0.131 0.105,-0.077 0.114,-0.063C0.132,-0.036 0.158,-0.023 0.193,-0.023C0.228,-0.023 0.254,-0.033 0.27,-0.052C0.276,-0.052 0.284,-0.053 0.293,-0.055L0.298,-0.05C0.298,-0.018 0.272,0.003 0.222,0.013C0.21,0.015 0.196,0.016 0.181,0.016C0.166,0.016 0.148,0.009 0.127,-0.006C0.107,-0.021 0.092,-0.038 0.084,-0.056C0.076,-0.074 0.067,-0.131 0.059,-0.226C0.051,-0.321 0.047,-0.405 0.047,-0.477C0.047,-0.549 0.049,-0.592 0.053,-0.605C0.051,-0.616 0.05,-0.627 0.05,-0.637C0.05,-0.677 0.064,-0.708 0.093,-0.731C0.121,-0.753 0.157,-0.764 0.198,-0.764C0.21,-0.764 0.222,-0.761 0.236,-0.753C0.249,-0.746 0.256,-0.737 0.256,-0.727C0.256,-0.72 0.251,-0.716 0.24,-0.716C0.237,-0.716 0.233,-0.718 0.228,-0.722C0.223,-0.726 0.219,-0.728 0.215,-0.728C0.212,-0.728 0.208,-0.727 0.204,-0.726C0.196,-0.729 0.188,-0.73 0.18,-0.73C0.172,-0.73 0.162,-0.728 0.151,-0.725C0.139,-0.721 0.129,-0.717 0.122,-0.712C0.114,-0.706 0.108,-0.699 0.102,-0.69C0.097,-0.681 0.093,-0.672 0.09,-0.664C0.087,-0.656 0.085,-0.645 0.083,-0.632C0.081,-0.613 0.08,-0.59 0.08,-0.563L0.083,-0.492ZM0.197,-0.72L0.195,-0.72L0.197,-0.72Z" style="fill:white;fill-rule:nonzero;"/>
        </g>
        <g transform="matrix(76.1478,0,0,76.1478,278.709,564.151)">
            <path d="M0.05,-0.629C0.05,-0.654 0.057,-0.667 0.072,-0.667C0.104,-0.667 0.131,-0.659 0.152,-0.642C0.174,-0.626 0.184,-0.602 0.184,-0.57L0.184,-0.497C0.184,-0.471 0.171,-0.435 0.145,-0.387C0.136,-0.371 0.132,-0.362 0.132,-0.361C0.132,-0.359 0.144,-0.306 0.17,-0.202C0.195,-0.098 0.208,-0.045 0.209,-0.042C0.211,-0.038 0.214,-0.031 0.219,-0.021C0.224,-0.011 0.227,-0.002 0.227,0.006C0.227,0.013 0.223,0.017 0.216,0.017L0.201,0.012C0.186,-0.005 0.168,-0.07 0.15,-0.183C0.132,-0.292 0.117,-0.346 0.104,-0.346L0.1,-0.346C0.085,-0.346 0.078,-0.341 0.078,-0.332C0.078,-0.296 0.08,-0.235 0.084,-0.15C0.089,-0.065 0.092,-0.018 0.095,-0.008L0.088,0.009L0.073,0.009L0.066,0.001C0.055,-0.288 0.05,-0.498 0.05,-0.629ZM0.078,-0.615L0.082,-0.373L0.084,-0.371C0.097,-0.371 0.108,-0.378 0.118,-0.391C0.128,-0.404 0.136,-0.42 0.141,-0.439C0.152,-0.478 0.157,-0.508 0.157,-0.528C0.157,-0.548 0.157,-0.563 0.155,-0.573C0.154,-0.584 0.151,-0.595 0.147,-0.606C0.138,-0.629 0.119,-0.641 0.09,-0.641C0.086,-0.641 0.083,-0.638 0.081,-0.632C0.079,-0.626 0.078,-0.62 0.078,-0.615Z" style="fill:white;fill-rule:nonzero;"/>
        </g>
        <g transform="matrix(76.1478,0,0,76.1478,299.158,564.151)">
            <path d="M0.053,-0.008L0.054,-0.033L0.051,-0.037C0.056,-0.05 0.058,-0.064 0.058,-0.078L0.053,-0.21L0.06,-0.511L0.056,-0.631C0.056,-0.65 0.066,-0.659 0.085,-0.659C0.092,-0.659 0.098,-0.657 0.101,-0.653C0.103,-0.652 0.113,-0.651 0.13,-0.649C0.171,-0.644 0.192,-0.636 0.193,-0.624C0.193,-0.619 0.187,-0.612 0.174,-0.605C0.137,-0.617 0.11,-0.623 0.093,-0.624L0.088,-0.618C0.089,-0.609 0.089,-0.594 0.089,-0.575L0.085,-0.42C0.085,-0.401 0.09,-0.392 0.099,-0.392L0.133,-0.394C0.158,-0.394 0.171,-0.388 0.172,-0.376C0.172,-0.369 0.17,-0.363 0.167,-0.358C0.163,-0.353 0.157,-0.35 0.148,-0.35C0.14,-0.35 0.133,-0.353 0.129,-0.358L0.096,-0.363L0.092,-0.363L0.087,-0.358L0.087,-0.355C0.088,-0.338 0.089,-0.311 0.089,-0.276L0.087,-0.134C0.087,-0.067 0.091,-0.031 0.101,-0.023C0.106,-0.019 0.117,-0.016 0.133,-0.016L0.17,-0.018C0.189,-0.018 0.199,-0.014 0.199,-0.005C0.199,0.007 0.185,0.013 0.156,0.013L0.073,0.013C0.061,0.013 0.054,0.006 0.053,-0.008Z" style="fill:white;fill-rule:nonzero;"/>
        </g>
        <g transform="matrix(76.1478,0,0,76.1478,317.414,564.151)">
            <path d="M0.179,-0.149L0.153,-0.148C0.143,-0.152 0.133,-0.154 0.122,-0.154C0.11,-0.154 0.104,-0.153 0.103,-0.153C0.102,-0.152 0.101,-0.151 0.101,-0.149C0.101,-0.148 0.1,-0.147 0.1,-0.146L0.098,-0.126C0.097,-0.109 0.094,-0.089 0.089,-0.065C0.08,-0.018 0.07,0.005 0.06,0.005C0.056,0.005 0.051,0.003 0.047,-0C0.042,-0.004 0.04,-0.008 0.04,-0.012C0.049,-0.037 0.057,-0.075 0.066,-0.126C0.076,-0.177 0.081,-0.208 0.083,-0.221C0.086,-0.233 0.09,-0.259 0.096,-0.297C0.102,-0.335 0.106,-0.36 0.108,-0.372C0.11,-0.384 0.116,-0.41 0.124,-0.45C0.133,-0.49 0.138,-0.516 0.14,-0.529C0.142,-0.541 0.144,-0.558 0.146,-0.579C0.152,-0.631 0.156,-0.66 0.159,-0.666L0.173,-0.665C0.181,-0.665 0.187,-0.667 0.191,-0.671C0.195,-0.671 0.199,-0.67 0.203,-0.667C0.207,-0.664 0.209,-0.66 0.209,-0.656C0.209,-0.624 0.213,-0.562 0.221,-0.471C0.229,-0.379 0.236,-0.32 0.24,-0.293C0.245,-0.266 0.251,-0.24 0.257,-0.214C0.263,-0.188 0.266,-0.168 0.266,-0.155L0.261,-0.141C0.261,-0.126 0.264,-0.104 0.27,-0.075C0.275,-0.046 0.278,-0.025 0.278,-0.013C0.278,-0.002 0.275,0.006 0.27,0.009C0.256,0.009 0.248,0.007 0.245,0.003C0.242,-0.001 0.24,-0.007 0.24,-0.016C0.24,-0.024 0.24,-0.035 0.239,-0.048C0.237,-0.06 0.236,-0.07 0.235,-0.078L0.224,-0.144C0.211,-0.147 0.196,-0.149 0.179,-0.149ZM0.109,-0.198C0.109,-0.191 0.117,-0.186 0.133,-0.181C0.157,-0.174 0.184,-0.171 0.214,-0.171L0.224,-0.171C0.22,-0.184 0.218,-0.199 0.218,-0.216L0.218,-0.239C0.218,-0.28 0.213,-0.34 0.202,-0.419C0.192,-0.499 0.187,-0.557 0.186,-0.596C0.151,-0.424 0.13,-0.318 0.121,-0.277C0.113,-0.237 0.109,-0.21 0.109,-0.198Z" style="fill:white;fill-rule:nonzero;"/>
        </g>
        <g transform="matrix(76.1478,0,0,76.1478,342.215,564.151)">
            <path d="M0.204,-0.627L0.15,-0.634L0.145,-0.628L0.147,-0.624C0.146,-0.621 0.145,-0.602 0.145,-0.567C0.145,-0.531 0.151,-0.448 0.162,-0.318C0.173,-0.188 0.178,-0.09 0.178,-0.025C0.178,-0.02 0.176,-0.016 0.172,-0.012C0.168,-0.008 0.164,-0.006 0.159,-0.006L0.148,-0.014L0.146,-0.087L0.148,-0.122C0.148,-0.131 0.147,-0.139 0.144,-0.146C0.144,-0.203 0.14,-0.285 0.132,-0.394C0.124,-0.502 0.12,-0.582 0.119,-0.634C0.067,-0.634 0.039,-0.64 0.035,-0.653C0.038,-0.66 0.044,-0.664 0.054,-0.664L0.19,-0.655L0.208,-0.656C0.22,-0.656 0.226,-0.652 0.226,-0.643C0.226,-0.639 0.224,-0.635 0.219,-0.632C0.214,-0.628 0.209,-0.627 0.204,-0.627Z" style="fill:white;fill-rule:nonzero;"/>
        </g>
        <g transform="matrix(76.1478,0,0,76.1478,362.441,564.151)">
            <path d="M0.207,-0.008L0.174,-0.011C0.169,-0.011 0.162,-0.009 0.155,-0.006C0.148,-0.002 0.14,-0 0.13,-0C0.12,-0 0.113,-0.003 0.111,-0.01L0.094,-0.009C0.08,-0.009 0.071,-0.012 0.067,-0.019C0.067,-0.023 0.069,-0.027 0.073,-0.03C0.076,-0.032 0.079,-0.035 0.08,-0.036L0.109,-0.036L0.113,-0.04L0.116,-0.061C0.116,-0.061 0.114,-0.134 0.109,-0.28L0.114,-0.513C0.114,-0.558 0.112,-0.597 0.109,-0.629C0.102,-0.631 0.092,-0.632 0.079,-0.632L0.055,-0.63C0.042,-0.63 0.036,-0.636 0.036,-0.647C0.036,-0.65 0.039,-0.653 0.045,-0.655C0.051,-0.658 0.056,-0.659 0.06,-0.659C0.153,-0.659 0.199,-0.649 0.199,-0.629C0.199,-0.627 0.198,-0.624 0.197,-0.621L0.174,-0.619C0.169,-0.623 0.159,-0.625 0.145,-0.625L0.14,-0.622C0.142,-0.616 0.143,-0.598 0.143,-0.569L0.14,-0.331L0.147,-0.112L0.146,-0.081C0.146,-0.065 0.147,-0.056 0.149,-0.053L0.148,-0.051C0.148,-0.044 0.155,-0.041 0.17,-0.041L0.199,-0.042C0.219,-0.042 0.229,-0.037 0.229,-0.028C0.229,-0.022 0.227,-0.017 0.223,-0.013C0.218,-0.01 0.213,-0.008 0.207,-0.008Z" style="fill:white;fill-rule:nonzero;"/>
        </g>
        <g transform="matrix(76.1478,0,0,76.1478,382.891,564.151)">
            <path d="M0.294,-0.681C0.301,-0.679 0.305,-0.675 0.305,-0.668C0.305,-0.662 0.304,-0.654 0.303,-0.645C0.301,-0.635 0.299,-0.624 0.296,-0.611C0.293,-0.599 0.291,-0.589 0.289,-0.582C0.288,-0.575 0.282,-0.549 0.272,-0.506C0.262,-0.462 0.256,-0.428 0.252,-0.405C0.248,-0.381 0.244,-0.348 0.24,-0.304C0.236,-0.261 0.233,-0.232 0.231,-0.218C0.229,-0.203 0.225,-0.184 0.219,-0.159C0.212,-0.135 0.208,-0.119 0.207,-0.112C0.206,-0.105 0.205,-0.095 0.204,-0.084C0.203,-0.073 0.202,-0.062 0.201,-0.052C0.2,-0.043 0.198,-0.032 0.195,-0.022C0.19,0.001 0.18,0.012 0.164,0.012L0.153,0.003C0.153,-0.106 0.123,-0.291 0.064,-0.552C0.063,-0.556 0.06,-0.567 0.056,-0.583C0.043,-0.627 0.037,-0.651 0.037,-0.654C0.037,-0.657 0.039,-0.66 0.042,-0.663C0.044,-0.666 0.048,-0.667 0.051,-0.667C0.055,-0.667 0.059,-0.664 0.063,-0.658C0.066,-0.653 0.07,-0.645 0.072,-0.636C0.075,-0.627 0.077,-0.618 0.079,-0.609C0.081,-0.6 0.083,-0.591 0.084,-0.582C0.086,-0.573 0.088,-0.564 0.091,-0.555C0.093,-0.545 0.096,-0.532 0.1,-0.514C0.104,-0.497 0.108,-0.481 0.111,-0.467C0.114,-0.452 0.117,-0.435 0.121,-0.415C0.125,-0.395 0.128,-0.379 0.13,-0.368C0.132,-0.356 0.135,-0.339 0.139,-0.317C0.142,-0.294 0.145,-0.279 0.146,-0.27C0.148,-0.261 0.151,-0.244 0.155,-0.219C0.158,-0.194 0.161,-0.178 0.161,-0.172C0.162,-0.165 0.165,-0.148 0.169,-0.12C0.173,-0.093 0.175,-0.076 0.176,-0.072C0.189,-0.117 0.201,-0.181 0.21,-0.264C0.219,-0.346 0.232,-0.431 0.25,-0.519C0.268,-0.606 0.278,-0.659 0.281,-0.676L0.294,-0.681ZM0.175,-0.069L0.174,-0.067L0.175,-0.065L0.175,-0.069ZM0.147,-0.54L0.147,-0.538L0.146,-0.538C0.146,-0.539 0.146,-0.54 0.147,-0.54Z" style="fill:white;fill-rule:nonzero;"/>
        </g>
        <g transform="matrix(76.1478,0,0,76.1478,409.439,564.151)">
            <path d="M0.207,-0.008L0.174,-0.011C0.169,-0.011 0.162,-0.009 0.155,-0.006C0.148,-0.002 0.14,-0 0.13,-0C0.12,-0 0.113,-0.003 0.111,-0.01L0.094,-0.009C0.08,-0.009 0.071,-0.012 0.067,-0.019C0.067,-0.023 0.069,-0.027 0.073,-0.03C0.076,-0.032 0.079,-0.035 0.08,-0.036L0.109,-0.036L0.113,-0.04L0.116,-0.061C0.116,-0.061 0.114,-0.134 0.109,-0.28L0.114,-0.513C0.114,-0.558 0.112,-0.597 0.109,-0.629C0.102,-0.631 0.092,-0.632 0.079,-0.632L0.055,-0.63C0.042,-0.63 0.036,-0.636 0.036,-0.647C0.036,-0.65 0.039,-0.653 0.045,-0.655C0.051,-0.658 0.056,-0.659 0.06,-0.659C0.153,-0.659 0.199,-0.649 0.199,-0.629C0.199,-0.627 0.198,-0.624 0.197,-0.621L0.174,-0.619C0.169,-0.623 0.159,-0.625 0.145,-0.625L0.14,-0.622C0.142,-0.616 0.143,-0.598 0.143,-0.569L0.14,-0.331L0.147,-0.112L0.146,-0.081C0.146,-0.065 0.147,-0.056 0.149,-0.053L0.148,-0.051C0.148,-0.044 0.155,-0.041 0.17,-0.041L0.199,-0.042C0.219,-0.042 0.229,-0.037 0.229,-0.028C0.229,-0.022 0.227,-0.017 0.223,-0.013C0.218,-0.01 0.213,-0.008 0.207,-0.008Z" style="fill:white;fill-rule:nonzero;"/>
        </g>
        <g transform="matrix(76.1478,0,0,76.1478,429.889,564.151)">
            <path d="M0.204,-0.627L0.15,-0.634L0.145,-0.628L0.147,-0.624C0.146,-0.621 0.145,-0.602 0.145,-0.567C0.145,-0.531 0.151,-0.448 0.162,-0.318C0.173,-0.188 0.178,-0.09 0.178,-0.025C0.178,-0.02 0.176,-0.016 0.172,-0.012C0.168,-0.008 0.164,-0.006 0.159,-0.006L0.148,-0.014L0.146,-0.087L0.148,-0.122C0.148,-0.131 0.147,-0.139 0.144,-0.146C0.144,-0.203 0.14,-0.285 0.132,-0.394C0.124,-0.502 0.12,-0.582 0.119,-0.634C0.067,-0.634 0.039,-0.64 0.035,-0.653C0.038,-0.66 0.044,-0.664 0.054,-0.664L0.19,-0.655L0.208,-0.656C0.22,-0.656 0.226,-0.652 0.226,-0.643C0.226,-0.639 0.224,-0.635 0.219,-0.632C0.214,-0.628 0.209,-0.627 0.204,-0.627Z" style="fill:white;fill-rule:nonzero;"/>
        </g>
        <g transform="matrix(114.222,0,0,114.222,450.115,564.151)">
            <path d="M0.568,-0.551C0.568,-0.55 0.568,-0.55 0.568,-0.55C0.567,-0.55 0.567,-0.55 0.567,-0.549C0.554,-0.511 0.539,-0.474 0.522,-0.44C0.505,-0.405 0.489,-0.369 0.473,-0.333C0.474,-0.328 0.474,-0.322 0.471,-0.317C0.469,-0.311 0.467,-0.306 0.465,-0.301L0.465,-0.299C0.465,-0.298 0.465,-0.297 0.466,-0.297L0.443,-0.24C0.443,-0.24 0.441,-0.239 0.436,-0.237C0.435,-0.234 0.434,-0.231 0.433,-0.228C0.431,-0.225 0.429,-0.221 0.428,-0.217L0.428,-0.223C0.427,-0.222 0.426,-0.22 0.425,-0.219C0.424,-0.218 0.423,-0.217 0.422,-0.216C0.421,-0.215 0.422,-0.214 0.423,-0.215C0.424,-0.215 0.424,-0.215 0.423,-0.214C0.42,-0.207 0.416,-0.2 0.412,-0.193C0.409,-0.186 0.405,-0.18 0.402,-0.173C0.403,-0.172 0.404,-0.171 0.403,-0.172C0.402,-0.172 0.401,-0.172 0.4,-0.173C0.399,-0.164 0.396,-0.156 0.391,-0.148C0.386,-0.139 0.38,-0.132 0.375,-0.125C0.374,-0.123 0.373,-0.121 0.373,-0.119C0.372,-0.117 0.371,-0.115 0.37,-0.114C0.369,-0.113 0.367,-0.113 0.365,-0.113C0.362,-0.11 0.36,-0.107 0.358,-0.102C0.356,-0.098 0.354,-0.093 0.352,-0.088C0.349,-0.085 0.346,-0.081 0.344,-0.077C0.342,-0.072 0.34,-0.067 0.339,-0.062C0.335,-0.061 0.332,-0.058 0.331,-0.055C0.33,-0.052 0.328,-0.048 0.327,-0.045C0.326,-0.045 0.325,-0.045 0.324,-0.046C0.323,-0.043 0.321,-0.041 0.319,-0.039C0.317,-0.036 0.316,-0.034 0.316,-0.031C0.312,-0.029 0.309,-0.026 0.308,-0.022C0.307,-0.018 0.305,-0.014 0.303,-0.011C0.302,-0.01 0.302,-0.009 0.302,-0.01C0.301,-0.011 0.3,-0.011 0.298,-0.01C0.297,-0.009 0.298,-0.008 0.3,-0.009C0.301,-0.009 0.301,-0.009 0.3,-0.008C0.3,-0.008 0.298,-0.007 0.295,-0.006C0.292,-0.001 0.289,0.004 0.285,0.007C0.282,0.01 0.279,0.014 0.276,0.019C0.275,0.019 0.275,0.019 0.276,0.018C0.276,0.018 0.275,0.018 0.274,0.018C0.271,0.019 0.27,0.021 0.269,0.023C0.268,0.026 0.267,0.028 0.265,0.029L0.264,0.028C0.261,0.031 0.258,0.034 0.257,0.039C0.256,0.044 0.253,0.046 0.249,0.046C0.247,0.048 0.245,0.05 0.242,0.052C0.238,0.055 0.236,0.058 0.234,0.061C0.233,0.061 0.232,0.061 0.231,0.062C0.23,0.063 0.229,0.064 0.228,0.065C0.227,0.066 0.225,0.068 0.223,0.069C0.223,0.07 0.222,0.071 0.219,0.073C0.212,0.078 0.204,0.084 0.198,0.091C0.191,0.098 0.182,0.103 0.173,0.104C0.172,0.105 0.172,0.106 0.172,0.107C0.171,0.108 0.17,0.108 0.167,0.107C0.166,0.109 0.165,0.11 0.164,0.11C0.163,0.111 0.162,0.112 0.161,0.115C0.16,0.114 0.159,0.113 0.159,0.114C0.158,0.115 0.157,0.115 0.156,0.114C0.153,0.115 0.15,0.117 0.147,0.118C0.144,0.119 0.14,0.12 0.135,0.119C0.123,0.123 0.111,0.124 0.1,0.122C0.089,0.12 0.078,0.116 0.069,0.109C0.059,0.103 0.051,0.096 0.043,0.087C0.037,0.078 0.031,0.069 0.028,0.06C0.027,0.053 0.025,0.047 0.023,0.042C0.021,0.037 0.019,0.031 0.018,0.024L0.012,-0.003C0.009,-0.002 0.009,-0.003 0.011,-0.007C0.012,-0.01 0.011,-0.013 0.008,-0.014C0.011,-0.015 0.012,-0.017 0.011,-0.018C0.01,-0.019 0.009,-0.021 0.008,-0.023C0.007,-0.026 0.008,-0.028 0.01,-0.03C0.011,-0.032 0.012,-0.034 0.011,-0.036C0.01,-0.037 0.01,-0.037 0.01,-0.038L0.01,-0.041C0.01,-0.056 0.011,-0.071 0.012,-0.089C0.013,-0.106 0.015,-0.123 0.017,-0.141C0.019,-0.158 0.021,-0.175 0.025,-0.193C0.028,-0.21 0.031,-0.226 0.034,-0.241L0.035,-0.257C0.046,-0.314 0.059,-0.369 0.075,-0.423C0.091,-0.476 0.104,-0.529 0.115,-0.582C0.113,-0.584 0.112,-0.587 0.112,-0.59C0.112,-0.593 0.112,-0.595 0.113,-0.598C0.114,-0.597 0.116,-0.597 0.117,-0.599C0.118,-0.601 0.12,-0.602 0.122,-0.602C0.123,-0.601 0.125,-0.599 0.127,-0.598C0.128,-0.597 0.129,-0.595 0.13,-0.593C0.143,-0.593 0.153,-0.591 0.159,-0.587C0.165,-0.583 0.171,-0.577 0.178,-0.57C0.179,-0.563 0.181,-0.556 0.183,-0.549C0.184,-0.542 0.183,-0.535 0.178,-0.528C0.177,-0.517 0.175,-0.506 0.173,-0.496C0.172,-0.485 0.169,-0.475 0.166,-0.464C0.165,-0.46 0.164,-0.456 0.163,-0.453C0.161,-0.449 0.159,-0.444 0.158,-0.439C0.157,-0.436 0.156,-0.434 0.155,-0.431C0.153,-0.428 0.151,-0.426 0.15,-0.423C0.15,-0.42 0.15,-0.417 0.149,-0.413C0.148,-0.41 0.147,-0.407 0.146,-0.404C0.143,-0.397 0.14,-0.389 0.138,-0.381C0.136,-0.373 0.134,-0.364 0.133,-0.355L0.128,-0.343C0.125,-0.33 0.124,-0.317 0.123,-0.304C0.122,-0.291 0.119,-0.279 0.116,-0.266L0.109,-0.244L0.101,-0.202L0.088,-0.157C0.087,-0.154 0.086,-0.151 0.086,-0.148C0.086,-0.145 0.085,-0.141 0.084,-0.137C0.083,-0.13 0.081,-0.122 0.08,-0.113C0.078,-0.104 0.077,-0.095 0.076,-0.086C0.076,-0.065 0.076,-0.042 0.076,-0.018C0.075,0.006 0.077,0.028 0.082,0.047C0.085,0.05 0.087,0.055 0.087,0.06C0.09,0.063 0.093,0.066 0.094,0.069C0.095,0.072 0.097,0.075 0.098,0.077C0.108,0.078 0.116,0.077 0.123,0.074C0.129,0.071 0.135,0.066 0.142,0.061C0.144,0.06 0.146,0.059 0.149,0.059C0.151,0.059 0.153,0.057 0.154,0.054C0.173,0.039 0.19,0.022 0.206,0.003C0.223,-0.016 0.238,-0.035 0.253,-0.054C0.26,-0.068 0.269,-0.081 0.278,-0.092C0.287,-0.103 0.296,-0.116 0.303,-0.129C0.306,-0.132 0.308,-0.135 0.31,-0.138C0.312,-0.141 0.313,-0.144 0.314,-0.147C0.327,-0.166 0.339,-0.187 0.35,-0.208C0.361,-0.229 0.372,-0.25 0.383,-0.269C0.382,-0.263 0.379,-0.257 0.375,-0.25C0.37,-0.243 0.367,-0.236 0.364,-0.229C0.368,-0.234 0.372,-0.24 0.375,-0.247C0.378,-0.254 0.382,-0.26 0.385,-0.265C0.387,-0.263 0.388,-0.265 0.389,-0.27C0.39,-0.275 0.391,-0.278 0.392,-0.277C0.392,-0.278 0.392,-0.279 0.392,-0.279C0.391,-0.279 0.391,-0.279 0.391,-0.278C0.39,-0.279 0.39,-0.28 0.391,-0.28C0.392,-0.279 0.393,-0.279 0.394,-0.28C0.397,-0.285 0.4,-0.289 0.401,-0.294C0.402,-0.298 0.403,-0.303 0.405,-0.308C0.404,-0.309 0.404,-0.311 0.404,-0.312C0.407,-0.311 0.407,-0.308 0.405,-0.305C0.403,-0.302 0.402,-0.298 0.402,-0.295C0.404,-0.296 0.405,-0.298 0.406,-0.3C0.406,-0.302 0.407,-0.304 0.408,-0.306C0.409,-0.306 0.409,-0.306 0.409,-0.306C0.409,-0.305 0.409,-0.305 0.41,-0.305C0.41,-0.306 0.409,-0.307 0.408,-0.307C0.409,-0.311 0.411,-0.315 0.413,-0.319C0.416,-0.322 0.418,-0.327 0.42,-0.333L0.422,-0.333C0.422,-0.334 0.422,-0.334 0.421,-0.334C0.42,-0.334 0.421,-0.335 0.422,-0.336C0.423,-0.335 0.423,-0.335 0.423,-0.338C0.423,-0.341 0.423,-0.343 0.424,-0.344C0.426,-0.344 0.427,-0.344 0.426,-0.343C0.425,-0.342 0.424,-0.34 0.425,-0.339C0.43,-0.348 0.433,-0.357 0.436,-0.365C0.439,-0.372 0.443,-0.381 0.448,-0.39C0.449,-0.386 0.449,-0.383 0.447,-0.381C0.444,-0.378 0.443,-0.374 0.442,-0.369C0.441,-0.368 0.44,-0.368 0.441,-0.369C0.442,-0.37 0.442,-0.37 0.441,-0.371C0.44,-0.37 0.439,-0.369 0.44,-0.366C0.441,-0.363 0.441,-0.361 0.441,-0.359C0.438,-0.358 0.437,-0.355 0.437,-0.351C0.437,-0.347 0.436,-0.346 0.433,-0.347C0.432,-0.344 0.431,-0.341 0.431,-0.34C0.43,-0.338 0.429,-0.336 0.428,-0.333C0.427,-0.333 0.426,-0.334 0.427,-0.335C0.428,-0.336 0.428,-0.338 0.428,-0.339C0.425,-0.336 0.423,-0.333 0.421,-0.328C0.419,-0.323 0.417,-0.319 0.416,-0.315C0.414,-0.31 0.413,-0.306 0.412,-0.301C0.411,-0.296 0.409,-0.292 0.406,-0.289C0.407,-0.287 0.407,-0.285 0.405,-0.284C0.402,-0.283 0.401,-0.281 0.4,-0.278C0.397,-0.275 0.395,-0.271 0.394,-0.268C0.393,-0.264 0.391,-0.26 0.39,-0.257C0.389,-0.258 0.388,-0.256 0.387,-0.253C0.385,-0.249 0.383,-0.245 0.382,-0.242C0.381,-0.24 0.379,-0.238 0.378,-0.236C0.377,-0.234 0.377,-0.232 0.378,-0.229C0.383,-0.236 0.387,-0.243 0.391,-0.252C0.395,-0.261 0.399,-0.269 0.404,-0.278C0.406,-0.283 0.409,-0.289 0.412,-0.294C0.416,-0.299 0.42,-0.304 0.423,-0.309L0.423,-0.308C0.423,-0.307 0.423,-0.307 0.423,-0.306C0.422,-0.305 0.422,-0.305 0.422,-0.304L0.419,-0.298L0.419,-0.297L0.417,-0.293L0.417,-0.292C0.417,-0.291 0.417,-0.291 0.417,-0.292C0.416,-0.292 0.416,-0.292 0.416,-0.291L0.416,-0.282L0.417,-0.282L0.417,-0.283C0.417,-0.283 0.418,-0.284 0.419,-0.287L0.419,-0.288C0.419,-0.288 0.419,-0.288 0.42,-0.289L0.42,-0.29L0.421,-0.291L0.425,-0.299C0.426,-0.3 0.426,-0.3 0.426,-0.301C0.426,-0.302 0.426,-0.303 0.427,-0.304L0.427,-0.307C0.427,-0.308 0.427,-0.308 0.428,-0.308L0.428,-0.312L0.428,-0.311L0.428,-0.312C0.428,-0.312 0.428,-0.312 0.429,-0.311L0.43,-0.311L0.431,-0.312L0.431,-0.313L0.433,-0.313L0.433,-0.315L0.434,-0.317L0.434,-0.319L0.435,-0.32C0.436,-0.324 0.438,-0.328 0.441,-0.332C0.443,-0.335 0.445,-0.339 0.446,-0.343C0.446,-0.344 0.446,-0.344 0.447,-0.344C0.447,-0.345 0.447,-0.345 0.447,-0.346L0.447,-0.347C0.447,-0.347 0.447,-0.348 0.448,-0.349L0.448,-0.35L0.446,-0.348C0.445,-0.347 0.445,-0.347 0.445,-0.346L0.442,-0.342C0.441,-0.341 0.441,-0.341 0.441,-0.34C0.44,-0.337 0.439,-0.336 0.439,-0.335L0.438,-0.334C0.437,-0.332 0.437,-0.33 0.436,-0.329C0.435,-0.328 0.435,-0.326 0.434,-0.325L0.434,-0.326L0.433,-0.325L0.433,-0.324L0.434,-0.324L0.434,-0.323C0.434,-0.322 0.434,-0.322 0.433,-0.321C0.433,-0.32 0.433,-0.319 0.433,-0.319C0.432,-0.319 0.432,-0.319 0.432,-0.318L0.432,-0.317C0.432,-0.316 0.432,-0.316 0.431,-0.316C0.431,-0.315 0.431,-0.315 0.43,-0.315C0.43,-0.314 0.429,-0.313 0.427,-0.312L0.424,-0.312L0.427,-0.317C0.428,-0.322 0.428,-0.325 0.429,-0.328C0.429,-0.331 0.431,-0.333 0.434,-0.334C0.434,-0.34 0.435,-0.343 0.438,-0.343C0.441,-0.348 0.444,-0.353 0.446,-0.358C0.448,-0.363 0.451,-0.367 0.454,-0.372C0.453,-0.373 0.453,-0.374 0.453,-0.375C0.458,-0.384 0.463,-0.394 0.468,-0.404C0.472,-0.414 0.477,-0.424 0.48,-0.434C0.482,-0.439 0.484,-0.443 0.486,-0.446C0.488,-0.449 0.49,-0.453 0.491,-0.458C0.492,-0.457 0.493,-0.456 0.492,-0.455C0.491,-0.453 0.491,-0.451 0.491,-0.45C0.494,-0.455 0.497,-0.461 0.499,-0.467C0.501,-0.472 0.503,-0.478 0.505,-0.485C0.505,-0.477 0.503,-0.47 0.5,-0.465C0.496,-0.46 0.493,-0.453 0.492,-0.445C0.491,-0.445 0.49,-0.446 0.491,-0.447C0.492,-0.448 0.491,-0.449 0.49,-0.448C0.489,-0.439 0.486,-0.43 0.481,-0.421C0.476,-0.412 0.472,-0.403 0.469,-0.394C0.468,-0.394 0.468,-0.394 0.469,-0.395C0.469,-0.395 0.469,-0.395 0.468,-0.395C0.467,-0.389 0.464,-0.383 0.461,-0.378C0.458,-0.372 0.455,-0.365 0.454,-0.358C0.455,-0.361 0.457,-0.363 0.458,-0.366C0.459,-0.368 0.46,-0.371 0.461,-0.375C0.462,-0.374 0.463,-0.372 0.462,-0.37L0.483,-0.417C0.486,-0.418 0.488,-0.42 0.49,-0.421C0.491,-0.422 0.491,-0.424 0.489,-0.426C0.491,-0.426 0.492,-0.427 0.492,-0.428C0.492,-0.429 0.493,-0.43 0.494,-0.43C0.495,-0.431 0.495,-0.433 0.495,-0.435C0.495,-0.436 0.496,-0.437 0.497,-0.438L0.499,-0.448C0.502,-0.457 0.505,-0.463 0.508,-0.468C0.509,-0.469 0.509,-0.472 0.509,-0.477C0.51,-0.48 0.512,-0.483 0.513,-0.485C0.514,-0.487 0.516,-0.49 0.517,-0.493C0.518,-0.495 0.518,-0.497 0.519,-0.499C0.519,-0.5 0.52,-0.501 0.523,-0.502C0.522,-0.503 0.522,-0.505 0.522,-0.508C0.523,-0.509 0.524,-0.51 0.525,-0.512C0.526,-0.514 0.526,-0.516 0.527,-0.517C0.528,-0.517 0.529,-0.517 0.53,-0.516C0.536,-0.535 0.542,-0.554 0.549,-0.573C0.556,-0.592 0.561,-0.611 0.565,-0.631C0.564,-0.632 0.562,-0.63 0.561,-0.626C0.559,-0.623 0.559,-0.62 0.56,-0.618L0.557,-0.618C0.557,-0.617 0.556,-0.616 0.555,-0.613C0.553,-0.61 0.552,-0.609 0.553,-0.61C0.553,-0.615 0.554,-0.619 0.556,-0.622C0.558,-0.625 0.558,-0.629 0.557,-0.633C0.558,-0.634 0.558,-0.636 0.559,-0.637C0.56,-0.639 0.56,-0.642 0.56,-0.645C0.557,-0.644 0.555,-0.641 0.556,-0.637C0.556,-0.634 0.555,-0.632 0.553,-0.631C0.552,-0.626 0.551,-0.623 0.55,-0.621C0.549,-0.618 0.548,-0.615 0.547,-0.612C0.546,-0.616 0.546,-0.619 0.548,-0.622C0.549,-0.624 0.55,-0.627 0.55,-0.631C0.547,-0.622 0.543,-0.611 0.538,-0.599C0.533,-0.587 0.529,-0.575 0.527,-0.563C0.525,-0.564 0.524,-0.563 0.524,-0.56C0.523,-0.56 0.523,-0.561 0.523,-0.562C0.522,-0.562 0.521,-0.561 0.521,-0.559C0.521,-0.557 0.521,-0.555 0.52,-0.554C0.521,-0.553 0.522,-0.553 0.522,-0.554C0.522,-0.555 0.522,-0.555 0.523,-0.554C0.522,-0.551 0.522,-0.548 0.521,-0.546C0.52,-0.544 0.52,-0.541 0.52,-0.538C0.519,-0.539 0.518,-0.541 0.519,-0.543C0.519,-0.545 0.519,-0.547 0.52,-0.548C0.519,-0.548 0.518,-0.547 0.517,-0.544C0.516,-0.541 0.516,-0.538 0.516,-0.537L0.515,-0.538C0.513,-0.535 0.512,-0.532 0.511,-0.529C0.511,-0.526 0.51,-0.524 0.509,-0.522C0.511,-0.521 0.512,-0.522 0.511,-0.524C0.511,-0.525 0.512,-0.527 0.513,-0.528C0.513,-0.523 0.512,-0.518 0.51,-0.513C0.508,-0.507 0.505,-0.502 0.502,-0.497C0.502,-0.5 0.503,-0.503 0.505,-0.504C0.508,-0.506 0.509,-0.51 0.509,-0.515C0.508,-0.512 0.506,-0.51 0.504,-0.509C0.502,-0.508 0.501,-0.506 0.502,-0.503C0.499,-0.502 0.498,-0.5 0.497,-0.497C0.496,-0.494 0.495,-0.491 0.495,-0.489C0.494,-0.488 0.494,-0.488 0.493,-0.489C0.49,-0.486 0.489,-0.482 0.489,-0.478C0.489,-0.474 0.488,-0.47 0.487,-0.467C0.488,-0.464 0.488,-0.46 0.487,-0.457C0.486,-0.458 0.486,-0.46 0.487,-0.462C0.488,-0.463 0.488,-0.465 0.487,-0.467C0.486,-0.466 0.486,-0.466 0.486,-0.465C0.485,-0.466 0.484,-0.468 0.485,-0.469C0.486,-0.469 0.486,-0.471 0.487,-0.472C0.485,-0.477 0.485,-0.48 0.487,-0.482C0.489,-0.484 0.49,-0.486 0.489,-0.489C0.492,-0.492 0.495,-0.495 0.496,-0.5C0.497,-0.505 0.497,-0.509 0.496,-0.513C0.495,-0.51 0.494,-0.508 0.493,-0.506C0.492,-0.504 0.491,-0.502 0.49,-0.5C0.49,-0.502 0.491,-0.504 0.492,-0.507C0.493,-0.51 0.495,-0.513 0.496,-0.516L0.496,-0.513L0.497,-0.512L0.497,-0.511C0.5,-0.514 0.503,-0.518 0.504,-0.523C0.505,-0.527 0.507,-0.532 0.509,-0.538C0.51,-0.537 0.51,-0.535 0.509,-0.534C0.508,-0.533 0.508,-0.532 0.509,-0.531C0.51,-0.536 0.512,-0.54 0.514,-0.545C0.516,-0.55 0.517,-0.555 0.516,-0.56C0.517,-0.56 0.517,-0.56 0.518,-0.559L0.518,-0.558C0.519,-0.561 0.52,-0.563 0.52,-0.566C0.52,-0.568 0.52,-0.57 0.521,-0.572C0.52,-0.571 0.519,-0.57 0.518,-0.567C0.517,-0.564 0.517,-0.562 0.518,-0.561C0.516,-0.561 0.515,-0.561 0.515,-0.56C0.52,-0.577 0.525,-0.595 0.53,-0.613C0.531,-0.616 0.533,-0.619 0.535,-0.622C0.536,-0.624 0.538,-0.627 0.54,-0.63C0.54,-0.631 0.54,-0.633 0.54,-0.634C0.539,-0.636 0.539,-0.638 0.539,-0.64C0.54,-0.645 0.541,-0.651 0.543,-0.656C0.544,-0.661 0.545,-0.665 0.544,-0.67C0.543,-0.671 0.543,-0.671 0.542,-0.671C0.541,-0.67 0.541,-0.671 0.542,-0.672C0.541,-0.673 0.541,-0.674 0.542,-0.675C0.543,-0.675 0.543,-0.676 0.543,-0.677C0.542,-0.682 0.543,-0.685 0.546,-0.687C0.549,-0.688 0.55,-0.692 0.551,-0.697L0.555,-0.697C0.553,-0.694 0.554,-0.692 0.559,-0.69C0.563,-0.688 0.566,-0.689 0.567,-0.693C0.567,-0.69 0.568,-0.687 0.569,-0.686C0.57,-0.687 0.57,-0.688 0.57,-0.689C0.569,-0.69 0.569,-0.691 0.57,-0.692C0.571,-0.692 0.572,-0.692 0.571,-0.691C0.57,-0.69 0.57,-0.688 0.571,-0.687C0.574,-0.687 0.576,-0.688 0.575,-0.691C0.576,-0.691 0.576,-0.689 0.576,-0.685C0.578,-0.685 0.579,-0.686 0.579,-0.687C0.579,-0.688 0.58,-0.688 0.581,-0.685C0.581,-0.686 0.581,-0.687 0.582,-0.688C0.582,-0.688 0.582,-0.689 0.583,-0.69C0.585,-0.689 0.587,-0.687 0.589,-0.685C0.591,-0.682 0.593,-0.681 0.596,-0.68C0.596,-0.671 0.595,-0.661 0.593,-0.651C0.591,-0.641 0.587,-0.633 0.582,-0.626C0.581,-0.622 0.58,-0.619 0.579,-0.617C0.577,-0.614 0.575,-0.61 0.574,-0.605C0.571,-0.596 0.568,-0.586 0.565,-0.577C0.562,-0.567 0.558,-0.558 0.551,-0.55C0.552,-0.547 0.552,-0.545 0.55,-0.544C0.548,-0.543 0.548,-0.54 0.549,-0.537C0.544,-0.53 0.54,-0.521 0.538,-0.512C0.535,-0.503 0.532,-0.495 0.527,-0.489C0.524,-0.481 0.521,-0.474 0.518,-0.468C0.515,-0.462 0.511,-0.455 0.508,-0.447C0.507,-0.447 0.506,-0.448 0.507,-0.449C0.508,-0.45 0.507,-0.449 0.506,-0.448C0.507,-0.451 0.509,-0.453 0.51,-0.456C0.511,-0.459 0.512,-0.462 0.511,-0.465C0.508,-0.461 0.505,-0.456 0.503,-0.45C0.502,-0.443 0.5,-0.436 0.499,-0.428C0.498,-0.428 0.498,-0.429 0.498,-0.43C0.498,-0.431 0.498,-0.431 0.497,-0.431C0.495,-0.424 0.493,-0.417 0.49,-0.412C0.487,-0.407 0.483,-0.4 0.48,-0.393C0.479,-0.393 0.479,-0.393 0.478,-0.394C0.471,-0.376 0.465,-0.361 0.459,-0.347C0.452,-0.335 0.445,-0.32 0.438,-0.305C0.441,-0.315 0.445,-0.325 0.449,-0.336C0.453,-0.347 0.457,-0.357 0.462,-0.368L0.461,-0.368C0.457,-0.357 0.453,-0.346 0.448,-0.337C0.443,-0.327 0.437,-0.317 0.432,-0.307C0.433,-0.306 0.433,-0.304 0.432,-0.303C0.432,-0.303 0.431,-0.302 0.43,-0.301C0.431,-0.298 0.43,-0.296 0.429,-0.295C0.428,-0.294 0.427,-0.292 0.427,-0.289C0.424,-0.288 0.422,-0.285 0.421,-0.281C0.42,-0.276 0.419,-0.272 0.416,-0.269C0.415,-0.261 0.413,-0.255 0.41,-0.25C0.407,-0.245 0.404,-0.239 0.402,-0.232C0.4,-0.23 0.398,-0.227 0.397,-0.223C0.398,-0.223 0.398,-0.223 0.399,-0.224C0.4,-0.225 0.4,-0.224 0.401,-0.222C0.404,-0.229 0.407,-0.236 0.41,-0.241C0.414,-0.246 0.418,-0.253 0.421,-0.26C0.423,-0.259 0.424,-0.26 0.425,-0.261C0.425,-0.262 0.426,-0.263 0.427,-0.264C0.433,-0.278 0.439,-0.292 0.445,-0.305C0.451,-0.318 0.457,-0.331 0.463,-0.344C0.464,-0.343 0.463,-0.34 0.461,-0.335C0.459,-0.33 0.457,-0.326 0.454,-0.322C0.452,-0.313 0.449,-0.307 0.444,-0.302C0.443,-0.297 0.441,-0.292 0.44,-0.289C0.439,-0.286 0.437,-0.281 0.435,-0.276C0.44,-0.277 0.443,-0.281 0.444,-0.288C0.445,-0.294 0.447,-0.299 0.45,-0.302L0.487,-0.382C0.488,-0.382 0.489,-0.382 0.488,-0.381C0.487,-0.38 0.487,-0.379 0.488,-0.378C0.494,-0.395 0.501,-0.41 0.508,-0.425C0.515,-0.439 0.522,-0.455 0.527,-0.472C0.528,-0.472 0.529,-0.472 0.53,-0.472C0.531,-0.473 0.531,-0.473 0.532,-0.473C0.541,-0.496 0.549,-0.518 0.558,-0.539C0.567,-0.56 0.575,-0.582 0.582,-0.605C0.586,-0.615 0.589,-0.625 0.59,-0.635C0.591,-0.645 0.594,-0.655 0.599,-0.664C0.6,-0.663 0.6,-0.661 0.599,-0.659C0.598,-0.657 0.598,-0.657 0.601,-0.659C0.601,-0.656 0.6,-0.652 0.598,-0.649C0.596,-0.646 0.596,-0.642 0.598,-0.638C0.595,-0.636 0.594,-0.634 0.595,-0.631C0.596,-0.628 0.596,-0.626 0.597,-0.624C0.599,-0.629 0.6,-0.634 0.6,-0.641C0.599,-0.647 0.6,-0.652 0.603,-0.657C0.604,-0.648 0.604,-0.639 0.603,-0.628C0.601,-0.618 0.599,-0.608 0.596,-0.597C0.597,-0.596 0.598,-0.593 0.597,-0.59C0.596,-0.587 0.594,-0.583 0.593,-0.579C0.592,-0.58 0.592,-0.58 0.592,-0.581C0.589,-0.576 0.587,-0.57 0.586,-0.565C0.584,-0.56 0.582,-0.554 0.581,-0.547C0.582,-0.545 0.581,-0.543 0.58,-0.542C0.579,-0.54 0.578,-0.538 0.577,-0.536C0.574,-0.528 0.571,-0.52 0.57,-0.512C0.568,-0.504 0.565,-0.497 0.562,-0.491C0.559,-0.488 0.557,-0.485 0.556,-0.481C0.554,-0.477 0.552,-0.473 0.55,-0.47C0.549,-0.461 0.546,-0.453 0.542,-0.446C0.538,-0.439 0.534,-0.432 0.531,-0.424C0.528,-0.423 0.527,-0.422 0.528,-0.422C0.527,-0.417 0.526,-0.412 0.523,-0.409C0.52,-0.406 0.517,-0.402 0.516,-0.397C0.517,-0.394 0.516,-0.391 0.514,-0.388C0.512,-0.385 0.51,-0.382 0.509,-0.378L0.509,-0.379C0.504,-0.372 0.5,-0.365 0.497,-0.358C0.494,-0.35 0.491,-0.343 0.488,-0.336C0.485,-0.335 0.484,-0.333 0.483,-0.329C0.482,-0.325 0.48,-0.322 0.477,-0.321C0.478,-0.326 0.48,-0.33 0.482,-0.333C0.484,-0.336 0.486,-0.339 0.489,-0.343C0.492,-0.354 0.496,-0.365 0.501,-0.375C0.506,-0.384 0.51,-0.395 0.515,-0.406C0.516,-0.406 0.516,-0.406 0.516,-0.407C0.516,-0.408 0.517,-0.409 0.518,-0.408C0.52,-0.421 0.523,-0.432 0.528,-0.441C0.532,-0.45 0.536,-0.46 0.541,-0.471C0.544,-0.478 0.546,-0.484 0.547,-0.49C0.548,-0.495 0.55,-0.5 0.552,-0.505C0.553,-0.508 0.555,-0.511 0.557,-0.515C0.558,-0.518 0.56,-0.521 0.562,-0.524C0.563,-0.526 0.564,-0.528 0.565,-0.531C0.565,-0.534 0.565,-0.536 0.566,-0.538C0.567,-0.543 0.569,-0.549 0.572,-0.554C0.575,-0.559 0.577,-0.566 0.578,-0.574C0.577,-0.573 0.576,-0.572 0.576,-0.57C0.575,-0.567 0.575,-0.565 0.574,-0.564C0.573,-0.565 0.573,-0.567 0.574,-0.568C0.575,-0.569 0.575,-0.57 0.575,-0.571C0.572,-0.568 0.571,-0.566 0.572,-0.563C0.573,-0.56 0.572,-0.557 0.571,-0.554C0.57,-0.554 0.57,-0.555 0.57,-0.557C0.569,-0.556 0.569,-0.555 0.568,-0.554C0.567,-0.553 0.567,-0.551 0.567,-0.55C0.567,-0.55 0.567,-0.55 0.568,-0.551ZM0.428,-0.248C0.427,-0.249 0.426,-0.25 0.426,-0.25L0.424,-0.246C0.423,-0.243 0.421,-0.24 0.42,-0.239C0.42,-0.238 0.42,-0.238 0.419,-0.237L0.416,-0.231L0.408,-0.216L0.405,-0.206C0.404,-0.206 0.403,-0.206 0.403,-0.206C0.402,-0.207 0.401,-0.207 0.4,-0.207C0.398,-0.2 0.396,-0.194 0.394,-0.189C0.391,-0.183 0.388,-0.177 0.385,-0.171L0.381,-0.163C0.378,-0.158 0.376,-0.152 0.374,-0.147C0.371,-0.141 0.369,-0.135 0.367,-0.128C0.37,-0.131 0.372,-0.134 0.374,-0.137C0.375,-0.14 0.377,-0.144 0.379,-0.148L0.384,-0.163L0.393,-0.18C0.394,-0.177 0.393,-0.174 0.39,-0.172C0.387,-0.169 0.386,-0.165 0.387,-0.162L0.387,-0.161C0.387,-0.16 0.387,-0.16 0.388,-0.16L0.407,-0.203L0.416,-0.221L0.421,-0.23L0.421,-0.231C0.421,-0.232 0.422,-0.233 0.423,-0.234L0.423,-0.235C0.423,-0.235 0.423,-0.235 0.424,-0.236C0.424,-0.237 0.424,-0.237 0.425,-0.238C0.425,-0.239 0.425,-0.239 0.425,-0.24C0.425,-0.24 0.425,-0.24 0.426,-0.241C0.426,-0.242 0.426,-0.242 0.427,-0.243C0.427,-0.243 0.427,-0.243 0.427,-0.244L0.429,-0.247L0.433,-0.256L0.435,-0.259L0.436,-0.26L0.439,-0.266C0.439,-0.267 0.439,-0.267 0.44,-0.267C0.44,-0.267 0.44,-0.267 0.44,-0.268C0.441,-0.271 0.442,-0.272 0.442,-0.273C0.445,-0.278 0.447,-0.284 0.449,-0.292C0.449,-0.293 0.449,-0.293 0.45,-0.294C0.45,-0.294 0.45,-0.294 0.45,-0.295L0.447,-0.288L0.444,-0.282L0.438,-0.269C0.437,-0.267 0.435,-0.264 0.434,-0.26L0.433,-0.259L0.433,-0.258L0.432,-0.259L0.432,-0.255C0.432,-0.254 0.432,-0.254 0.432,-0.254C0.431,-0.254 0.431,-0.254 0.431,-0.253L0.43,-0.252C0.429,-0.251 0.429,-0.251 0.429,-0.25C0.428,-0.25 0.428,-0.25 0.428,-0.249L0.428,-0.248ZM0.432,-0.259L0.432,-0.255C0.432,-0.254 0.432,-0.254 0.432,-0.254C0.431,-0.254 0.431,-0.254 0.431,-0.253L0.43,-0.252C0.429,-0.251 0.429,-0.251 0.429,-0.25C0.428,-0.25 0.428,-0.25 0.428,-0.249L0.428,-0.248C0.427,-0.249 0.426,-0.25 0.426,-0.25L0.424,-0.246C0.423,-0.243 0.421,-0.24 0.42,-0.239C0.42,-0.238 0.42,-0.238 0.419,-0.237L0.416,-0.231L0.408,-0.216L0.405,-0.206C0.404,-0.206 0.403,-0.206 0.403,-0.206C0.402,-0.207 0.401,-0.207 0.4,-0.207C0.398,-0.2 0.396,-0.194 0.394,-0.189C0.391,-0.183 0.388,-0.177 0.385,-0.171L0.381,-0.163C0.378,-0.158 0.376,-0.152 0.374,-0.147C0.371,-0.141 0.369,-0.135 0.367,-0.128C0.37,-0.131 0.372,-0.134 0.374,-0.137C0.375,-0.14 0.377,-0.144 0.379,-0.148L0.384,-0.163L0.393,-0.18C0.394,-0.177 0.393,-0.174 0.39,-0.172C0.387,-0.169 0.386,-0.165 0.387,-0.162L0.387,-0.161C0.387,-0.16 0.387,-0.16 0.388,-0.16L0.407,-0.203L0.416,-0.221L0.421,-0.23L0.421,-0.231C0.421,-0.232 0.422,-0.233 0.423,-0.234L0.423,-0.235C0.423,-0.235 0.423,-0.235 0.424,-0.236C0.424,-0.237 0.424,-0.237 0.425,-0.238C0.425,-0.239 0.425,-0.239 0.425,-0.24C0.425,-0.24 0.425,-0.24 0.426,-0.241C0.426,-0.242 0.426,-0.242 0.427,-0.243C0.427,-0.243 0.427,-0.243 0.427,-0.244L0.429,-0.247L0.433,-0.256L0.435,-0.259L0.436,-0.26L0.439,-0.266C0.439,-0.267 0.439,-0.267 0.44,-0.267C0.44,-0.267 0.44,-0.267 0.44,-0.268C0.441,-0.271 0.442,-0.272 0.442,-0.273C0.445,-0.278 0.447,-0.284 0.449,-0.292C0.449,-0.293 0.449,-0.293 0.45,-0.294C0.45,-0.294 0.45,-0.294 0.45,-0.295L0.447,-0.288L0.444,-0.282L0.438,-0.269C0.437,-0.267 0.435,-0.264 0.434,-0.26L0.433,-0.259L0.433,-0.258L0.432,-0.259ZM0.434,-0.326L0.433,-0.326C0.434,-0.327 0.434,-0.327 0.434,-0.327L0.434,-0.325C0.435,-0.326 0.435,-0.328 0.436,-0.329C0.437,-0.33 0.437,-0.332 0.438,-0.334L0.439,-0.335C0.439,-0.336 0.44,-0.337 0.441,-0.34C0.441,-0.341 0.441,-0.341 0.442,-0.342L0.445,-0.346C0.445,-0.347 0.445,-0.347 0.446,-0.348L0.448,-0.35L0.448,-0.349C0.447,-0.348 0.447,-0.347 0.447,-0.347L0.447,-0.346C0.447,-0.345 0.447,-0.345 0.447,-0.344C0.446,-0.344 0.446,-0.344 0.446,-0.343C0.445,-0.339 0.443,-0.335 0.441,-0.332C0.438,-0.328 0.436,-0.324 0.435,-0.32L0.434,-0.319L0.434,-0.317L0.433,-0.315L0.433,-0.313L0.431,-0.313L0.431,-0.312L0.43,-0.311L0.428,-0.311L0.428,-0.308C0.427,-0.308 0.427,-0.308 0.427,-0.307L0.427,-0.304C0.426,-0.303 0.426,-0.302 0.426,-0.301C0.426,-0.3 0.426,-0.3 0.425,-0.299L0.421,-0.291L0.42,-0.29L0.42,-0.289C0.419,-0.288 0.419,-0.288 0.419,-0.288L0.419,-0.287C0.418,-0.284 0.417,-0.283 0.417,-0.283L0.417,-0.282L0.416,-0.282L0.416,-0.291C0.416,-0.292 0.416,-0.292 0.417,-0.292C0.417,-0.291 0.417,-0.291 0.417,-0.292L0.417,-0.293L0.419,-0.297L0.419,-0.298L0.422,-0.304C0.422,-0.305 0.422,-0.305 0.423,-0.306C0.423,-0.307 0.423,-0.307 0.423,-0.308L0.423,-0.309C0.424,-0.31 0.424,-0.31 0.424,-0.311L0.424,-0.312L0.427,-0.312C0.429,-0.313 0.43,-0.314 0.43,-0.315C0.431,-0.315 0.431,-0.315 0.431,-0.316C0.432,-0.316 0.432,-0.316 0.432,-0.317L0.432,-0.318C0.432,-0.319 0.432,-0.319 0.433,-0.319C0.433,-0.319 0.433,-0.32 0.433,-0.321C0.434,-0.322 0.434,-0.322 0.434,-0.323L0.434,-0.324L0.433,-0.324L0.433,-0.325L0.434,-0.326ZM0.387,-0.223C0.39,-0.229 0.393,-0.235 0.395,-0.24L0.404,-0.26C0.403,-0.261 0.402,-0.261 0.401,-0.261L0.395,-0.246C0.392,-0.241 0.39,-0.236 0.388,-0.232C0.385,-0.228 0.383,-0.224 0.382,-0.219L0.382,-0.217C0.381,-0.216 0.381,-0.215 0.381,-0.213C0.381,-0.214 0.381,-0.214 0.382,-0.214C0.382,-0.214 0.382,-0.214 0.382,-0.215L0.387,-0.223ZM0.387,-0.223C0.39,-0.229 0.393,-0.235 0.395,-0.24L0.404,-0.26C0.403,-0.261 0.402,-0.261 0.401,-0.261L0.395,-0.246C0.392,-0.241 0.39,-0.236 0.388,-0.232C0.385,-0.228 0.383,-0.224 0.382,-0.219L0.382,-0.217C0.381,-0.216 0.381,-0.215 0.381,-0.213C0.381,-0.214 0.381,-0.214 0.382,-0.214C0.382,-0.214 0.382,-0.214 0.382,-0.215L0.387,-0.223ZM0.564,-0.516C0.564,-0.515 0.564,-0.515 0.563,-0.514L0.563,-0.511L0.559,-0.502C0.558,-0.502 0.558,-0.502 0.558,-0.501C0.557,-0.5 0.556,-0.499 0.556,-0.498L0.55,-0.488C0.549,-0.487 0.549,-0.486 0.549,-0.485C0.549,-0.484 0.549,-0.484 0.548,-0.483L0.548,-0.479L0.549,-0.479L0.555,-0.489L0.559,-0.497C0.559,-0.498 0.56,-0.499 0.561,-0.502L0.563,-0.509L0.563,-0.511C0.563,-0.512 0.563,-0.512 0.564,-0.512C0.564,-0.512 0.564,-0.512 0.564,-0.513L0.564,-0.516ZM0.563,-0.511L0.559,-0.502C0.558,-0.502 0.558,-0.502 0.558,-0.501C0.557,-0.5 0.556,-0.499 0.556,-0.498L0.55,-0.488C0.549,-0.487 0.549,-0.486 0.549,-0.485C0.549,-0.484 0.549,-0.484 0.548,-0.483L0.548,-0.479L0.549,-0.479L0.555,-0.489L0.559,-0.497C0.559,-0.498 0.56,-0.499 0.561,-0.502L0.563,-0.509L0.563,-0.511ZM0.456,-0.406C0.457,-0.406 0.457,-0.407 0.457,-0.408C0.458,-0.408 0.458,-0.406 0.458,-0.402C0.455,-0.403 0.453,-0.402 0.453,-0.398C0.452,-0.394 0.452,-0.391 0.451,-0.389C0.45,-0.389 0.449,-0.389 0.45,-0.39C0.451,-0.391 0.45,-0.391 0.449,-0.391C0.45,-0.394 0.452,-0.399 0.453,-0.404C0.454,-0.409 0.457,-0.413 0.46,-0.416C0.461,-0.415 0.46,-0.413 0.459,-0.412C0.458,-0.411 0.458,-0.41 0.459,-0.409C0.458,-0.409 0.457,-0.409 0.456,-0.408C0.455,-0.408 0.455,-0.407 0.456,-0.406ZM0.583,-0.589C0.583,-0.589 0.583,-0.59 0.584,-0.591L0.585,-0.592C0.585,-0.593 0.585,-0.593 0.586,-0.594C0.586,-0.594 0.586,-0.594 0.586,-0.595C0.587,-0.595 0.587,-0.595 0.587,-0.596C0.587,-0.597 0.587,-0.597 0.588,-0.598L0.588,-0.599L0.591,-0.608C0.59,-0.608 0.59,-0.608 0.59,-0.607L0.587,-0.604C0.585,-0.602 0.584,-0.6 0.584,-0.599L0.584,-0.598L0.583,-0.597L0.583,-0.589ZM0.591,-0.608C0.59,-0.608 0.59,-0.608 0.59,-0.607L0.587,-0.604C0.585,-0.602 0.584,-0.6 0.584,-0.599L0.584,-0.598L0.583,-0.597L0.583,-0.589C0.583,-0.589 0.583,-0.59 0.584,-0.591L0.585,-0.592C0.585,-0.593 0.585,-0.593 0.586,-0.594C0.586,-0.594 0.586,-0.594 0.586,-0.595C0.587,-0.595 0.587,-0.595 0.587,-0.596C0.587,-0.597 0.587,-0.597 0.588,-0.598L0.588,-0.599L0.591,-0.608ZM0.526,-0.568C0.526,-0.569 0.525,-0.57 0.524,-0.571L0.524,-0.573C0.524,-0.573 0.524,-0.573 0.525,-0.574L0.525,-0.571L0.526,-0.571C0.526,-0.571 0.526,-0.571 0.527,-0.572L0.527,-0.574C0.527,-0.574 0.527,-0.575 0.528,-0.576L0.526,-0.576L0.525,-0.575L0.525,-0.579L0.526,-0.581C0.526,-0.583 0.526,-0.585 0.527,-0.586L0.527,-0.587L0.53,-0.595C0.528,-0.594 0.526,-0.591 0.525,-0.586C0.524,-0.585 0.524,-0.583 0.524,-0.581L0.524,-0.573C0.524,-0.572 0.524,-0.572 0.524,-0.571C0.523,-0.57 0.523,-0.57 0.523,-0.569L0.524,-0.569C0.524,-0.568 0.524,-0.568 0.525,-0.568L0.525,-0.567L0.526,-0.567L0.526,-0.568ZM0.461,-0.417C0.462,-0.419 0.462,-0.422 0.463,-0.425C0.464,-0.428 0.465,-0.432 0.466,-0.435C0.467,-0.435 0.467,-0.434 0.467,-0.433C0.466,-0.432 0.467,-0.431 0.468,-0.432C0.467,-0.429 0.466,-0.426 0.465,-0.424C0.464,-0.421 0.462,-0.419 0.461,-0.417ZM0.54,-0.615C0.54,-0.616 0.54,-0.616 0.541,-0.616L0.541,-0.618L0.544,-0.627L0.544,-0.629C0.544,-0.63 0.544,-0.63 0.545,-0.63C0.545,-0.63 0.545,-0.63 0.545,-0.631L0.545,-0.634L0.544,-0.633L0.543,-0.633C0.543,-0.633 0.543,-0.633 0.542,-0.632L0.54,-0.62L0.538,-0.617L0.538,-0.616L0.539,-0.616C0.539,-0.615 0.539,-0.615 0.54,-0.614L0.54,-0.615ZM0.54,-0.615C0.54,-0.616 0.54,-0.616 0.541,-0.616L0.541,-0.618L0.544,-0.627L0.544,-0.629C0.544,-0.63 0.544,-0.63 0.545,-0.63C0.545,-0.63 0.545,-0.63 0.545,-0.631L0.545,-0.634L0.544,-0.633L0.543,-0.633C0.543,-0.633 0.543,-0.633 0.542,-0.632L0.54,-0.62L0.538,-0.617L0.538,-0.616L0.539,-0.616C0.539,-0.615 0.539,-0.615 0.54,-0.614L0.54,-0.615ZM0.525,-0.586C0.524,-0.585 0.524,-0.583 0.524,-0.581L0.524,-0.573C0.524,-0.573 0.524,-0.573 0.525,-0.574L0.525,-0.571L0.526,-0.571C0.526,-0.571 0.526,-0.571 0.527,-0.572L0.527,-0.574C0.527,-0.574 0.527,-0.575 0.528,-0.576L0.526,-0.576L0.525,-0.575L0.525,-0.579L0.526,-0.581C0.526,-0.583 0.526,-0.585 0.527,-0.586L0.527,-0.587L0.53,-0.595C0.528,-0.594 0.526,-0.591 0.525,-0.586ZM0.389,-0.21C0.388,-0.209 0.387,-0.208 0.387,-0.207L0.387,-0.206C0.384,-0.202 0.383,-0.199 0.382,-0.197C0.381,-0.196 0.381,-0.193 0.381,-0.19C0.381,-0.19 0.381,-0.19 0.382,-0.191C0.382,-0.192 0.383,-0.193 0.384,-0.194L0.388,-0.207C0.388,-0.207 0.388,-0.208 0.389,-0.209L0.389,-0.21ZM0.389,-0.21C0.388,-0.209 0.387,-0.208 0.387,-0.207L0.387,-0.206C0.384,-0.202 0.383,-0.199 0.382,-0.197C0.381,-0.196 0.381,-0.193 0.381,-0.19C0.381,-0.19 0.381,-0.19 0.382,-0.191C0.382,-0.192 0.383,-0.193 0.384,-0.194L0.388,-0.207C0.388,-0.207 0.388,-0.208 0.389,-0.209L0.389,-0.21ZM0.547,-0.589C0.547,-0.584 0.546,-0.58 0.545,-0.577C0.543,-0.574 0.542,-0.571 0.541,-0.567C0.54,-0.574 0.542,-0.582 0.547,-0.589ZM0.49,-0.355C0.491,-0.36 0.493,-0.365 0.495,-0.372C0.496,-0.379 0.498,-0.384 0.501,-0.387L0.49,-0.355ZM0.407,-0.273C0.407,-0.272 0.407,-0.27 0.406,-0.269C0.406,-0.267 0.406,-0.265 0.406,-0.264C0.406,-0.263 0.406,-0.263 0.405,-0.263L0.406,-0.263L0.409,-0.269L0.407,-0.269L0.407,-0.27C0.407,-0.271 0.408,-0.272 0.409,-0.273L0.41,-0.274C0.409,-0.273 0.409,-0.272 0.409,-0.271L0.409,-0.27L0.41,-0.27L0.41,-0.272L0.412,-0.274L0.412,-0.275C0.413,-0.276 0.413,-0.277 0.412,-0.279L0.412,-0.28C0.411,-0.279 0.411,-0.279 0.411,-0.278C0.41,-0.277 0.41,-0.277 0.409,-0.277L0.409,-0.278L0.407,-0.273ZM0.412,-0.28C0.411,-0.279 0.411,-0.279 0.411,-0.278C0.41,-0.277 0.41,-0.277 0.409,-0.277L0.409,-0.278L0.407,-0.273C0.407,-0.272 0.407,-0.27 0.406,-0.269C0.406,-0.267 0.406,-0.265 0.406,-0.264L0.406,-0.263L0.409,-0.269L0.407,-0.269L0.407,-0.27C0.407,-0.271 0.408,-0.272 0.409,-0.273L0.41,-0.274C0.409,-0.273 0.409,-0.272 0.409,-0.271L0.409,-0.27L0.41,-0.27L0.41,-0.272L0.412,-0.274L0.412,-0.275C0.413,-0.276 0.413,-0.277 0.412,-0.279L0.412,-0.28ZM0.471,-0.302C0.473,-0.305 0.475,-0.309 0.476,-0.312C0.477,-0.315 0.479,-0.318 0.48,-0.321C0.481,-0.318 0.481,-0.314 0.478,-0.311C0.475,-0.308 0.473,-0.305 0.471,-0.302ZM0.509,-0.544C0.51,-0.545 0.51,-0.547 0.509,-0.55C0.509,-0.553 0.511,-0.554 0.514,-0.554C0.514,-0.547 0.512,-0.544 0.509,-0.544ZM0.513,-0.497C0.512,-0.498 0.512,-0.5 0.514,-0.501C0.515,-0.503 0.516,-0.505 0.516,-0.508C0.517,-0.507 0.518,-0.505 0.517,-0.502C0.516,-0.499 0.516,-0.497 0.515,-0.495C0.514,-0.496 0.513,-0.497 0.514,-0.498C0.514,-0.499 0.514,-0.498 0.513,-0.497ZM0.42,-0.268C0.419,-0.269 0.419,-0.271 0.42,-0.273C0.421,-0.274 0.422,-0.275 0.423,-0.275C0.423,-0.276 0.424,-0.279 0.425,-0.281C0.426,-0.284 0.427,-0.286 0.43,-0.285C0.427,-0.283 0.425,-0.281 0.424,-0.278C0.423,-0.275 0.421,-0.271 0.42,-0.268ZM0.491,-0.39C0.492,-0.393 0.493,-0.397 0.494,-0.401C0.495,-0.405 0.496,-0.408 0.498,-0.411L0.491,-0.39ZM0.475,-0.456C0.476,-0.457 0.476,-0.46 0.476,-0.464C0.477,-0.467 0.477,-0.468 0.478,-0.465C0.478,-0.464 0.478,-0.463 0.477,-0.462C0.477,-0.461 0.477,-0.46 0.477,-0.459C0.476,-0.458 0.477,-0.457 0.478,-0.458C0.479,-0.458 0.48,-0.457 0.479,-0.456C0.478,-0.456 0.477,-0.456 0.477,-0.457C0.477,-0.457 0.476,-0.457 0.475,-0.456ZM0.475,-0.456C0.476,-0.453 0.475,-0.451 0.474,-0.45C0.473,-0.448 0.473,-0.446 0.473,-0.445C0.472,-0.446 0.471,-0.448 0.472,-0.451C0.473,-0.453 0.474,-0.455 0.475,-0.456ZM0.481,-0.409C0.48,-0.408 0.48,-0.408 0.48,-0.407L0.481,-0.407C0.483,-0.407 0.484,-0.409 0.484,-0.413C0.484,-0.413 0.484,-0.414 0.483,-0.415L0.481,-0.409ZM0.481,-0.409C0.48,-0.408 0.48,-0.408 0.48,-0.407L0.481,-0.407C0.483,-0.407 0.484,-0.409 0.484,-0.413C0.484,-0.413 0.484,-0.414 0.483,-0.415L0.481,-0.409ZM0.385,-0.27C0.384,-0.272 0.385,-0.274 0.386,-0.276C0.387,-0.277 0.387,-0.279 0.388,-0.28C0.388,-0.277 0.387,-0.274 0.385,-0.27ZM0.48,-0.473C0.48,-0.476 0.481,-0.48 0.483,-0.484C0.485,-0.487 0.487,-0.491 0.488,-0.494C0.487,-0.491 0.485,-0.487 0.484,-0.484C0.483,-0.481 0.481,-0.477 0.48,-0.473ZM0.552,-0.606C0.553,-0.607 0.554,-0.607 0.553,-0.606C0.552,-0.604 0.552,-0.603 0.553,-0.603C0.552,-0.602 0.551,-0.601 0.552,-0.6C0.553,-0.599 0.553,-0.598 0.552,-0.597C0.551,-0.598 0.55,-0.6 0.551,-0.602C0.551,-0.603 0.551,-0.605 0.552,-0.606ZM0.393,-0.215C0.394,-0.215 0.394,-0.215 0.395,-0.216L0.395,-0.217C0.395,-0.217 0.395,-0.217 0.396,-0.218L0.396,-0.222C0.394,-0.22 0.393,-0.218 0.393,-0.216L0.393,-0.215ZM0.395,-0.217C0.395,-0.217 0.395,-0.217 0.396,-0.218L0.396,-0.222C0.394,-0.22 0.393,-0.218 0.393,-0.216L0.393,-0.215C0.394,-0.215 0.394,-0.215 0.395,-0.216L0.395,-0.217ZM0.408,-0.316C0.409,-0.317 0.409,-0.318 0.41,-0.319C0.411,-0.32 0.411,-0.321 0.411,-0.322C0.412,-0.321 0.412,-0.32 0.411,-0.319C0.411,-0.318 0.411,-0.317 0.411,-0.316L0.408,-0.316ZM0.488,-0.467C0.489,-0.468 0.49,-0.47 0.493,-0.473C0.493,-0.472 0.493,-0.471 0.492,-0.469C0.491,-0.468 0.489,-0.467 0.488,-0.467ZM0.365,-0.215L0.364,-0.214C0.364,-0.214 0.364,-0.213 0.363,-0.212C0.363,-0.211 0.364,-0.211 0.365,-0.211C0.366,-0.212 0.367,-0.213 0.366,-0.214L0.366,-0.215L0.365,-0.215ZM0.365,-0.215L0.364,-0.214C0.364,-0.214 0.364,-0.213 0.363,-0.212C0.363,-0.211 0.364,-0.211 0.365,-0.211C0.366,-0.212 0.367,-0.213 0.366,-0.214L0.366,-0.215L0.365,-0.215ZM0.47,-0.452C0.469,-0.453 0.469,-0.455 0.47,-0.457C0.471,-0.458 0.472,-0.46 0.472,-0.461C0.473,-0.46 0.473,-0.458 0.472,-0.457C0.471,-0.456 0.471,-0.454 0.47,-0.452ZM0.432,-0.365C0.431,-0.366 0.432,-0.368 0.433,-0.37C0.434,-0.371 0.435,-0.373 0.435,-0.375C0.436,-0.374 0.436,-0.372 0.435,-0.371C0.434,-0.369 0.433,-0.367 0.432,-0.365ZM0.012,0.005C0.013,0.006 0.014,0.008 0.013,0.009C0.012,0.01 0.012,0.012 0.012,0.014C0.011,0.011 0.011,0.008 0.012,0.005ZM0.461,-0.43C0.46,-0.431 0.461,-0.433 0.462,-0.434C0.463,-0.435 0.463,-0.437 0.463,-0.44C0.464,-0.437 0.465,-0.435 0.464,-0.434C0.463,-0.433 0.462,-0.431 0.461,-0.43ZM0.37,-0.225C0.37,-0.224 0.37,-0.224 0.37,-0.223C0.369,-0.222 0.369,-0.221 0.369,-0.22L0.37,-0.22L0.37,-0.221C0.37,-0.222 0.371,-0.223 0.372,-0.223L0.372,-0.224L0.371,-0.225L0.37,-0.225ZM0.37,-0.225C0.37,-0.224 0.37,-0.224 0.37,-0.223C0.369,-0.222 0.369,-0.221 0.369,-0.22L0.37,-0.22L0.37,-0.221C0.37,-0.222 0.371,-0.223 0.372,-0.223L0.372,-0.224L0.371,-0.225L0.37,-0.225ZM0.389,-0.28C0.388,-0.281 0.388,-0.282 0.389,-0.282C0.39,-0.283 0.391,-0.284 0.392,-0.285C0.393,-0.284 0.393,-0.284 0.392,-0.283C0.39,-0.282 0.389,-0.281 0.389,-0.28ZM0.591,-0.583C0.592,-0.583 0.593,-0.584 0.594,-0.586L0.594,-0.588L0.593,-0.589L0.593,-0.586C0.592,-0.585 0.591,-0.584 0.591,-0.583ZM0.593,-0.586C0.592,-0.585 0.591,-0.584 0.591,-0.583C0.592,-0.583 0.593,-0.584 0.594,-0.586L0.594,-0.588L0.593,-0.589L0.593,-0.586ZM0.464,-0.44C0.464,-0.441 0.465,-0.443 0.466,-0.444C0.467,-0.445 0.467,-0.447 0.467,-0.448C0.468,-0.446 0.467,-0.443 0.464,-0.44ZM0.53,-0.584C0.53,-0.585 0.531,-0.586 0.532,-0.589L0.532,-0.59C0.532,-0.59 0.532,-0.59 0.531,-0.591C0.531,-0.589 0.53,-0.587 0.529,-0.584L0.529,-0.583L0.53,-0.583L0.53,-0.584ZM0.531,-0.591C0.531,-0.589 0.53,-0.587 0.529,-0.584L0.529,-0.583L0.53,-0.583L0.53,-0.584C0.53,-0.585 0.531,-0.586 0.532,-0.589L0.532,-0.59C0.532,-0.59 0.532,-0.59 0.531,-0.591ZM0.511,-0.472C0.511,-0.471 0.511,-0.471 0.51,-0.471C0.51,-0.471 0.51,-0.471 0.51,-0.47C0.51,-0.47 0.51,-0.47 0.509,-0.469L0.511,-0.469L0.512,-0.47L0.512,-0.472L0.511,-0.472L0.511,-0.473L0.511,-0.472ZM0.511,-0.472C0.511,-0.471 0.511,-0.471 0.51,-0.471C0.51,-0.471 0.51,-0.471 0.51,-0.47C0.51,-0.47 0.51,-0.47 0.509,-0.469L0.511,-0.469L0.512,-0.47L0.512,-0.472L0.511,-0.472L0.511,-0.473L0.511,-0.472ZM0.505,-0.368C0.504,-0.368 0.503,-0.369 0.504,-0.37C0.505,-0.371 0.505,-0.372 0.505,-0.373C0.506,-0.372 0.506,-0.372 0.505,-0.371C0.504,-0.37 0.504,-0.369 0.505,-0.368ZM0.524,-0.569C0.524,-0.568 0.524,-0.568 0.525,-0.568L0.525,-0.567L0.526,-0.567L0.526,-0.568C0.526,-0.569 0.525,-0.57 0.524,-0.571L0.524,-0.573C0.524,-0.572 0.524,-0.572 0.524,-0.571C0.523,-0.57 0.523,-0.57 0.523,-0.569L0.524,-0.569ZM0.384,-0.158C0.384,-0.157 0.383,-0.156 0.382,-0.155L0.382,-0.154L0.383,-0.154L0.383,-0.155L0.384,-0.155C0.384,-0.155 0.384,-0.155 0.385,-0.156L0.385,-0.157L0.384,-0.157L0.384,-0.158ZM0.383,-0.155L0.384,-0.155C0.384,-0.155 0.384,-0.155 0.385,-0.156L0.385,-0.157L0.384,-0.157L0.384,-0.158C0.384,-0.157 0.383,-0.156 0.382,-0.155L0.382,-0.154L0.383,-0.154L0.383,-0.155ZM0.528,-0.495C0.528,-0.497 0.528,-0.498 0.529,-0.499L0.529,-0.5C0.528,-0.5 0.528,-0.5 0.528,-0.499C0.527,-0.499 0.527,-0.499 0.527,-0.498L0.527,-0.496L0.528,-0.495ZM0.528,-0.495C0.528,-0.497 0.528,-0.498 0.529,-0.499L0.529,-0.5C0.528,-0.5 0.528,-0.5 0.528,-0.499C0.527,-0.499 0.527,-0.499 0.527,-0.498L0.527,-0.496L0.528,-0.495ZM0.397,-0.286C0.396,-0.286 0.396,-0.286 0.396,-0.285C0.396,-0.286 0.397,-0.288 0.398,-0.29C0.399,-0.291 0.398,-0.29 0.397,-0.286ZM0.428,-0.357C0.427,-0.358 0.427,-0.36 0.429,-0.361C0.43,-0.362 0.431,-0.363 0.431,-0.364C0.432,-0.363 0.432,-0.362 0.43,-0.361C0.428,-0.36 0.427,-0.358 0.428,-0.357ZM0.564,-0.516C0.564,-0.515 0.564,-0.515 0.563,-0.514L0.563,-0.511C0.563,-0.512 0.563,-0.512 0.564,-0.512C0.564,-0.512 0.564,-0.512 0.564,-0.513L0.564,-0.516ZM0.508,-0.374C0.506,-0.374 0.506,-0.375 0.508,-0.377L0.508,-0.374ZM0.459,-0.428C0.459,-0.425 0.458,-0.423 0.456,-0.421C0.459,-0.424 0.46,-0.426 0.459,-0.428ZM0.454,-0.416C0.454,-0.417 0.455,-0.418 0.456,-0.421C0.455,-0.418 0.454,-0.417 0.454,-0.416ZM0.515,-0.56C0.514,-0.557 0.513,-0.556 0.513,-0.555C0.513,-0.557 0.514,-0.559 0.515,-0.56ZM0.504,-0.445L0.504,-0.448L0.504,-0.445ZM0.489,-0.491L0.489,-0.489L0.489,-0.491ZM0.423,-0.309C0.423,-0.309 0.423,-0.31 0.424,-0.311C0.424,-0.31 0.424,-0.31 0.423,-0.309Z" style="fill:rgb(255,207,78);fill-rule:nonzero;"/>
        </g>
        <g transform="matrix(114.222,0,0,114.222,511.909,564.151)">
            <path d="M0.044,0.166C0.042,0.171 0.042,0.176 0.045,0.181C0.048,0.186 0.047,0.191 0.044,0.195C0.047,0.196 0.049,0.198 0.049,0.201C0.049,0.204 0.05,0.206 0.051,0.207C0.053,0.207 0.055,0.207 0.056,0.206C0.057,0.206 0.059,0.206 0.06,0.207C0.057,0.21 0.056,0.213 0.057,0.216C0.055,0.216 0.054,0.216 0.053,0.215C0.052,0.215 0.051,0.215 0.05,0.215C0.049,0.215 0.049,0.215 0.048,0.216C0.047,0.217 0.048,0.217 0.049,0.218C0.042,0.217 0.036,0.214 0.031,0.21C0.026,0.207 0.022,0.203 0.018,0.2C0.017,0.197 0.016,0.194 0.015,0.191C0.013,0.188 0.011,0.185 0.009,0.182C0.012,0.179 0.012,0.175 0.011,0.172C0.01,0.169 0.008,0.165 0.007,0.162C0.01,0.142 0.014,0.122 0.017,0.103C0.02,0.084 0.025,0.063 0.032,0.04C0.035,0.029 0.038,0.018 0.042,0.006C0.046,-0.006 0.05,-0.019 0.054,-0.032C0.055,-0.034 0.055,-0.036 0.055,-0.039C0.055,-0.041 0.056,-0.044 0.058,-0.047C0.059,-0.048 0.06,-0.049 0.061,-0.05C0.062,-0.051 0.061,-0.052 0.06,-0.054L0.063,-0.054C0.063,-0.055 0.063,-0.056 0.062,-0.057C0.061,-0.057 0.06,-0.058 0.06,-0.059L0.096,-0.177C0.096,-0.178 0.097,-0.179 0.099,-0.178C0.1,-0.177 0.101,-0.178 0.102,-0.179C0.103,-0.18 0.103,-0.181 0.102,-0.181C0.1,-0.18 0.099,-0.181 0.099,-0.182C0.102,-0.197 0.108,-0.214 0.115,-0.232C0.122,-0.25 0.129,-0.267 0.134,-0.282C0.136,-0.286 0.138,-0.29 0.14,-0.295C0.141,-0.299 0.143,-0.303 0.144,-0.308C0.145,-0.309 0.146,-0.31 0.146,-0.31L0.145,-0.31C0.149,-0.325 0.155,-0.342 0.162,-0.359C0.169,-0.376 0.174,-0.388 0.177,-0.396C0.183,-0.411 0.19,-0.424 0.197,-0.436C0.198,-0.437 0.198,-0.439 0.198,-0.441C0.197,-0.442 0.197,-0.444 0.197,-0.445C0.197,-0.446 0.197,-0.446 0.198,-0.446C0.199,-0.446 0.2,-0.446 0.2,-0.447C0.203,-0.452 0.205,-0.459 0.206,-0.466C0.211,-0.471 0.214,-0.477 0.215,-0.485C0.216,-0.492 0.22,-0.499 0.227,-0.504C0.228,-0.509 0.229,-0.513 0.23,-0.516C0.231,-0.519 0.232,-0.521 0.233,-0.524C0.236,-0.529 0.239,-0.535 0.241,-0.541C0.242,-0.546 0.245,-0.552 0.248,-0.557C0.251,-0.565 0.255,-0.573 0.26,-0.58C0.265,-0.587 0.268,-0.594 0.269,-0.601C0.27,-0.602 0.271,-0.604 0.271,-0.605L0.271,-0.609C0.273,-0.618 0.277,-0.626 0.283,-0.634C0.289,-0.642 0.293,-0.651 0.294,-0.66L0.291,-0.658C0.291,-0.66 0.291,-0.662 0.292,-0.664C0.293,-0.665 0.293,-0.667 0.293,-0.67C0.293,-0.671 0.294,-0.672 0.296,-0.674C0.301,-0.678 0.305,-0.682 0.309,-0.685C0.312,-0.688 0.316,-0.692 0.319,-0.696C0.32,-0.696 0.322,-0.696 0.323,-0.695C0.324,-0.694 0.325,-0.694 0.326,-0.694C0.331,-0.691 0.336,-0.688 0.341,-0.686C0.346,-0.684 0.352,-0.682 0.359,-0.681L0.36,-0.681L0.362,-0.679C0.363,-0.678 0.363,-0.677 0.364,-0.676C0.364,-0.675 0.365,-0.673 0.366,-0.672C0.368,-0.665 0.367,-0.658 0.364,-0.649C0.363,-0.644 0.362,-0.639 0.361,-0.634C0.36,-0.63 0.359,-0.625 0.356,-0.62C0.354,-0.615 0.351,-0.61 0.347,-0.606C0.344,-0.602 0.341,-0.597 0.34,-0.592C0.34,-0.59 0.34,-0.588 0.341,-0.587C0.341,-0.585 0.341,-0.583 0.34,-0.582C0.339,-0.577 0.336,-0.572 0.333,-0.567C0.329,-0.562 0.325,-0.556 0.322,-0.551C0.32,-0.546 0.318,-0.54 0.317,-0.535C0.316,-0.529 0.314,-0.523 0.311,-0.518C0.308,-0.513 0.305,-0.508 0.302,-0.504C0.299,-0.501 0.296,-0.496 0.291,-0.491L0.231,-0.35C0.232,-0.348 0.231,-0.347 0.23,-0.346C0.228,-0.345 0.228,-0.344 0.23,-0.343C0.229,-0.342 0.228,-0.341 0.226,-0.341C0.226,-0.337 0.225,-0.334 0.224,-0.332C0.222,-0.329 0.22,-0.327 0.218,-0.325C0.217,-0.324 0.218,-0.323 0.22,-0.322C0.221,-0.321 0.221,-0.319 0.22,-0.318C0.216,-0.317 0.214,-0.312 0.213,-0.304C0.212,-0.296 0.209,-0.289 0.204,-0.283C0.202,-0.283 0.2,-0.283 0.199,-0.284C0.198,-0.285 0.198,-0.287 0.199,-0.288C0.198,-0.289 0.197,-0.29 0.196,-0.289C0.195,-0.288 0.194,-0.287 0.192,-0.288C0.191,-0.287 0.191,-0.286 0.192,-0.285C0.192,-0.284 0.191,-0.284 0.19,-0.283L0.193,-0.283C0.192,-0.282 0.191,-0.281 0.19,-0.281C0.189,-0.28 0.19,-0.279 0.192,-0.277C0.193,-0.278 0.195,-0.278 0.196,-0.279C0.197,-0.279 0.198,-0.28 0.198,-0.283C0.199,-0.283 0.2,-0.283 0.201,-0.282C0.201,-0.282 0.202,-0.282 0.203,-0.282C0.202,-0.279 0.202,-0.276 0.201,-0.274C0.2,-0.271 0.2,-0.269 0.2,-0.267C0.199,-0.267 0.197,-0.266 0.195,-0.264C0.192,-0.262 0.19,-0.262 0.187,-0.263C0.192,-0.266 0.194,-0.271 0.192,-0.276C0.19,-0.277 0.189,-0.277 0.189,-0.276C0.188,-0.275 0.187,-0.274 0.186,-0.275C0.188,-0.274 0.189,-0.273 0.188,-0.272C0.187,-0.271 0.188,-0.27 0.189,-0.267C0.188,-0.266 0.186,-0.265 0.183,-0.265C0.18,-0.264 0.178,-0.263 0.177,-0.26C0.177,-0.259 0.178,-0.259 0.179,-0.26C0.18,-0.26 0.182,-0.259 0.183,-0.258C0.184,-0.258 0.186,-0.259 0.188,-0.261C0.187,-0.26 0.187,-0.258 0.186,-0.256C0.185,-0.254 0.184,-0.251 0.184,-0.248C0.186,-0.248 0.187,-0.249 0.186,-0.251C0.189,-0.249 0.19,-0.247 0.187,-0.246C0.184,-0.244 0.182,-0.243 0.179,-0.244C0.179,-0.243 0.18,-0.242 0.181,-0.243C0.182,-0.243 0.183,-0.243 0.184,-0.242C0.183,-0.241 0.181,-0.24 0.178,-0.24C0.179,-0.237 0.177,-0.233 0.172,-0.229C0.167,-0.225 0.165,-0.221 0.165,-0.216C0.165,-0.215 0.166,-0.216 0.168,-0.218C0.169,-0.219 0.17,-0.221 0.17,-0.223C0.171,-0.224 0.172,-0.224 0.173,-0.224C0.174,-0.223 0.175,-0.223 0.177,-0.222C0.178,-0.223 0.18,-0.226 0.182,-0.229C0.184,-0.232 0.185,-0.234 0.186,-0.236C0.187,-0.233 0.188,-0.232 0.188,-0.232L0.183,-0.224C0.18,-0.221 0.179,-0.219 0.18,-0.216C0.18,-0.213 0.178,-0.21 0.173,-0.209C0.176,-0.214 0.177,-0.218 0.177,-0.221C0.174,-0.22 0.173,-0.219 0.172,-0.217C0.172,-0.215 0.171,-0.213 0.17,-0.212C0.167,-0.212 0.165,-0.211 0.163,-0.209C0.163,-0.208 0.163,-0.207 0.164,-0.206C0.165,-0.205 0.165,-0.204 0.165,-0.203C0.168,-0.202 0.169,-0.202 0.169,-0.203C0.168,-0.205 0.169,-0.205 0.171,-0.204C0.17,-0.201 0.169,-0.199 0.166,-0.199C0.163,-0.198 0.16,-0.198 0.158,-0.198C0.156,-0.197 0.156,-0.196 0.158,-0.197C0.16,-0.197 0.16,-0.196 0.159,-0.195C0.156,-0.196 0.155,-0.196 0.155,-0.195C0.154,-0.194 0.153,-0.195 0.152,-0.196L0.146,-0.188C0.149,-0.187 0.151,-0.188 0.152,-0.189C0.153,-0.19 0.155,-0.191 0.158,-0.19C0.155,-0.187 0.153,-0.184 0.152,-0.181C0.149,-0.182 0.149,-0.182 0.151,-0.183C0.152,-0.184 0.152,-0.185 0.151,-0.186C0.15,-0.187 0.149,-0.187 0.149,-0.186C0.148,-0.185 0.147,-0.185 0.146,-0.186C0.145,-0.185 0.145,-0.184 0.146,-0.183C0.147,-0.182 0.146,-0.181 0.144,-0.181C0.144,-0.18 0.145,-0.179 0.146,-0.179L0.15,-0.179C0.15,-0.176 0.149,-0.173 0.147,-0.172C0.144,-0.172 0.142,-0.169 0.141,-0.166C0.142,-0.165 0.143,-0.165 0.144,-0.165C0.145,-0.164 0.146,-0.164 0.148,-0.164C0.147,-0.163 0.145,-0.163 0.142,-0.162C0.14,-0.161 0.139,-0.158 0.139,-0.154C0.138,-0.153 0.138,-0.152 0.139,-0.152C0.14,-0.152 0.141,-0.151 0.141,-0.15C0.136,-0.143 0.132,-0.137 0.131,-0.132C0.13,-0.127 0.127,-0.121 0.123,-0.114C0.123,-0.113 0.124,-0.113 0.127,-0.113C0.122,-0.106 0.118,-0.097 0.116,-0.086C0.113,-0.075 0.108,-0.065 0.102,-0.056C0.102,-0.055 0.103,-0.054 0.105,-0.055C0.106,-0.056 0.108,-0.056 0.109,-0.055C0.108,-0.054 0.106,-0.051 0.103,-0.047C0.1,-0.042 0.1,-0.039 0.101,-0.038C0.099,-0.037 0.098,-0.035 0.097,-0.032C0.096,-0.029 0.096,-0.027 0.096,-0.024C0.096,-0.021 0.096,-0.018 0.095,-0.015C0.094,-0.012 0.093,-0.01 0.09,-0.009C0.089,-0.008 0.088,-0.007 0.089,-0.008C0.089,-0.008 0.09,-0.008 0.092,-0.008C0.089,-0.005 0.087,-0.002 0.087,0.001C0.088,0.004 0.086,0.007 0.083,0.01C0.082,0.011 0.083,0.012 0.085,0.013C0.086,0.014 0.088,0.016 0.089,0.017C0.086,0.016 0.085,0.016 0.085,0.017C0.084,0.018 0.085,0.019 0.087,0.019C0.084,0.02 0.082,0.023 0.081,0.027C0.08,0.031 0.079,0.035 0.078,0.04C0.078,0.041 0.078,0.042 0.079,0.041C0.08,0.04 0.08,0.04 0.081,0.04C0.079,0.042 0.079,0.043 0.082,0.043C0.081,0.044 0.08,0.046 0.08,0.047C0.08,0.048 0.078,0.049 0.075,0.048C0.075,0.049 0.076,0.05 0.077,0.05C0.078,0.05 0.078,0.05 0.079,0.051C0.075,0.054 0.072,0.057 0.071,0.062C0.07,0.067 0.068,0.07 0.067,0.073C0.064,0.072 0.063,0.071 0.065,0.07C0.067,0.069 0.067,0.069 0.066,0.068C0.063,0.069 0.062,0.07 0.062,0.071C0.061,0.073 0.06,0.074 0.058,0.073C0.058,0.072 0.059,0.072 0.06,0.072C0.06,0.071 0.059,0.07 0.059,0.07C0.058,0.071 0.057,0.071 0.056,0.07C0.057,0.069 0.057,0.067 0.057,0.063C0.056,0.063 0.055,0.064 0.056,0.065C0.056,0.066 0.056,0.068 0.056,0.069C0.055,0.069 0.053,0.069 0.052,0.069C0.051,0.07 0.05,0.071 0.05,0.072C0.052,0.073 0.053,0.072 0.054,0.07C0.056,0.072 0.057,0.073 0.056,0.074C0.055,0.075 0.055,0.077 0.056,0.079C0.057,0.08 0.06,0.079 0.064,0.078C0.067,0.077 0.071,0.078 0.074,0.079C0.073,0.08 0.071,0.082 0.07,0.085C0.069,0.088 0.066,0.088 0.061,0.087C0.062,0.09 0.062,0.093 0.061,0.095C0.06,0.097 0.059,0.1 0.058,0.103C0.059,0.104 0.06,0.104 0.061,0.103C0.062,0.102 0.063,0.101 0.064,0.102C0.067,0.103 0.068,0.105 0.065,0.106C0.062,0.108 0.063,0.11 0.066,0.112C0.062,0.111 0.059,0.111 0.058,0.112C0.057,0.113 0.056,0.115 0.056,0.117L0.056,0.123C0.056,0.126 0.055,0.128 0.054,0.129C0.052,0.13 0.051,0.129 0.053,0.127C0.054,0.126 0.053,0.125 0.05,0.125C0.049,0.126 0.049,0.128 0.048,0.129C0.047,0.13 0.046,0.13 0.044,0.129C0.043,0.13 0.043,0.131 0.044,0.131C0.045,0.131 0.045,0.131 0.044,0.132C0.045,0.133 0.046,0.133 0.047,0.132C0.048,0.131 0.048,0.131 0.049,0.132C0.048,0.134 0.048,0.135 0.047,0.134C0.046,0.134 0.044,0.134 0.042,0.133C0.042,0.137 0.043,0.142 0.044,0.147C0.045,0.152 0.047,0.155 0.048,0.154L0.044,0.166ZM0.079,-0.092C0.078,-0.092 0.076,-0.092 0.075,-0.093C0.074,-0.093 0.073,-0.092 0.074,-0.091C0.074,-0.09 0.074,-0.09 0.075,-0.09C0.076,-0.089 0.077,-0.09 0.078,-0.091C0.079,-0.092 0.08,-0.092 0.081,-0.091C0.081,-0.092 0.082,-0.093 0.083,-0.096L0.087,-0.111L0.091,-0.12L0.092,-0.121C0.089,-0.121 0.086,-0.12 0.085,-0.119L0.082,-0.116C0.081,-0.116 0.081,-0.116 0.081,-0.115L0.079,-0.112C0.079,-0.111 0.079,-0.111 0.079,-0.111C0.078,-0.11 0.078,-0.11 0.078,-0.109L0.078,-0.108L0.083,-0.105L0.083,-0.104C0.082,-0.104 0.081,-0.103 0.081,-0.102C0.08,-0.101 0.08,-0.101 0.081,-0.1C0.081,-0.099 0.081,-0.097 0.08,-0.096L0.08,-0.094C0.08,-0.093 0.08,-0.093 0.079,-0.092ZM0.167,-0.188C0.165,-0.188 0.165,-0.189 0.166,-0.19C0.164,-0.189 0.164,-0.189 0.165,-0.189C0.166,-0.188 0.166,-0.187 0.165,-0.186C0.162,-0.187 0.16,-0.186 0.16,-0.185C0.16,-0.183 0.159,-0.181 0.158,-0.178C0.159,-0.179 0.16,-0.179 0.161,-0.18C0.161,-0.181 0.161,-0.181 0.162,-0.182C0.163,-0.181 0.164,-0.18 0.165,-0.181C0.166,-0.182 0.167,-0.182 0.168,-0.181C0.168,-0.18 0.166,-0.18 0.163,-0.18C0.163,-0.179 0.163,-0.178 0.164,-0.178C0.162,-0.177 0.161,-0.176 0.16,-0.173C0.159,-0.174 0.159,-0.174 0.159,-0.175C0.159,-0.177 0.158,-0.177 0.157,-0.177L0.155,-0.175C0.154,-0.174 0.154,-0.173 0.155,-0.173C0.152,-0.172 0.151,-0.173 0.154,-0.179C0.157,-0.184 0.159,-0.186 0.162,-0.187C0.161,-0.19 0.162,-0.193 0.166,-0.195C0.17,-0.197 0.174,-0.198 0.177,-0.199C0.178,-0.198 0.177,-0.197 0.175,-0.196C0.173,-0.195 0.172,-0.193 0.173,-0.19C0.172,-0.191 0.171,-0.192 0.171,-0.193C0.17,-0.193 0.168,-0.193 0.165,-0.192C0.166,-0.191 0.167,-0.19 0.168,-0.19C0.169,-0.19 0.169,-0.189 0.167,-0.188ZM0.135,-0.139C0.136,-0.138 0.138,-0.139 0.14,-0.14C0.141,-0.141 0.143,-0.142 0.145,-0.143C0.146,-0.144 0.145,-0.145 0.144,-0.143C0.143,-0.142 0.142,-0.143 0.141,-0.144C0.143,-0.146 0.144,-0.148 0.145,-0.151C0.145,-0.153 0.146,-0.155 0.148,-0.157C0.149,-0.156 0.15,-0.156 0.151,-0.157C0.152,-0.158 0.153,-0.158 0.154,-0.157C0.154,-0.156 0.154,-0.155 0.154,-0.155C0.153,-0.154 0.153,-0.153 0.152,-0.152C0.151,-0.152 0.151,-0.153 0.152,-0.154C0.153,-0.155 0.152,-0.155 0.151,-0.155C0.148,-0.154 0.147,-0.152 0.147,-0.15C0.147,-0.148 0.148,-0.147 0.151,-0.146C0.15,-0.145 0.149,-0.144 0.148,-0.143C0.147,-0.143 0.146,-0.142 0.147,-0.14C0.146,-0.139 0.145,-0.139 0.142,-0.14C0.142,-0.139 0.141,-0.138 0.14,-0.137C0.139,-0.136 0.139,-0.135 0.141,-0.134C0.141,-0.133 0.139,-0.133 0.134,-0.133C0.137,-0.134 0.139,-0.135 0.139,-0.136C0.138,-0.137 0.137,-0.138 0.135,-0.139ZM0.174,-0.244L0.172,-0.245L0.169,-0.242L0.169,-0.24C0.168,-0.239 0.168,-0.239 0.168,-0.238C0.167,-0.237 0.167,-0.237 0.167,-0.236L0.167,-0.235L0.164,-0.228L0.165,-0.228C0.166,-0.227 0.166,-0.227 0.166,-0.226L0.17,-0.23C0.171,-0.231 0.173,-0.233 0.174,-0.236L0.174,-0.237L0.175,-0.237L0.175,-0.238C0.175,-0.238 0.175,-0.239 0.176,-0.24C0.176,-0.241 0.176,-0.243 0.177,-0.244L0.174,-0.244ZM0.174,-0.244C0.173,-0.244 0.173,-0.244 0.172,-0.245L0.169,-0.242L0.169,-0.24C0.168,-0.239 0.168,-0.239 0.168,-0.238C0.167,-0.237 0.167,-0.237 0.167,-0.236L0.167,-0.235L0.164,-0.228L0.165,-0.228C0.166,-0.227 0.166,-0.227 0.166,-0.226L0.17,-0.23C0.171,-0.231 0.173,-0.233 0.174,-0.236L0.174,-0.237L0.175,-0.237L0.175,-0.238C0.175,-0.238 0.175,-0.239 0.176,-0.24C0.176,-0.241 0.176,-0.243 0.177,-0.244L0.174,-0.244ZM0.075,-0.08L0.074,-0.079L0.072,-0.075L0.072,-0.068C0.072,-0.068 0.072,-0.068 0.073,-0.067C0.072,-0.067 0.071,-0.067 0.071,-0.067C0.071,-0.066 0.071,-0.066 0.07,-0.066L0.068,-0.066C0.068,-0.066 0.068,-0.066 0.067,-0.067C0.066,-0.066 0.065,-0.065 0.066,-0.065L0.066,-0.064L0.069,-0.064L0.069,-0.063L0.065,-0.063L0.061,-0.061C0.061,-0.061 0.061,-0.061 0.062,-0.06C0.064,-0.06 0.065,-0.06 0.066,-0.061C0.067,-0.061 0.069,-0.062 0.072,-0.063L0.073,-0.063C0.073,-0.063 0.074,-0.063 0.075,-0.064L0.076,-0.064L0.076,-0.065C0.077,-0.066 0.077,-0.068 0.077,-0.069C0.076,-0.07 0.076,-0.071 0.077,-0.072C0.077,-0.073 0.077,-0.073 0.078,-0.073C0.078,-0.073 0.078,-0.073 0.078,-0.074C0.077,-0.074 0.077,-0.074 0.077,-0.074C0.076,-0.073 0.076,-0.073 0.075,-0.073C0.074,-0.073 0.074,-0.073 0.074,-0.074L0.073,-0.074L0.073,-0.075L0.074,-0.075C0.075,-0.076 0.075,-0.077 0.075,-0.079C0.075,-0.079 0.075,-0.079 0.076,-0.08L0.075,-0.08ZM0.075,-0.08L0.074,-0.079L0.072,-0.075L0.072,-0.068C0.072,-0.068 0.072,-0.068 0.073,-0.067L0.074,-0.067L0.073,-0.067C0.072,-0.067 0.072,-0.067 0.071,-0.067C0.071,-0.066 0.071,-0.066 0.07,-0.066L0.068,-0.066C0.068,-0.066 0.068,-0.066 0.067,-0.067C0.066,-0.066 0.065,-0.065 0.066,-0.065L0.066,-0.064L0.069,-0.064L0.069,-0.063L0.065,-0.063L0.061,-0.061C0.061,-0.061 0.061,-0.061 0.062,-0.06C0.064,-0.06 0.065,-0.06 0.066,-0.061C0.067,-0.061 0.069,-0.062 0.072,-0.063L0.073,-0.063C0.073,-0.063 0.074,-0.063 0.075,-0.064L0.076,-0.064L0.076,-0.065C0.077,-0.066 0.077,-0.068 0.077,-0.069C0.076,-0.07 0.076,-0.071 0.077,-0.072C0.077,-0.073 0.077,-0.073 0.078,-0.073C0.078,-0.073 0.078,-0.073 0.078,-0.074C0.077,-0.074 0.077,-0.074 0.077,-0.074C0.076,-0.073 0.076,-0.073 0.075,-0.073C0.074,-0.073 0.074,-0.073 0.074,-0.074L0.073,-0.074L0.073,-0.075L0.074,-0.075C0.075,-0.076 0.075,-0.077 0.075,-0.079C0.075,-0.079 0.075,-0.079 0.076,-0.08L0.075,-0.08ZM0.087,-0.061C0.086,-0.06 0.086,-0.06 0.086,-0.059C0.085,-0.056 0.084,-0.054 0.084,-0.053C0.083,-0.053 0.083,-0.053 0.083,-0.052L0.083,-0.051C0.083,-0.05 0.083,-0.05 0.082,-0.049L0.082,-0.047C0.082,-0.046 0.082,-0.046 0.081,-0.045L0.081,-0.043L0.078,-0.033L0.078,-0.032C0.078,-0.033 0.078,-0.033 0.079,-0.033C0.079,-0.033 0.079,-0.033 0.079,-0.034L0.084,-0.043L0.084,-0.044C0.084,-0.045 0.084,-0.045 0.085,-0.046L0.085,-0.047L0.087,-0.052L0.087,-0.053C0.087,-0.054 0.087,-0.054 0.087,-0.055C0.088,-0.056 0.088,-0.056 0.088,-0.057L0.088,-0.062L0.087,-0.061ZM0.087,-0.061C0.086,-0.06 0.086,-0.06 0.086,-0.059C0.085,-0.056 0.084,-0.054 0.084,-0.053C0.083,-0.053 0.083,-0.053 0.083,-0.052L0.083,-0.051C0.083,-0.05 0.083,-0.05 0.082,-0.049L0.082,-0.047C0.082,-0.046 0.082,-0.046 0.081,-0.045L0.081,-0.043L0.078,-0.033L0.078,-0.032C0.078,-0.033 0.078,-0.033 0.079,-0.033C0.079,-0.033 0.079,-0.033 0.079,-0.034L0.084,-0.043L0.084,-0.044C0.084,-0.045 0.084,-0.045 0.085,-0.046L0.085,-0.047L0.087,-0.052L0.087,-0.053C0.087,-0.054 0.087,-0.054 0.087,-0.055C0.088,-0.056 0.088,-0.056 0.088,-0.057L0.088,-0.062L0.087,-0.061ZM0.142,-0.13C0.141,-0.129 0.14,-0.126 0.139,-0.123C0.138,-0.119 0.136,-0.116 0.133,-0.114C0.13,-0.115 0.13,-0.117 0.131,-0.118C0.132,-0.118 0.133,-0.118 0.133,-0.117C0.132,-0.117 0.133,-0.118 0.136,-0.119C0.136,-0.12 0.135,-0.121 0.133,-0.121C0.132,-0.123 0.133,-0.124 0.134,-0.125C0.135,-0.126 0.134,-0.127 0.133,-0.128C0.137,-0.127 0.139,-0.127 0.14,-0.129C0.14,-0.13 0.141,-0.131 0.142,-0.13ZM0.084,-0.022L0.086,-0.033C0.087,-0.034 0.087,-0.035 0.087,-0.035C0.088,-0.036 0.088,-0.038 0.089,-0.039C0.089,-0.04 0.09,-0.042 0.091,-0.044L0.093,-0.046L0.093,-0.045C0.093,-0.044 0.093,-0.044 0.093,-0.045C0.092,-0.045 0.092,-0.045 0.092,-0.044L0.092,-0.041C0.092,-0.04 0.092,-0.04 0.092,-0.04C0.091,-0.04 0.091,-0.04 0.091,-0.039L0.091,-0.036L0.089,-0.03C0.088,-0.026 0.086,-0.023 0.084,-0.022ZM0.084,-0.022L0.086,-0.033C0.087,-0.034 0.087,-0.035 0.087,-0.035C0.088,-0.036 0.088,-0.038 0.089,-0.039C0.089,-0.04 0.09,-0.042 0.091,-0.044L0.093,-0.046L0.093,-0.045C0.093,-0.044 0.093,-0.044 0.093,-0.045C0.092,-0.045 0.092,-0.045 0.092,-0.044L0.092,-0.041C0.092,-0.04 0.092,-0.04 0.092,-0.04C0.091,-0.04 0.091,-0.04 0.091,-0.039L0.091,-0.036L0.089,-0.03C0.088,-0.026 0.086,-0.023 0.084,-0.022ZM0.1,-0.084C0.099,-0.084 0.099,-0.084 0.098,-0.083C0.098,-0.083 0.098,-0.083 0.097,-0.082C0.096,-0.082 0.095,-0.081 0.095,-0.08L0.093,-0.078C0.092,-0.075 0.09,-0.073 0.089,-0.07C0.088,-0.067 0.086,-0.064 0.084,-0.062C0.085,-0.061 0.086,-0.062 0.089,-0.063L0.09,-0.063L0.09,-0.064L0.094,-0.074C0.095,-0.075 0.095,-0.076 0.095,-0.077C0.096,-0.078 0.097,-0.079 0.097,-0.08L0.099,-0.083L0.1,-0.084ZM0.072,0.013C0.073,0.013 0.073,0.013 0.073,0.012L0.074,0.011L0.076,0.011L0.076,-0L0.074,-0.003L0.074,-0.002C0.074,-0.001 0.074,-0.001 0.073,-0L0.073,0.002C0.072,0.003 0.072,0.004 0.072,0.005C0.072,0.006 0.072,0.006 0.071,0.006C0.071,0.007 0.071,0.007 0.071,0.008L0.071,0.014L0.072,0.013ZM0.045,0.123C0.045,0.122 0.045,0.122 0.044,0.121L0.044,0.116C0.045,0.115 0.045,0.114 0.045,0.112C0.046,0.111 0.046,0.109 0.046,0.108C0.045,0.109 0.044,0.11 0.044,0.111L0.041,0.115C0.041,0.116 0.04,0.117 0.039,0.118C0.038,0.118 0.038,0.118 0.037,0.119C0.037,0.119 0.037,0.12 0.036,0.121L0.043,0.121C0.043,0.121 0.044,0.122 0.045,0.123ZM0.044,0.116C0.045,0.115 0.045,0.114 0.045,0.112C0.046,0.111 0.046,0.109 0.046,0.108C0.045,0.109 0.044,0.11 0.044,0.111L0.041,0.115C0.041,0.116 0.04,0.117 0.039,0.118C0.038,0.118 0.038,0.118 0.037,0.119C0.037,0.119 0.037,0.12 0.036,0.121L0.043,0.121C0.043,0.121 0.044,0.122 0.045,0.123C0.045,0.122 0.045,0.122 0.044,0.121L0.044,0.116ZM0.047,0.09C0.046,0.091 0.046,0.092 0.045,0.092C0.043,0.093 0.043,0.094 0.043,0.095C0.044,0.096 0.045,0.096 0.046,0.095C0.047,0.094 0.047,0.094 0.048,0.095L0.047,0.096L0.047,0.098L0.044,0.101L0.043,0.101L0.043,0.103C0.043,0.104 0.043,0.104 0.043,0.104C0.042,0.104 0.042,0.104 0.042,0.105C0.042,0.106 0.043,0.106 0.046,0.106L0.046,0.105C0.045,0.104 0.044,0.103 0.044,0.103C0.047,0.104 0.049,0.102 0.049,0.099C0.048,0.096 0.048,0.094 0.049,0.091C0.048,0.091 0.048,0.091 0.048,0.09C0.048,0.09 0.048,0.09 0.047,0.09ZM0.047,0.09C0.046,0.091 0.046,0.092 0.045,0.092C0.043,0.093 0.043,0.094 0.043,0.095C0.044,0.096 0.045,0.096 0.046,0.095C0.047,0.094 0.047,0.094 0.048,0.095L0.047,0.096L0.047,0.098L0.044,0.101L0.043,0.101L0.043,0.103C0.043,0.104 0.043,0.104 0.043,0.104C0.042,0.104 0.042,0.104 0.042,0.105C0.042,0.106 0.043,0.106 0.046,0.106L0.046,0.105C0.045,0.104 0.044,0.103 0.044,0.103C0.047,0.104 0.049,0.102 0.049,0.099C0.048,0.096 0.048,0.094 0.049,0.091C0.048,0.091 0.048,0.091 0.048,0.09C0.048,0.09 0.048,0.09 0.047,0.09ZM0.119,-0.076C0.118,-0.077 0.118,-0.077 0.121,-0.077C0.123,-0.076 0.125,-0.076 0.127,-0.076C0.122,-0.073 0.119,-0.069 0.118,-0.064C0.115,-0.065 0.114,-0.066 0.114,-0.069C0.116,-0.069 0.117,-0.07 0.118,-0.071C0.119,-0.073 0.12,-0.075 0.119,-0.076ZM0.099,-0.095C0.098,-0.095 0.098,-0.095 0.098,-0.095C0.098,-0.094 0.098,-0.094 0.097,-0.094L0.097,-0.093L0.095,-0.088L0.095,-0.086C0.096,-0.085 0.097,-0.085 0.099,-0.085L0.1,-0.086L0.099,-0.086L0.099,-0.087C0.099,-0.088 0.099,-0.088 0.1,-0.089L0.1,-0.09C0.1,-0.09 0.1,-0.091 0.101,-0.092L0.101,-0.094L0.1,-0.095L0.1,-0.096L0.099,-0.095ZM0.099,-0.095C0.098,-0.095 0.098,-0.095 0.098,-0.095C0.098,-0.094 0.098,-0.094 0.097,-0.094L0.097,-0.093L0.095,-0.088L0.095,-0.086C0.096,-0.085 0.097,-0.085 0.099,-0.085L0.1,-0.086L0.099,-0.086L0.099,-0.087C0.099,-0.088 0.099,-0.088 0.1,-0.089L0.1,-0.09C0.1,-0.09 0.1,-0.091 0.101,-0.092L0.101,-0.094L0.1,-0.095L0.1,-0.096L0.099,-0.095ZM0.05,0.108C0.05,0.109 0.05,0.111 0.05,0.112C0.049,0.113 0.049,0.115 0.049,0.116C0.048,0.117 0.048,0.119 0.048,0.121C0.049,0.121 0.05,0.119 0.051,0.116C0.053,0.113 0.054,0.111 0.053,0.109L0.053,0.108C0.051,0.108 0.05,0.108 0.05,0.108ZM0.048,0.121C0.049,0.121 0.05,0.119 0.051,0.116C0.053,0.113 0.054,0.111 0.053,0.109L0.053,0.108C0.051,0.108 0.05,0.108 0.05,0.108C0.05,0.109 0.05,0.111 0.05,0.112C0.049,0.113 0.049,0.115 0.049,0.116C0.048,0.117 0.048,0.119 0.048,0.121ZM0.048,0.052C0.047,0.052 0.046,0.052 0.046,0.051C0.046,0.051 0.046,0.051 0.045,0.051L0.046,0.051C0.047,0.05 0.048,0.049 0.048,0.047C0.047,0.047 0.047,0.047 0.047,0.046C0.045,0.046 0.044,0.047 0.044,0.05L0.043,0.05C0.043,0.05 0.042,0.051 0.041,0.052C0.042,0.053 0.043,0.054 0.045,0.054C0.047,0.054 0.048,0.053 0.048,0.052ZM0.048,0.052C0.047,0.052 0.046,0.052 0.046,0.051C0.046,0.051 0.046,0.051 0.045,0.051L0.046,0.051C0.047,0.05 0.048,0.049 0.048,0.047C0.047,0.047 0.047,0.047 0.047,0.046C0.045,0.046 0.044,0.047 0.044,0.05L0.043,0.05C0.043,0.05 0.042,0.051 0.041,0.052C0.042,0.053 0.043,0.054 0.045,0.054C0.047,0.054 0.048,0.053 0.048,0.052ZM0.089,-0.135L0.088,-0.134L0.088,-0.133L0.089,-0.132C0.09,-0.132 0.091,-0.133 0.093,-0.135L0.093,-0.136C0.093,-0.137 0.093,-0.137 0.094,-0.137C0.094,-0.137 0.094,-0.137 0.094,-0.138C0.094,-0.139 0.094,-0.14 0.093,-0.141L0.091,-0.139L0.089,-0.139L0.089,-0.135ZM0.091,-0.139L0.089,-0.139L0.089,-0.135L0.088,-0.134L0.088,-0.133L0.089,-0.132C0.09,-0.132 0.091,-0.133 0.093,-0.135L0.093,-0.136C0.093,-0.137 0.093,-0.137 0.094,-0.137C0.094,-0.137 0.094,-0.137 0.094,-0.138C0.094,-0.139 0.094,-0.14 0.093,-0.141L0.091,-0.139ZM0.16,-0.157C0.163,-0.156 0.163,-0.155 0.161,-0.152C0.159,-0.149 0.157,-0.148 0.155,-0.148C0.156,-0.151 0.157,-0.153 0.157,-0.153C0.157,-0.152 0.158,-0.154 0.16,-0.157ZM0.061,0.024C0.06,0.023 0.061,0.021 0.062,0.018L0.062,0.016C0.062,0.015 0.061,0.014 0.06,0.014C0.059,0.015 0.058,0.016 0.058,0.016C0.057,0.019 0.058,0.022 0.06,0.023C0.06,0.023 0.06,0.023 0.061,0.024ZM0.061,0.024C0.06,0.023 0.061,0.021 0.062,0.018L0.062,0.016C0.062,0.015 0.061,0.014 0.06,0.014C0.059,0.015 0.058,0.016 0.058,0.016C0.057,0.019 0.058,0.022 0.06,0.023C0.06,0.023 0.06,0.023 0.061,0.024ZM0.153,-0.203C0.154,-0.202 0.155,-0.201 0.155,-0.201C0.156,-0.201 0.156,-0.201 0.157,-0.202C0.157,-0.202 0.157,-0.203 0.158,-0.204L0.158,-0.206C0.158,-0.207 0.158,-0.207 0.159,-0.207C0.159,-0.207 0.159,-0.207 0.159,-0.208L0.16,-0.209L0.157,-0.209L0.156,-0.21C0.156,-0.207 0.156,-0.206 0.155,-0.206C0.154,-0.205 0.153,-0.204 0.153,-0.204L0.153,-0.203ZM0.156,-0.21C0.156,-0.207 0.156,-0.206 0.155,-0.206C0.154,-0.205 0.153,-0.204 0.153,-0.204L0.153,-0.203C0.154,-0.202 0.155,-0.201 0.155,-0.201C0.156,-0.201 0.156,-0.201 0.157,-0.202C0.157,-0.202 0.157,-0.203 0.158,-0.204L0.158,-0.206C0.158,-0.207 0.158,-0.207 0.159,-0.207C0.159,-0.207 0.159,-0.207 0.159,-0.208L0.16,-0.209L0.157,-0.209L0.156,-0.21ZM0.183,-0.239C0.183,-0.234 0.182,-0.229 0.179,-0.226C0.179,-0.229 0.179,-0.232 0.18,-0.233C0.181,-0.234 0.182,-0.236 0.183,-0.239ZM0.105,-0.191C0.105,-0.192 0.105,-0.192 0.106,-0.192C0.107,-0.192 0.107,-0.192 0.108,-0.193C0.108,-0.194 0.108,-0.195 0.109,-0.196C0.11,-0.197 0.11,-0.199 0.109,-0.201L0.109,-0.202L0.108,-0.202L0.108,-0.201C0.107,-0.2 0.107,-0.198 0.107,-0.197C0.107,-0.196 0.107,-0.196 0.107,-0.196C0.106,-0.195 0.106,-0.195 0.106,-0.194C0.105,-0.193 0.105,-0.193 0.105,-0.192L0.105,-0.191ZM0.105,-0.191C0.105,-0.192 0.105,-0.192 0.106,-0.192C0.107,-0.192 0.107,-0.192 0.108,-0.193C0.108,-0.194 0.108,-0.195 0.109,-0.196C0.11,-0.197 0.11,-0.199 0.109,-0.201L0.109,-0.202L0.108,-0.202L0.108,-0.203L0.108,-0.201C0.107,-0.2 0.107,-0.198 0.107,-0.197C0.107,-0.196 0.107,-0.196 0.107,-0.196C0.106,-0.195 0.106,-0.195 0.106,-0.194C0.105,-0.193 0.105,-0.193 0.105,-0.192L0.105,-0.191ZM0.141,-0.101C0.142,-0.102 0.142,-0.1 0.141,-0.096C0.141,-0.092 0.14,-0.09 0.138,-0.091C0.138,-0.094 0.139,-0.098 0.141,-0.101ZM0.153,-0.147C0.154,-0.147 0.156,-0.147 0.157,-0.147C0.158,-0.146 0.159,-0.146 0.16,-0.146C0.157,-0.143 0.155,-0.142 0.153,-0.142C0.154,-0.143 0.154,-0.144 0.153,-0.145C0.152,-0.146 0.152,-0.146 0.153,-0.147ZM0.105,-0.084C0.106,-0.085 0.107,-0.087 0.108,-0.089C0.109,-0.09 0.108,-0.092 0.107,-0.093C0.107,-0.093 0.107,-0.093 0.106,-0.094C0.105,-0.09 0.104,-0.088 0.104,-0.088L0.104,-0.084L0.105,-0.083L0.105,-0.084ZM0.105,-0.084C0.106,-0.085 0.107,-0.087 0.108,-0.089C0.109,-0.09 0.108,-0.092 0.107,-0.093C0.107,-0.093 0.107,-0.093 0.106,-0.094C0.105,-0.09 0.104,-0.088 0.104,-0.088L0.104,-0.084L0.105,-0.083L0.105,-0.084ZM0.047,0.013C0.046,0.016 0.045,0.018 0.046,0.019C0.046,0.02 0.046,0.022 0.046,0.023L0.047,0.022C0.048,0.021 0.048,0.021 0.048,0.02C0.048,0.019 0.048,0.018 0.049,0.017L0.049,0.016C0.049,0.015 0.048,0.014 0.047,0.013ZM0.047,0.013C0.046,0.016 0.045,0.018 0.046,0.019C0.046,0.02 0.046,0.022 0.046,0.023L0.047,0.022C0.048,0.021 0.048,0.021 0.048,0.02C0.048,0.019 0.048,0.018 0.049,0.017L0.049,0.016C0.049,0.015 0.048,0.014 0.047,0.013ZM0.055,0.049C0.055,0.049 0.055,0.049 0.056,0.048L0.055,0.048L0.055,0.045C0.055,0.044 0.054,0.044 0.053,0.045L0.052,0.045L0.051,0.046L0.05,0.046C0.049,0.047 0.049,0.048 0.05,0.049L0.055,0.049ZM0.055,0.048L0.055,0.045C0.055,0.044 0.054,0.044 0.053,0.045L0.052,0.045L0.051,0.046L0.05,0.046C0.049,0.047 0.049,0.048 0.05,0.049L0.055,0.049C0.055,0.049 0.055,0.049 0.056,0.048L0.055,0.048ZM0.175,-0.255C0.174,-0.255 0.174,-0.255 0.174,-0.255C0.174,-0.254 0.174,-0.254 0.173,-0.254L0.173,-0.252C0.173,-0.251 0.173,-0.251 0.172,-0.251C0.172,-0.251 0.172,-0.251 0.172,-0.25L0.172,-0.247L0.174,-0.247C0.174,-0.247 0.174,-0.247 0.175,-0.248C0.175,-0.249 0.175,-0.249 0.174,-0.25C0.174,-0.251 0.174,-0.252 0.175,-0.253C0.175,-0.253 0.175,-0.254 0.176,-0.255L0.175,-0.255ZM0.175,-0.255C0.174,-0.255 0.174,-0.255 0.174,-0.255C0.174,-0.254 0.174,-0.254 0.173,-0.254L0.173,-0.252C0.173,-0.251 0.173,-0.251 0.172,-0.251C0.172,-0.251 0.172,-0.251 0.172,-0.25L0.172,-0.247L0.174,-0.247C0.174,-0.247 0.174,-0.247 0.175,-0.248C0.175,-0.249 0.175,-0.249 0.174,-0.25C0.174,-0.251 0.174,-0.252 0.175,-0.253C0.175,-0.253 0.175,-0.254 0.176,-0.255L0.175,-0.255ZM0.161,-0.164C0.158,-0.165 0.156,-0.165 0.156,-0.164C0.155,-0.163 0.154,-0.164 0.152,-0.165C0.153,-0.167 0.154,-0.167 0.155,-0.166C0.156,-0.165 0.157,-0.164 0.16,-0.165C0.161,-0.166 0.163,-0.167 0.164,-0.169C0.165,-0.17 0.166,-0.171 0.167,-0.17L0.161,-0.164ZM0.084,-0.081L0.081,-0.078C0.08,-0.077 0.08,-0.076 0.08,-0.075C0.079,-0.073 0.079,-0.071 0.081,-0.069C0.081,-0.069 0.081,-0.07 0.08,-0.071L0.081,-0.072C0.081,-0.073 0.081,-0.073 0.082,-0.074C0.082,-0.074 0.082,-0.074 0.082,-0.075L0.083,-0.076C0.084,-0.077 0.085,-0.079 0.084,-0.08L0.084,-0.081ZM0.084,-0.081L0.081,-0.078C0.08,-0.077 0.08,-0.076 0.08,-0.075C0.079,-0.073 0.079,-0.071 0.081,-0.069C0.081,-0.069 0.081,-0.07 0.08,-0.071L0.081,-0.072C0.081,-0.073 0.081,-0.073 0.082,-0.074C0.082,-0.074 0.082,-0.074 0.082,-0.075L0.083,-0.076C0.084,-0.077 0.085,-0.079 0.084,-0.08L0.084,-0.081ZM0.199,-0.291C0.198,-0.291 0.198,-0.291 0.199,-0.292C0.199,-0.293 0.199,-0.293 0.198,-0.293L0.197,-0.294L0.196,-0.294L0.193,-0.292L0.193,-0.29L0.199,-0.29L0.2,-0.291L0.199,-0.291ZM0.199,-0.29L0.2,-0.291L0.199,-0.291C0.198,-0.291 0.198,-0.291 0.199,-0.292C0.199,-0.293 0.199,-0.293 0.198,-0.293L0.197,-0.294L0.196,-0.294L0.193,-0.292L0.193,-0.29L0.199,-0.29ZM0.042,0.041L0.044,0.041C0.045,0.041 0.045,0.041 0.046,0.04C0.047,0.039 0.048,0.038 0.048,0.037C0.048,0.036 0.049,0.035 0.05,0.034L0.048,0.034L0.042,0.041ZM0.042,0.041L0.044,0.041C0.045,0.041 0.045,0.041 0.046,0.04C0.047,0.039 0.048,0.038 0.048,0.037C0.048,0.036 0.049,0.035 0.05,0.034L0.048,0.034L0.042,0.041ZM0.054,0.039C0.054,0.038 0.055,0.037 0.056,0.034C0.056,0.034 0.056,0.033 0.057,0.032C0.056,0.032 0.056,0.032 0.055,0.033C0.055,0.033 0.055,0.033 0.054,0.034C0.052,0.034 0.051,0.035 0.051,0.036L0.05,0.037L0.051,0.038C0.052,0.038 0.052,0.038 0.053,0.038C0.053,0.039 0.053,0.039 0.054,0.039ZM0.054,0.039C0.054,0.038 0.055,0.037 0.056,0.034C0.056,0.034 0.056,0.033 0.057,0.032C0.056,0.032 0.056,0.032 0.055,0.033C0.055,0.033 0.055,0.033 0.054,0.034C0.052,0.034 0.051,0.035 0.051,0.036L0.05,0.037L0.051,0.038C0.052,0.038 0.052,0.038 0.053,0.038C0.053,0.039 0.053,0.039 0.054,0.039ZM0.09,0.047C0.087,0.046 0.085,0.045 0.085,0.044C0.086,0.043 0.088,0.042 0.091,0.043C0.093,0.044 0.093,0.046 0.09,0.047ZM0.054,0.131C0.056,0.132 0.056,0.133 0.055,0.135C0.053,0.138 0.051,0.139 0.05,0.138C0.05,0.137 0.051,0.136 0.051,0.135C0.053,0.134 0.053,0.133 0.054,0.131ZM0.057,-0.013C0.059,-0.013 0.06,-0.014 0.06,-0.016C0.061,-0.017 0.061,-0.018 0.061,-0.019C0.061,-0.019 0.061,-0.019 0.06,-0.02C0.059,-0.019 0.059,-0.018 0.059,-0.017L0.058,-0.017C0.057,-0.016 0.056,-0.015 0.056,-0.014L0.056,-0.013L0.057,-0.013ZM0.057,-0.013C0.059,-0.013 0.06,-0.014 0.06,-0.016C0.061,-0.017 0.061,-0.018 0.061,-0.019C0.061,-0.019 0.061,-0.019 0.06,-0.02C0.059,-0.019 0.059,-0.018 0.059,-0.017L0.058,-0.017C0.057,-0.016 0.056,-0.015 0.056,-0.014L0.056,-0.013L0.057,-0.013ZM0.052,0.078C0.051,0.077 0.051,0.077 0.051,0.076C0.051,0.075 0.051,0.075 0.051,0.075C0.052,0.075 0.052,0.075 0.052,0.074C0.051,0.074 0.051,0.074 0.051,0.073C0.05,0.073 0.05,0.073 0.049,0.073C0.05,0.073 0.05,0.074 0.05,0.075C0.05,0.076 0.05,0.076 0.05,0.076C0.049,0.076 0.049,0.076 0.049,0.077L0.048,0.078L0.048,0.079L0.053,0.079L0.052,0.078ZM0.052,0.078C0.051,0.077 0.051,0.077 0.051,0.076C0.051,0.075 0.051,0.075 0.051,0.075C0.052,0.075 0.052,0.075 0.052,0.074C0.051,0.074 0.051,0.074 0.051,0.073C0.05,0.073 0.05,0.073 0.049,0.073C0.05,0.073 0.05,0.074 0.05,0.075C0.05,0.076 0.05,0.076 0.05,0.076C0.049,0.076 0.049,0.076 0.049,0.077L0.048,0.078L0.048,0.079L0.053,0.079L0.052,0.078ZM0.153,-0.13C0.152,-0.129 0.151,-0.128 0.152,-0.126C0.152,-0.124 0.151,-0.124 0.148,-0.125C0.149,-0.126 0.149,-0.128 0.15,-0.129C0.15,-0.13 0.151,-0.131 0.153,-0.13ZM0.056,0.097C0.056,0.096 0.056,0.096 0.057,0.096C0.057,0.096 0.057,0.096 0.057,0.095L0.054,0.095C0.053,0.095 0.052,0.096 0.052,0.097C0.053,0.097 0.053,0.097 0.053,0.098L0.053,0.099C0.053,0.099 0.054,0.099 0.055,0.1C0.056,0.099 0.056,0.099 0.056,0.098L0.056,0.097ZM0.056,0.097C0.056,0.096 0.056,0.096 0.057,0.096C0.057,0.096 0.057,0.096 0.057,0.095L0.054,0.095C0.053,0.095 0.052,0.096 0.052,0.097C0.053,0.097 0.053,0.097 0.053,0.098L0.053,0.099C0.053,0.099 0.054,0.099 0.055,0.1C0.056,0.099 0.056,0.099 0.056,0.098L0.056,0.097ZM0.171,-0.188C0.171,-0.185 0.169,-0.184 0.166,-0.185C0.166,-0.187 0.168,-0.188 0.171,-0.188ZM0.181,-0.257C0.181,-0.256 0.181,-0.256 0.18,-0.256L0.178,-0.256C0.177,-0.256 0.177,-0.256 0.177,-0.255L0.177,-0.253L0.18,-0.253C0.181,-0.254 0.182,-0.255 0.182,-0.256L0.181,-0.257ZM0.181,-0.257C0.181,-0.256 0.181,-0.256 0.18,-0.256L0.178,-0.256C0.177,-0.256 0.177,-0.256 0.177,-0.255L0.177,-0.253L0.18,-0.253C0.181,-0.254 0.182,-0.255 0.182,-0.256L0.181,-0.257ZM0.204,-0.293L0.202,-0.291C0.201,-0.29 0.201,-0.29 0.201,-0.289L0.201,-0.288L0.203,-0.288L0.205,-0.29L0.205,-0.291C0.205,-0.291 0.205,-0.292 0.206,-0.293L0.204,-0.293ZM0.204,-0.293L0.202,-0.291C0.201,-0.29 0.201,-0.29 0.201,-0.289L0.201,-0.288L0.203,-0.288L0.205,-0.29L0.205,-0.291C0.205,-0.291 0.205,-0.292 0.206,-0.293L0.204,-0.293ZM0.078,-0.024C0.079,-0.025 0.079,-0.027 0.078,-0.028L0.077,-0.029C0.076,-0.028 0.075,-0.027 0.076,-0.026L0.076,-0.023C0.077,-0.022 0.077,-0.022 0.078,-0.022L0.078,-0.024ZM0.078,-0.024C0.079,-0.025 0.079,-0.027 0.078,-0.028L0.077,-0.029C0.076,-0.028 0.075,-0.027 0.076,-0.026L0.076,-0.023C0.077,-0.022 0.077,-0.022 0.078,-0.022L0.078,-0.024ZM0.059,0.027L0.056,0.027C0.055,0.028 0.054,0.029 0.054,0.03L0.055,0.031C0.056,0.031 0.056,0.031 0.057,0.03C0.057,0.03 0.057,0.03 0.058,0.03C0.058,0.029 0.058,0.029 0.059,0.029C0.059,0.029 0.059,0.029 0.059,0.028L0.059,0.027ZM0.056,0.027C0.055,0.028 0.054,0.029 0.054,0.03L0.055,0.031C0.056,0.031 0.056,0.031 0.057,0.03C0.057,0.03 0.057,0.03 0.058,0.03C0.058,0.029 0.058,0.029 0.059,0.029C0.059,0.029 0.059,0.029 0.059,0.028L0.059,0.027L0.056,0.027ZM0.172,-0.203C0.172,-0.204 0.173,-0.205 0.174,-0.205C0.175,-0.205 0.176,-0.206 0.177,-0.207C0.177,-0.206 0.177,-0.204 0.175,-0.203C0.174,-0.201 0.173,-0.201 0.172,-0.203ZM0.095,-0.05C0.094,-0.05 0.094,-0.05 0.093,-0.051L0.092,-0.051C0.091,-0.051 0.091,-0.051 0.091,-0.05L0.091,-0.047L0.094,-0.047L0.094,-0.048L0.095,-0.048L0.095,-0.05ZM0.095,-0.05C0.094,-0.05 0.094,-0.05 0.093,-0.051L0.092,-0.051C0.091,-0.051 0.091,-0.051 0.091,-0.05L0.091,-0.047L0.094,-0.047L0.094,-0.048L0.095,-0.048L0.095,-0.05ZM0.106,-0.072C0.107,-0.071 0.108,-0.071 0.108,-0.072C0.108,-0.072 0.108,-0.073 0.109,-0.074C0.109,-0.074 0.109,-0.075 0.108,-0.076L0.107,-0.077C0.107,-0.078 0.107,-0.078 0.106,-0.078L0.106,-0.072ZM0.108,-0.072C0.108,-0.072 0.108,-0.073 0.109,-0.074C0.109,-0.074 0.109,-0.075 0.108,-0.076L0.107,-0.077C0.107,-0.078 0.107,-0.078 0.106,-0.078L0.106,-0.072C0.107,-0.071 0.108,-0.071 0.108,-0.072ZM0.165,-0.173C0.165,-0.174 0.165,-0.174 0.165,-0.175C0.164,-0.176 0.164,-0.177 0.164,-0.178C0.165,-0.177 0.165,-0.177 0.166,-0.178C0.166,-0.179 0.167,-0.178 0.168,-0.177C0.169,-0.176 0.169,-0.175 0.168,-0.175C0.167,-0.175 0.166,-0.174 0.165,-0.173ZM0.192,-0.258C0.191,-0.257 0.19,-0.255 0.189,-0.254C0.188,-0.253 0.187,-0.252 0.186,-0.252C0.187,-0.256 0.189,-0.258 0.192,-0.258ZM0.151,-0.134C0.154,-0.134 0.155,-0.134 0.155,-0.133C0.155,-0.132 0.154,-0.131 0.152,-0.132C0.15,-0.132 0.15,-0.133 0.151,-0.134ZM0.058,0.149C0.059,0.15 0.058,0.151 0.055,0.152C0.051,0.153 0.051,0.152 0.054,0.149C0.055,0.15 0.056,0.15 0.057,0.15C0.058,0.15 0.058,0.15 0.058,0.149ZM0.136,-0.115C0.139,-0.115 0.14,-0.114 0.14,-0.113C0.139,-0.111 0.138,-0.111 0.135,-0.112C0.135,-0.113 0.135,-0.114 0.136,-0.114C0.136,-0.114 0.136,-0.114 0.136,-0.115ZM0.129,-0.114C0.13,-0.114 0.132,-0.113 0.133,-0.112C0.131,-0.11 0.13,-0.109 0.129,-0.11C0.13,-0.111 0.13,-0.112 0.129,-0.112C0.128,-0.112 0.128,-0.113 0.129,-0.114ZM0.15,-0.115C0.149,-0.114 0.148,-0.113 0.146,-0.114C0.144,-0.114 0.142,-0.114 0.141,-0.114C0.142,-0.115 0.143,-0.116 0.145,-0.116C0.147,-0.116 0.149,-0.116 0.15,-0.115ZM0.085,-0.131C0.084,-0.131 0.084,-0.131 0.084,-0.13L0.084,-0.127C0.084,-0.126 0.084,-0.125 0.085,-0.125L0.086,-0.125L0.086,-0.126L0.087,-0.127L0.086,-0.127L0.086,-0.13L0.085,-0.131ZM0.085,-0.131C0.084,-0.131 0.084,-0.131 0.084,-0.13L0.084,-0.127C0.084,-0.126 0.084,-0.125 0.085,-0.125L0.086,-0.125L0.086,-0.126L0.087,-0.127L0.086,-0.127L0.086,-0.13L0.085,-0.131ZM0.151,-0.164C0.152,-0.164 0.153,-0.163 0.152,-0.161C0.151,-0.158 0.15,-0.158 0.149,-0.159C0.149,-0.16 0.149,-0.161 0.15,-0.162C0.151,-0.162 0.151,-0.163 0.151,-0.164ZM0.064,0.074C0.066,0.074 0.066,0.074 0.065,0.075C0.064,0.076 0.062,0.077 0.06,0.077C0.06,0.075 0.061,0.074 0.064,0.074ZM0.103,-0.168L0.102,-0.167L0.101,-0.167C0.101,-0.166 0.101,-0.166 0.101,-0.166C0.1,-0.166 0.1,-0.166 0.1,-0.165C0.1,-0.164 0.1,-0.164 0.101,-0.164L0.103,-0.166C0.103,-0.166 0.103,-0.167 0.104,-0.168L0.104,-0.17L0.103,-0.17L0.103,-0.168ZM0.103,-0.168L0.102,-0.167L0.101,-0.167C0.101,-0.166 0.101,-0.166 0.101,-0.166C0.1,-0.166 0.1,-0.166 0.1,-0.165C0.1,-0.164 0.1,-0.164 0.101,-0.164L0.103,-0.166C0.103,-0.166 0.103,-0.167 0.104,-0.168L0.104,-0.17L0.103,-0.17L0.103,-0.168ZM0.129,-0.099C0.128,-0.1 0.127,-0.1 0.125,-0.1C0.124,-0.102 0.125,-0.103 0.127,-0.102C0.129,-0.102 0.13,-0.101 0.129,-0.099ZM0.06,0.055C0.06,0.055 0.061,0.055 0.062,0.054L0.063,0.053L0.062,0.052L0.06,0.052C0.06,0.052 0.06,0.053 0.059,0.054L0.059,0.055L0.06,0.056L0.06,0.055ZM0.06,0.055C0.06,0.055 0.061,0.055 0.062,0.054L0.063,0.053L0.062,0.052L0.06,0.052C0.06,0.052 0.06,0.053 0.059,0.054L0.059,0.055L0.06,0.056L0.06,0.055ZM0.095,-0.147C0.095,-0.146 0.094,-0.145 0.093,-0.144L0.093,-0.142L0.094,-0.142L0.095,-0.143C0.096,-0.144 0.096,-0.144 0.096,-0.145L0.096,-0.146L0.095,-0.147ZM0.095,-0.147C0.095,-0.146 0.094,-0.145 0.093,-0.144L0.093,-0.142L0.094,-0.142L0.095,-0.143C0.096,-0.144 0.096,-0.144 0.096,-0.145L0.096,-0.146L0.095,-0.147ZM0.08,0.039C0.08,0.038 0.08,0.037 0.081,0.036C0.082,0.036 0.082,0.035 0.083,0.034C0.083,0.035 0.083,0.037 0.083,0.038C0.082,0.039 0.081,0.04 0.08,0.039ZM0.086,0.073C0.085,0.074 0.085,0.075 0.085,0.077C0.084,0.077 0.084,0.076 0.084,0.074C0.083,0.074 0.082,0.074 0.082,0.074C0.082,0.073 0.083,0.073 0.086,0.073ZM0.199,-0.299C0.198,-0.298 0.198,-0.298 0.198,-0.298L0.199,-0.299Z" style="fill:rgb(255,207,78);fill-rule:nonzero;"/>
        </g>
    </g>
</svg>
