<?xml version="1.0" encoding="UTF-8" standalone="no"?><!DOCTYPE svg PUBLIC "-//W3C//DTD SVG 1.1//EN" "http://www.w3.org/Graphics/SVG/1.1/DTD/svg11.dtd"><svg width="100%" height="100%" viewBox="0 0 3317 982" version="1.1" xmlns="http://www.w3.org/2000/svg" xmlns:xlink="http://www.w3.org/1999/xlink" xml:space="preserve" xmlns:serif="http://www.serif.com/" style="fill-rule:evenodd;clip-rule:evenodd;stroke-linejoin:round;stroke-miterlimit:2;"><rect id="ArtBoard1" x="0" y="0" width="3316.39" height="981.576" style="fill:none;"/><path d="M1785.5,166.782l492.899,0.16l0.643,547.059l135.639,-0l0,-547.059l632.563,0l-0,667.913l-124.711,0l-0,-546.415l-131.783,-0l0,545.772l-120.211,0l-0,-546.415l-135.64,-0l0,547.701l-376.069,-0l0,-546.416l-134.354,0l0,543.845l-120.211,-0l-0,-544.487l-118.767,-0l0.002,-121.658c-0,-0 -0.04,-0.095 -0,-0Z" style="fill:#fff;"/><g transform="matrix(5.02583,0,0,5.02583,-249.152,-728.674)"><path d="M116.148,181.693l-10.115,0l-0,-3.4l24.267,0l0,3.4l-10.115,0l0,26.945l-4.037,0l-0,-26.945Z" style="fill:#fff;fill-rule:nonzero;stroke:#fff;stroke-width:0.83px;"/><path d="M143.603,195.548c-0.057,-0.85 -0.248,-1.657 -0.574,-2.422c-0.326,-0.765 -0.765,-1.424 -1.317,-1.977c-0.553,-0.552 -1.212,-0.991 -1.977,-1.317c-0.765,-0.326 -1.586,-0.489 -2.465,-0.489c-0.935,0 -1.777,0.163 -2.528,0.489c-0.751,0.326 -1.396,0.772 -1.934,1.339c-0.538,0.566 -0.963,1.225 -1.275,1.976c-0.312,0.751 -0.496,1.551 -0.553,2.401l12.623,0Zm3.527,6.12c-0.482,2.437 -1.547,4.293 -3.194,5.568c-1.647,1.275 -3.719,1.912 -6.218,1.912c-1.761,0 -3.287,-0.29 -4.579,-0.871c-1.291,-0.581 -2.377,-1.381 -3.258,-2.401c-0.88,-1.02 -1.54,-2.239 -1.98,-3.655c-0.44,-1.417 -0.689,-2.961 -0.746,-4.633c0,-1.643 0.255,-3.166 0.765,-4.569c0.51,-1.402 1.226,-2.613 2.147,-3.633c0.921,-1.02 2.011,-1.814 3.272,-2.38c1.261,-0.567 2.642,-0.85 4.144,-0.85c1.955,-0 3.577,0.403 4.866,1.211c1.289,0.807 2.324,1.835 3.103,3.081c0.779,1.247 1.317,2.607 1.615,4.08c0.297,1.474 0.418,2.876 0.361,4.208l-16.448,-0c-0.028,0.963 0.085,1.877 0.34,2.741c0.255,0.864 0.666,1.629 1.233,2.295c0.567,0.666 1.289,1.197 2.167,1.594c0.879,0.396 1.913,0.595 3.103,0.595c1.502,-0 2.748,-0.354 3.74,-1.063c0.992,-0.708 1.643,-1.785 1.955,-3.23l3.612,0Z" style="fill:#fff;fill-rule:nonzero;stroke:#fff;stroke-width:0.83px;"/><path d="M166.085,193.721c-0.283,-1.389 -0.885,-2.465 -1.806,-3.23c-0.921,-0.765 -2.132,-1.148 -3.634,-1.148c-1.303,0 -2.394,0.241 -3.272,0.723c-0.878,0.481 -1.58,1.119 -2.104,1.912c-0.524,0.794 -0.899,1.707 -1.126,2.741c-0.227,1.035 -0.34,2.104 -0.34,3.209c-0,1.02 0.12,2.012 0.361,2.975c0.241,0.964 0.616,1.821 1.126,2.571c0.51,0.751 1.169,1.353 1.977,1.807c0.807,0.453 1.792,0.68 2.953,0.68c1.757,-0 3.145,-0.475 4.165,-1.424c1.02,-0.949 1.644,-2.26 1.87,-3.931l3.698,-0c-0.397,2.691 -1.417,4.788 -3.06,6.29c-1.643,1.501 -3.853,2.252 -6.63,2.252c-1.672,0 -3.152,-0.276 -4.441,-0.829c-1.289,-0.552 -2.366,-1.324 -3.23,-2.316c-0.864,-0.991 -1.516,-2.174 -1.955,-3.549c-0.439,-1.374 -0.659,-2.882 -0.659,-4.526c-0,-1.643 0.212,-3.18 0.637,-4.611c0.425,-1.431 1.07,-2.678 1.934,-3.74c0.864,-1.063 1.941,-1.898 3.23,-2.508c1.289,-0.609 2.812,-0.913 4.569,-0.913c1.247,-0 2.415,0.148 3.506,0.446c1.091,0.297 2.061,0.758 2.911,1.381c0.85,0.624 1.538,1.41 2.062,2.359c0.524,0.949 0.857,2.075 0.998,3.379l-3.74,-0Z" style="fill:#fff;fill-rule:nonzero;stroke:#fff;stroke-width:0.83px;"/><path d="M173.99,178.293l3.613,0l-0,11.603l0.085,-0c0.283,-0.652 0.687,-1.219 1.211,-1.7c0.524,-0.482 1.098,-0.872 1.721,-1.169c0.624,-0.298 1.283,-0.517 1.977,-0.659c0.694,-0.141 1.367,-0.212 2.018,-0.212c1.445,-0 2.65,0.198 3.613,0.595c0.963,0.396 1.742,0.949 2.337,1.657c0.595,0.709 1.013,1.551 1.254,2.529c0.241,0.977 0.361,2.061 0.361,3.251l0,14.45l-3.612,0l-0,-14.875c-0,-1.36 -0.397,-2.436 -1.19,-3.23c-0.793,-0.793 -1.884,-1.19 -3.273,-1.19c-1.105,0 -2.061,0.17 -2.868,0.51c-0.808,0.34 -1.481,0.822 -2.019,1.445c-0.538,0.624 -0.942,1.353 -1.211,2.189c-0.269,0.836 -0.404,1.75 -0.404,2.741l-0,12.41l-3.613,0l0,-30.345Z" style="fill:#fff;fill-rule:nonzero;stroke:#fff;stroke-width:0.83px;"/><path d="M197.62,186.666l3.4,-0l0,3.485l0.085,-0c0.765,-1.36 1.75,-2.366 2.954,-3.018c1.204,-0.651 2.6,-0.977 4.186,-0.977c1.445,-0 2.65,0.198 3.613,0.595c0.963,0.396 1.742,0.949 2.337,1.657c0.595,0.709 1.013,1.551 1.254,2.529c0.241,0.977 0.361,2.061 0.361,3.251l0,14.45l-3.612,0l-0,-14.875c-0,-1.36 -0.397,-2.436 -1.19,-3.23c-0.793,-0.793 -1.884,-1.19 -3.273,-1.19c-1.105,0 -2.061,0.17 -2.868,0.51c-0.808,0.34 -1.481,0.822 -2.019,1.445c-0.538,0.624 -0.942,1.353 -1.211,2.189c-0.269,0.836 -0.404,1.75 -0.404,2.741l-0,12.41l-3.613,0l0,-21.972Z" style="fill:#fff;fill-rule:nonzero;stroke:#fff;stroke-width:0.83px;"/><path d="M225.075,182.713l-3.612,0l-0,-4.42l3.612,0l0,4.42Zm-3.612,3.953l3.612,-0l0,21.972l-3.612,0l-0,-21.972Z" style="fill:#fff;fill-rule:nonzero;stroke:#fff;stroke-width:0.83px;"/><path d="M232.895,201.711c0.029,0.821 0.213,1.501 0.553,2.04c0.34,0.538 0.786,0.97 1.339,1.296c0.552,0.326 1.176,0.56 1.87,0.701c0.694,0.142 1.409,0.213 2.146,0.213c0.567,-0 1.162,-0.043 1.785,-0.128c0.623,-0.085 1.197,-0.241 1.721,-0.467c0.524,-0.227 0.956,-0.56 1.296,-0.999c0.34,-0.439 0.51,-0.999 0.51,-1.679c0,-0.708 -0.205,-1.282 -0.616,-1.721c-0.411,-0.439 -0.949,-0.8 -1.615,-1.084c-0.666,-0.283 -1.431,-0.517 -2.295,-0.701c-0.864,-0.184 -1.749,-0.375 -2.656,-0.574c-0.907,-0.198 -1.785,-0.439 -2.635,-0.722c-0.85,-0.284 -1.615,-0.652 -2.295,-1.105c-0.68,-0.454 -1.225,-1.034 -1.636,-1.743c-0.411,-0.708 -0.617,-1.586 -0.617,-2.635c0,-1.105 0.248,-2.054 0.744,-2.847c0.496,-0.794 1.134,-1.438 1.913,-1.934c0.779,-0.496 1.657,-0.864 2.635,-1.105c0.977,-0.241 1.948,-0.361 2.911,-0.361c1.218,-0 2.359,0.106 3.421,0.318c1.063,0.213 1.998,0.581 2.805,1.105c0.808,0.525 1.452,1.233 1.934,2.125c0.482,0.893 0.765,2.005 0.85,3.337l-3.613,-0c-0.056,-0.709 -0.247,-1.297 -0.573,-1.764c-0.326,-0.468 -0.723,-0.843 -1.19,-1.126c-0.468,-0.284 -0.992,-0.489 -1.573,-0.617c-0.581,-0.127 -1.169,-0.191 -1.764,-0.191c-0.538,0 -1.083,0.043 -1.636,0.129c-0.552,0.085 -1.055,0.235 -1.509,0.449c-0.453,0.214 -0.821,0.506 -1.105,0.877c-0.283,0.371 -0.425,0.827 -0.425,1.369c0,0.656 0.22,1.184 0.659,1.583c0.439,0.399 0.999,0.734 1.679,1.005c0.68,0.271 1.445,0.499 2.295,0.685c0.85,0.185 1.7,0.377 2.55,0.575c0.907,0.197 1.792,0.437 2.656,0.72c0.864,0.282 1.629,0.657 2.295,1.122c0.666,0.466 1.204,1.052 1.615,1.759c0.411,0.706 0.616,1.581 0.616,2.627c0,1.299 -0.276,2.393 -0.828,3.283c-0.553,0.89 -1.275,1.603 -2.168,2.139c-0.892,0.537 -1.898,0.918 -3.017,1.144c-1.119,0.226 -2.232,0.339 -3.337,0.339c-1.246,0 -2.415,-0.134 -3.506,-0.404c-1.091,-0.269 -2.061,-0.694 -2.911,-1.275c-0.85,-0.58 -1.53,-1.345 -2.04,-2.295c-0.51,-0.949 -0.793,-2.103 -0.85,-3.463l3.612,-0Z" style="fill:#fff;fill-rule:nonzero;stroke:#fff;stroke-width:0.83px;"/><path d="M266.853,193.721c-0.283,-1.389 -0.885,-2.465 -1.806,-3.23c-0.921,-0.765 -2.132,-1.148 -3.634,-1.148c-1.303,0 -2.394,0.241 -3.273,0.723c-0.878,0.481 -1.579,1.119 -2.103,1.912c-0.524,0.794 -0.9,1.707 -1.127,2.741c-0.226,1.035 -0.34,2.104 -0.34,3.209c0,1.02 0.121,2.012 0.362,2.975c0.241,0.964 0.616,1.821 1.126,2.571c0.51,0.751 1.169,1.353 1.976,1.807c0.808,0.453 1.792,0.68 2.954,0.68c1.757,-0 3.145,-0.475 4.165,-1.424c1.02,-0.949 1.643,-2.26 1.87,-3.931l3.697,-0c-0.396,2.691 -1.416,4.788 -3.06,6.29c-1.643,1.501 -3.853,2.252 -6.63,2.252c-1.671,0 -3.152,-0.276 -4.441,-0.829c-1.289,-0.552 -2.366,-1.324 -3.23,-2.316c-0.864,-0.991 -1.516,-2.174 -1.955,-3.549c-0.439,-1.374 -0.659,-2.882 -0.659,-4.526c0,-1.643 0.213,-3.18 0.638,-4.611c0.425,-1.431 1.07,-2.678 1.934,-3.74c0.864,-1.063 1.941,-1.898 3.23,-2.508c1.289,-0.609 2.812,-0.913 4.568,-0.913c1.247,-0 2.416,0.148 3.507,0.446c1.091,0.297 2.061,0.758 2.911,1.381c0.85,0.624 1.537,1.41 2.061,2.359c0.524,0.949 0.857,2.075 0.999,3.379l-3.74,-0Z" style="fill:#fff;fill-rule:nonzero;stroke:#fff;stroke-width:0.83px;"/><path d="M274.758,178.293l3.612,0l0,11.603l0.085,-0c0.284,-0.652 0.688,-1.219 1.212,-1.7c0.524,-0.482 1.098,-0.872 1.721,-1.169c0.623,-0.298 1.282,-0.517 1.976,-0.659c0.694,-0.141 1.367,-0.212 2.019,-0.212c1.445,-0 2.649,0.198 3.612,0.595c0.964,0.396 1.743,0.949 2.338,1.657c0.595,0.709 1.013,1.551 1.254,2.529c0.241,0.977 0.361,2.061 0.361,3.251l-0,14.45l-3.613,0l0,-14.875c0,-1.36 -0.396,-2.436 -1.19,-3.23c-0.793,-0.793 -1.884,-1.19 -3.272,-1.19c-1.105,0 -2.061,0.17 -2.869,0.51c-0.807,0.34 -1.48,0.822 -2.019,1.445c-0.538,0.624 -0.942,1.353 -1.211,2.189c-0.269,0.836 -0.404,1.75 -0.404,2.741l0,12.41l-3.612,0l-0,-30.345Z" style="fill:#fff;fill-rule:nonzero;stroke:#fff;stroke-width:0.83px;"/><path d="M313.645,195.548c-0.056,-0.85 -0.247,-1.657 -0.573,-2.422c-0.326,-0.765 -0.765,-1.424 -1.318,-1.977c-0.552,-0.552 -1.211,-0.991 -1.976,-1.317c-0.765,-0.326 -1.587,-0.489 -2.465,-0.489c-0.935,0 -1.778,0.163 -2.529,0.489c-0.751,0.326 -1.395,0.772 -1.934,1.339c-0.538,0.566 -0.963,1.225 -1.275,1.976c-0.311,0.751 -0.495,1.551 -0.552,2.401l12.622,0Zm3.528,6.12c-0.483,2.437 -1.547,4.293 -3.194,5.568c-1.647,1.275 -3.72,1.912 -6.218,1.912c-1.761,0 -3.287,-0.29 -4.579,-0.871c-1.292,-0.581 -2.378,-1.381 -3.258,-2.401c-0.88,-1.02 -1.54,-2.239 -1.981,-3.655c-0.44,-1.417 -0.688,-2.961 -0.745,-4.633c-0,-1.643 0.255,-3.166 0.765,-4.569c0.51,-1.402 1.225,-2.613 2.146,-3.633c0.921,-1.02 2.012,-1.814 3.273,-2.38c1.261,-0.567 2.642,-0.85 4.143,-0.85c1.955,-0 3.578,0.403 4.867,1.211c1.289,0.807 2.323,1.835 3.102,3.081c0.779,1.247 1.318,2.607 1.615,4.08c0.298,1.474 0.418,2.876 0.361,4.208l-16.447,-0c-0.028,0.963 0.085,1.877 0.34,2.741c0.255,0.864 0.666,1.629 1.232,2.295c0.567,0.666 1.29,1.197 2.168,1.594c0.878,0.396 1.912,0.595 3.102,0.595c1.502,-0 2.749,-0.354 3.74,-1.063c0.992,-0.708 1.644,-1.785 1.955,-3.23l3.613,0Z" style="fill:#fff;fill-rule:nonzero;stroke:#fff;stroke-width:0.83px;"/><path d="M133.488,248.673c-0,3.854 -1.041,6.765 -3.124,8.734c-2.082,1.969 -5.022,2.954 -8.819,2.954c-1.955,-0 -3.704,-0.227 -5.248,-0.68c-1.544,-0.454 -2.848,-1.162 -3.91,-2.125c-1.063,-0.964 -1.877,-2.182 -2.444,-3.655c-0.567,-1.474 -0.85,-3.216 -0.85,-5.228l-0,-19.38l4.037,0l0,19.38c0,2.692 0.73,4.746 2.189,6.163c1.459,1.416 3.535,2.125 6.226,2.125c2.579,-0 4.541,-0.709 5.887,-2.125c1.346,-1.417 2.018,-3.471 2.018,-6.163l0,-19.38l4.038,0l-0,19.38Z" style="fill:#fff;fill-rule:nonzero;stroke:#fff;stroke-width:0.83px;"/><path d="M139.353,237.666l3.4,-0l-0,3.485l0.085,-0c0.765,-1.36 1.75,-2.366 2.954,-3.018c1.204,-0.651 2.599,-0.977 4.186,-0.977c1.445,-0 2.649,0.198 3.612,0.595c0.964,0.396 1.743,0.949 2.338,1.657c0.595,0.709 1.013,1.551 1.254,2.529c0.241,0.977 0.361,2.061 0.361,3.251l-0,14.45l-3.613,0l0,-14.875c0,-1.36 -0.396,-2.436 -1.19,-3.23c-0.793,-0.793 -1.884,-1.19 -3.272,-1.19c-1.105,0 -2.061,0.17 -2.869,0.51c-0.807,0.34 -1.48,0.822 -2.019,1.445c-0.538,0.624 -0.942,1.353 -1.211,2.189c-0.269,0.836 -0.404,1.75 -0.404,2.741l0,12.41l-3.612,0l-0,-21.972Z" style="fill:#fff;fill-rule:nonzero;stroke:#fff;stroke-width:0.83px;"/><path d="M166.808,233.713l-3.613,0l0,-4.42l3.613,0l-0,4.42Zm-3.613,3.953l3.613,-0l-0,21.972l-3.613,0l0,-21.972Z" style="fill:#fff;fill-rule:nonzero;stroke:#fff;stroke-width:0.83px;"/><path d="M182.32,259.638l-3.867,0l-8.16,-21.972l4.037,-0l6.163,18.317l0.085,0l5.992,-18.317l3.783,-0l-8.033,21.972Z" style="fill:#fff;fill-rule:nonzero;stroke:#fff;stroke-width:0.83px;"/><path d="M208.925,246.548c-0.056,-0.85 -0.247,-1.657 -0.573,-2.422c-0.326,-0.765 -0.765,-1.424 -1.318,-1.977c-0.552,-0.552 -1.211,-0.991 -1.976,-1.317c-0.765,-0.326 -1.587,-0.489 -2.465,-0.489c-0.935,0 -1.778,0.163 -2.529,0.489c-0.751,0.326 -1.395,0.772 -1.934,1.339c-0.538,0.566 -0.963,1.225 -1.275,1.976c-0.311,0.751 -0.495,1.551 -0.552,2.401l12.622,0Zm3.528,6.12c-0.483,2.437 -1.547,4.293 -3.194,5.568c-1.647,1.275 -3.72,1.912 -6.218,1.912c-1.761,0 -3.287,-0.29 -4.579,-0.871c-1.292,-0.581 -2.378,-1.381 -3.258,-2.401c-0.88,-1.02 -1.54,-2.239 -1.981,-3.655c-0.44,-1.417 -0.688,-2.961 -0.745,-4.633c-0,-1.643 0.255,-3.166 0.765,-4.569c0.51,-1.402 1.225,-2.613 2.146,-3.633c0.921,-1.02 2.012,-1.814 3.273,-2.38c1.261,-0.567 2.642,-0.85 4.143,-0.85c1.955,-0 3.578,0.403 4.867,1.211c1.289,0.807 2.323,1.835 3.102,3.081c0.779,1.247 1.318,2.607 1.615,4.08c0.298,1.474 0.418,2.876 0.361,4.208l-16.447,-0c-0.028,0.963 0.085,1.877 0.34,2.741c0.255,0.864 0.666,1.629 1.232,2.295c0.567,0.666 1.29,1.197 2.168,1.594c0.878,0.396 1.912,0.595 3.102,0.595c1.502,-0 2.749,-0.354 3.74,-1.063c0.992,-0.708 1.644,-1.785 1.955,-3.23l3.613,0Z" style="fill:#fff;fill-rule:nonzero;stroke:#fff;stroke-width:0.83px;"/><path d="M216.363,237.666l3.4,-0l-0,4.632l0.085,0c0.878,-1.785 1.955,-3.102 3.23,-3.952c1.275,-0.85 2.89,-1.247 4.845,-1.19l-0,3.825c-1.445,-0 -2.678,0.198 -3.698,0.595c-1.02,0.396 -1.841,0.977 -2.465,1.742c-0.623,0.765 -1.076,1.7 -1.36,2.805c-0.283,1.105 -0.425,2.352 -0.425,3.74l0,9.775l-3.612,0l-0,-21.972Z" style="fill:#fff;fill-rule:nonzero;stroke:#fff;stroke-width:0.83px;"/><path d="M232.853,252.711c0.028,0.821 0.212,1.501 0.552,2.04c0.34,0.538 0.787,0.97 1.339,1.296c0.553,0.326 1.176,0.56 1.87,0.701c0.694,0.142 1.41,0.213 2.146,0.213c0.567,-0 1.162,-0.043 1.785,-0.128c0.624,-0.085 1.198,-0.241 1.722,-0.467c0.524,-0.227 0.956,-0.56 1.296,-0.999c0.34,-0.439 0.51,-0.999 0.51,-1.679c-0,-0.708 -0.205,-1.282 -0.616,-1.721c-0.411,-0.439 -0.949,-0.8 -1.615,-1.084c-0.666,-0.283 -1.431,-0.517 -2.295,-0.701c-0.864,-0.184 -1.75,-0.375 -2.657,-0.574c-0.906,-0.198 -1.785,-0.439 -2.635,-0.722c-0.85,-0.284 -1.615,-0.652 -2.295,-1.105c-0.68,-0.454 -1.225,-1.034 -1.636,-1.743c-0.411,-0.708 -0.616,-1.586 -0.616,-2.635c-0,-1.105 0.248,-2.054 0.744,-2.847c0.496,-0.794 1.133,-1.438 1.912,-1.934c0.779,-0.496 1.658,-0.864 2.635,-1.105c0.978,-0.241 1.948,-0.361 2.911,-0.361c1.219,-0 2.359,0.106 3.422,0.318c1.062,0.213 1.997,0.581 2.805,1.105c0.807,0.525 1.452,1.233 1.933,2.125c0.482,0.893 0.765,2.005 0.85,3.337l-3.612,-0c-0.057,-0.709 -0.248,-1.297 -0.574,-1.764c-0.326,-0.468 -0.722,-0.843 -1.19,-1.126c-0.467,-0.284 -0.991,-0.489 -1.572,-0.617c-0.581,-0.127 -1.169,-0.191 -1.764,-0.191c-0.538,0 -1.084,0.043 -1.636,0.129c-0.553,0.085 -1.056,0.235 -1.509,0.449c-0.453,0.214 -0.822,0.506 -1.105,0.877c-0.283,0.371 -0.425,0.827 -0.425,1.369c-0,0.656 0.22,1.184 0.659,1.583c0.439,0.399 0.998,0.734 1.678,1.005c0.68,0.271 1.445,0.499 2.295,0.685c0.85,0.185 1.7,0.377 2.55,0.575c0.907,0.197 1.793,0.437 2.657,0.72c0.864,0.282 1.629,0.657 2.295,1.122c0.666,0.466 1.204,1.052 1.615,1.759c0.411,0.706 0.616,1.581 0.616,2.627c-0,1.299 -0.276,2.393 -0.829,3.283c-0.552,0.89 -1.275,1.603 -2.167,2.139c-0.893,0.537 -1.899,0.918 -3.018,1.144c-1.119,0.226 -2.231,0.339 -3.336,0.339c-1.247,0 -2.415,-0.134 -3.506,-0.404c-1.091,-0.269 -2.062,-0.694 -2.912,-1.275c-0.85,-0.58 -1.53,-1.345 -2.04,-2.295c-0.51,-0.949 -0.793,-2.103 -0.85,-3.463l3.613,-0Z" style="fill:#fff;fill-rule:nonzero;stroke:#fff;stroke-width:0.83px;"/><path d="M255.718,233.713l-3.613,0l0,-4.42l3.613,0l-0,4.42Zm-3.613,3.953l3.613,-0l-0,21.972l-3.613,0l0,-21.972Z" style="fill:#fff;fill-rule:nonzero;stroke:#fff;stroke-width:0.83px;"/><path d="M266.343,237.666l4.377,-0l0,3.187l-4.377,0l-0,13.643c-0,0.425 0.035,0.765 0.106,1.02c0.071,0.255 0.206,0.453 0.404,0.595c0.198,0.141 0.475,0.233 0.829,0.276c0.354,0.042 0.814,0.064 1.381,0.064l1.657,-0l0,3.187l-2.762,0c-0.935,0 -1.735,-0.064 -2.401,-0.191c-0.666,-0.128 -1.204,-0.361 -1.615,-0.701c-0.411,-0.34 -0.716,-0.822 -0.914,-1.445c-0.198,-0.624 -0.298,-1.445 -0.298,-2.465l0,-13.983l-3.74,0l0,-3.187l3.74,-0l0,-6.588l3.613,0l-0,6.588Z" style="fill:#fff;fill-rule:nonzero;stroke:#fff;stroke-width:0.83px;"/><path d="M277.648,229.633l3.825,0l-0,4.42l-3.825,0l-0,-4.42Zm7.99,0l3.825,0l-0,4.42l-3.825,0l-0,-4.42Zm8.542,29.92c-0.651,0.397 -1.515,0.595 -2.592,0.595c-0.935,0 -1.679,-0.269 -2.231,-0.807c-0.553,-0.539 -0.829,-1.403 -0.829,-2.593c-0.992,1.19 -2.146,2.054 -3.464,2.593c-1.317,0.538 -2.741,0.807 -4.271,0.807c-0.992,0 -1.934,-0.113 -2.826,-0.34c-0.893,-0.226 -1.665,-0.588 -2.317,-1.084c-0.651,-0.495 -1.168,-1.133 -1.551,-1.912c-0.382,-0.779 -0.574,-1.721 -0.574,-2.826c0,-1.247 0.213,-2.267 0.638,-3.06c0.425,-0.794 0.985,-1.431 1.679,-1.913c0.694,-0.481 1.487,-0.857 2.38,-1.126c0.892,-0.269 1.806,-0.489 2.741,-0.659c0.992,-0.198 1.934,-0.347 2.826,-0.446c0.893,-0.099 1.679,-0.241 2.359,-0.425c0.68,-0.184 1.218,-0.453 1.615,-0.808c0.397,-0.354 0.595,-0.871 0.595,-1.551c-0,-0.793 -0.149,-1.431 -0.446,-1.912c-0.298,-0.482 -0.68,-0.85 -1.148,-1.105c-0.467,-0.255 -0.991,-0.425 -1.572,-0.51c-0.581,-0.085 -1.155,-0.128 -1.722,-0.128c-1.53,0 -2.805,0.291 -3.825,0.871c-1.02,0.581 -1.572,1.679 -1.657,3.294l-3.613,0c0.057,-1.36 0.34,-2.507 0.85,-3.442c0.51,-0.935 1.19,-1.693 2.04,-2.274c0.85,-0.581 1.828,-0.999 2.933,-1.254c1.105,-0.255 2.267,-0.382 3.485,-0.382c0.992,-0 1.976,0.071 2.954,0.212c0.977,0.142 1.863,0.432 2.656,0.871c0.793,0.44 1.431,1.056 1.912,1.849c0.482,0.794 0.723,1.828 0.723,3.103l-0,11.305c-0,0.85 0.05,1.473 0.149,1.87c0.099,0.396 0.432,0.595 0.998,0.595c0.34,-0 0.709,-0.071 1.105,-0.213l0,2.805Zm-5.865,-11.262c-0.34,0.255 -0.765,0.453 -1.275,0.595c-0.51,0.141 -1.048,0.262 -1.615,0.361c-0.566,0.099 -1.168,0.184 -1.806,0.255c-0.637,0.071 -1.254,0.163 -1.849,0.276c-0.595,0.114 -1.161,0.255 -1.7,0.425c-0.538,0.17 -1.005,0.404 -1.402,0.701c-0.397,0.298 -0.715,0.673 -0.956,1.127c-0.241,0.453 -0.362,1.02 -0.362,1.7c0,0.595 0.121,1.098 0.362,1.508c0.241,0.411 0.552,0.744 0.935,0.999c0.382,0.255 0.828,0.439 1.338,0.553c0.51,0.113 1.049,0.17 1.615,0.17c1.19,-0 2.21,-0.163 3.06,-0.489c0.85,-0.326 1.545,-0.737 2.083,-1.233c0.538,-0.495 0.935,-1.034 1.19,-1.615c0.255,-0.58 0.382,-1.126 0.382,-1.636l0,-3.697Z" style="fill:#fff;fill-rule:nonzero;stroke:#fff;stroke-width:0.83px;"/><path d="M302.553,237.666l4.377,-0l0,3.187l-4.377,0l-0,13.643c-0,0.425 0.035,0.765 0.106,1.02c0.071,0.255 0.206,0.453 0.404,0.595c0.198,0.141 0.475,0.233 0.829,0.276c0.354,0.042 0.814,0.064 1.381,0.064l1.657,-0l0,3.187l-2.762,0c-0.935,0 -1.735,-0.064 -2.401,-0.191c-0.666,-0.128 -1.204,-0.361 -1.615,-0.701c-0.411,-0.34 -0.716,-0.822 -0.914,-1.445c-0.198,-0.624 -0.298,-1.445 -0.298,-2.465l0,-13.983l-3.74,0l0,-3.187l3.74,-0l0,-6.588l3.613,0l-0,6.588Z" style="fill:#fff;fill-rule:nonzero;stroke:#fff;stroke-width:0.83px;"/><path d="M109.348,280.293l5.525,0l9.562,25.5l9.605,-25.5l5.525,0l0,30.345l-3.825,0l0,-25.245l-0.085,0l-9.477,25.245l-3.443,0l-9.477,-25.245l-0.085,0l-0,25.245l-3.825,0l-0,-30.345Z" style="fill:#fff;fill-rule:nonzero;stroke:#fff;stroke-width:0.83px;"/><path d="M163.875,310.638l-3.4,0l0,-3.485l-0.085,0c-0.765,1.36 -1.749,2.366 -2.953,3.018c-1.204,0.651 -2.6,0.977 -4.187,0.977c-1.445,0 -2.649,-0.198 -3.612,-0.595c-0.963,-0.396 -1.743,-0.949 -2.338,-1.657c-0.595,-0.709 -1.012,-1.552 -1.253,-2.529c-0.241,-0.978 -0.362,-2.061 -0.362,-3.251l0,-14.45l3.613,-0l-0,14.875c-0,1.36 0.397,2.436 1.19,3.23c0.793,0.793 1.884,1.19 3.272,1.19c1.105,-0 2.062,-0.17 2.869,-0.51c0.808,-0.34 1.481,-0.822 2.019,-1.445c0.538,-0.624 0.942,-1.353 1.211,-2.189c0.269,-0.836 0.404,-1.75 0.404,-2.741l-0,-12.41l3.612,-0l0,21.972Zm-15.045,-30.005l3.825,0l0,4.42l-3.825,0l0,-4.42Zm7.99,0l3.825,0l0,4.42l-3.825,0l0,-4.42Z" style="fill:#fff;fill-rule:nonzero;stroke:#fff;stroke-width:0.83px;"/><path d="M169.315,288.666l3.4,-0l0,3.485l0.085,-0c0.765,-1.36 1.75,-2.366 2.954,-3.018c1.204,-0.651 2.6,-0.977 4.186,-0.977c1.445,-0 2.65,0.198 3.613,0.595c0.963,0.396 1.742,0.949 2.337,1.657c0.595,0.709 1.013,1.551 1.254,2.529c0.241,0.977 0.361,2.061 0.361,3.251l0,14.45l-3.612,0l-0,-14.875c-0,-1.36 -0.397,-2.436 -1.19,-3.23c-0.793,-0.793 -1.884,-1.19 -3.273,-1.19c-1.105,0 -2.061,0.17 -2.868,0.51c-0.808,0.34 -1.481,0.822 -2.019,1.445c-0.538,0.624 -0.942,1.353 -1.211,2.189c-0.269,0.836 -0.404,1.75 -0.404,2.741l-0,12.41l-3.613,0l0,-21.972Z" style="fill:#fff;fill-rule:nonzero;stroke:#fff;stroke-width:0.83px;"/><path d="M207.863,295.721c-0.283,-1.389 -0.885,-2.465 -1.806,-3.23c-0.921,-0.765 -2.132,-1.148 -3.634,-1.148c-1.303,0 -2.394,0.241 -3.273,0.723c-0.878,0.481 -1.579,1.119 -2.103,1.912c-0.524,0.794 -0.9,1.707 -1.127,2.741c-0.226,1.035 -0.34,2.104 -0.34,3.209c0,1.02 0.121,2.012 0.362,2.975c0.241,0.964 0.616,1.821 1.126,2.571c0.51,0.751 1.169,1.353 1.976,1.807c0.808,0.453 1.792,0.68 2.954,0.68c1.757,-0 3.145,-0.475 4.165,-1.424c1.02,-0.949 1.643,-2.26 1.87,-3.931l3.697,-0c-0.396,2.691 -1.416,4.788 -3.06,6.29c-1.643,1.501 -3.853,2.252 -6.63,2.252c-1.671,0 -3.152,-0.276 -4.441,-0.829c-1.289,-0.552 -2.366,-1.324 -3.23,-2.316c-0.864,-0.991 -1.516,-2.174 -1.955,-3.549c-0.439,-1.374 -0.659,-2.882 -0.659,-4.526c0,-1.643 0.213,-3.18 0.638,-4.611c0.425,-1.431 1.07,-2.678 1.934,-3.74c0.864,-1.063 1.941,-1.898 3.23,-2.508c1.289,-0.609 2.812,-0.913 4.568,-0.913c1.247,-0 2.416,0.148 3.507,0.446c1.091,0.297 2.061,0.758 2.911,1.381c0.85,0.624 1.537,1.41 2.061,2.359c0.524,0.949 0.857,2.075 0.999,3.379l-3.74,-0Z" style="fill:#fff;fill-rule:nonzero;stroke:#fff;stroke-width:0.83px;"/><path d="M215.768,280.293l3.612,0l0,11.603l0.085,-0c0.284,-0.652 0.688,-1.219 1.212,-1.7c0.524,-0.482 1.098,-0.872 1.721,-1.169c0.623,-0.298 1.282,-0.517 1.976,-0.659c0.694,-0.141 1.367,-0.212 2.019,-0.212c1.445,-0 2.649,0.198 3.612,0.595c0.964,0.396 1.743,0.949 2.338,1.657c0.595,0.709 1.013,1.551 1.254,2.529c0.241,0.977 0.361,2.061 0.361,3.251l-0,14.45l-3.613,0l0,-14.875c0,-1.36 -0.396,-2.436 -1.19,-3.23c-0.793,-0.793 -1.884,-1.19 -3.272,-1.19c-1.105,0 -2.061,0.17 -2.869,0.51c-0.807,0.34 -1.48,0.822 -2.019,1.445c-0.538,0.624 -0.942,1.353 -1.211,2.189c-0.269,0.836 -0.404,1.75 -0.404,2.741l0,12.41l-3.612,0l-0,-30.345Z" style="fill:#fff;fill-rule:nonzero;stroke:#fff;stroke-width:0.83px;"/><path d="M254.655,297.548c-0.056,-0.85 -0.247,-1.657 -0.573,-2.422c-0.326,-0.765 -0.765,-1.424 -1.318,-1.977c-0.552,-0.552 -1.211,-0.991 -1.976,-1.317c-0.765,-0.326 -1.587,-0.489 -2.465,-0.489c-0.935,0 -1.778,0.163 -2.529,0.489c-0.751,0.326 -1.395,0.772 -1.934,1.339c-0.538,0.566 -0.963,1.225 -1.275,1.976c-0.311,0.751 -0.495,1.551 -0.552,2.401l12.622,0Zm3.528,6.12c-0.483,2.437 -1.547,4.293 -3.194,5.568c-1.647,1.275 -3.72,1.912 -6.218,1.912c-1.761,0 -3.287,-0.29 -4.579,-0.871c-1.292,-0.581 -2.378,-1.381 -3.258,-2.401c-0.88,-1.02 -1.54,-2.239 -1.981,-3.655c-0.44,-1.417 -0.688,-2.961 -0.745,-4.633c-0,-1.643 0.255,-3.166 0.765,-4.569c0.51,-1.402 1.225,-2.613 2.146,-3.633c0.921,-1.02 2.012,-1.814 3.273,-2.38c1.261,-0.567 2.642,-0.85 4.143,-0.85c1.955,-0 3.578,0.403 4.867,1.211c1.289,0.807 2.323,1.835 3.102,3.081c0.779,1.247 1.318,2.607 1.615,4.08c0.298,1.474 0.418,2.876 0.361,4.208l-16.447,-0c-0.028,0.963 0.085,1.877 0.34,2.741c0.255,0.864 0.666,1.629 1.232,2.295c0.567,0.666 1.29,1.197 2.168,1.594c0.878,0.396 1.912,0.595 3.102,0.595c1.502,-0 2.749,-0.354 3.74,-1.063c0.992,-0.708 1.644,-1.785 1.955,-3.23l3.613,0Z" style="fill:#fff;fill-rule:nonzero;stroke:#fff;stroke-width:0.83px;"/><path d="M262.22,288.666l3.4,-0l0,3.485l0.085,-0c0.765,-1.36 1.75,-2.366 2.954,-3.018c1.204,-0.651 2.6,-0.977 4.186,-0.977c1.445,-0 2.65,0.198 3.613,0.595c0.963,0.396 1.742,0.949 2.337,1.657c0.595,0.709 1.013,1.551 1.254,2.529c0.241,0.977 0.361,2.061 0.361,3.251l0,14.45l-3.612,0l-0,-14.875c-0,-1.36 -0.397,-2.436 -1.19,-3.23c-0.793,-0.793 -1.884,-1.19 -3.273,-1.19c-1.105,0 -2.061,0.17 -2.868,0.51c-0.808,0.34 -1.481,0.822 -2.019,1.445c-0.538,0.624 -0.942,1.353 -1.211,2.189c-0.269,0.836 -0.404,1.75 -0.404,2.741l-0,12.41l-3.613,0l0,-21.972Z" style="fill:#fff;fill-rule:nonzero;stroke:#fff;stroke-width:0.83px;"/></g></svg>