<?xml version="1.0" encoding="UTF-8" standalone="no"?><!DOCTYPE svg PUBLIC "-//W3C//DTD SVG 1.1//EN" "http://www.w3.org/Graphics/SVG/1.1/DTD/svg11.dtd"><svg width="100%" height="100%" viewBox="0 0 3342 1481" version="1.1" xmlns="http://www.w3.org/2000/svg" xmlns:xlink="http://www.w3.org/1999/xlink" xml:space="preserve" xmlns:serif="http://www.serif.com/" style="fill-rule:evenodd;clip-rule:evenodd;stroke-linejoin:round;stroke-miterlimit:2;"><rect id="ArtBoard1" x="0" y="0" width="3341.8" height="1480.31" style="fill:none;"/><g transform="matrix(4.16667,0,0,4.16667,155.517,190.883)"><text x="0px" y="56px" style="font-family:'GoldenPlains', 'Golden Plains - Demo';font-size:80px;">Willkommen</text><text x="351.84px" y="56px" style="font-family:'AmaticSC-Regular', 'Amatic SC';font-stretch:condensed;font-size:54px;">.</text><text x="0px" y="164.486px" style="font-family:'AmaticSC-Regular', 'Amatic SC';font-stretch:condensed;font-size:54px;">zum User Interface,</text><path d="M447.24,218.222l-0.053,-11.074l-0.105,0l0.211,-16.268l-0.211,-6.46c0,-0.51 0.163,-0.849 0.488,-1.016c0.325,-0.167 0.76,-0.237 1.305,-0.21c0.545,0.026 1.239,0.065 2.083,0.118c2.057,0.106 3.173,0.185 3.349,0.237c0.14,0.071 0.228,0.207 0.263,0.409c0.035,0.202 -0.035,0.391 -0.211,0.567c-0.175,0.176 -0.448,0.264 -0.817,0.264l-4.377,-0l-0.264,0.316c0.036,0.51 0.053,1.283 0.053,2.32l-0.211,8.385c0,1.002 0.07,1.503 0.211,1.503l3.454,0c0.651,0 0.976,0.29 0.976,0.87c-0,0.44 -0.352,0.659 -1.055,0.659c-0.703,0 -1.125,0.018 -1.266,0.053l-2.056,0c-0.141,0 -0.194,0.303 -0.158,0.91c0.035,0.606 0.052,1.868 0.052,3.784l-0.105,7.672c-0,1.407 0.053,2.839 0.158,4.298c0,1.371 0.07,2.057 0.211,2.057l4.166,-0.106c1.055,0 1.582,0.238 1.582,0.712c0,0.651 -0.782,0.976 -2.347,0.976l-4.245,0.158c-0.668,0 -1.028,-0.378 -1.081,-1.134Zm14.95,-0.659l2.004,-0.105c1.037,-0 1.556,0.237 1.556,0.712c0,0.65 -0.773,0.975 -2.32,0.975l-4.483,0c-0.562,0 -0.874,-0.457 -0.936,-1.371c-0.061,-0.914 -0.092,-2.707 -0.092,-5.379c-0,-2.672 -0.018,-4.421 -0.053,-5.247l0.369,-16.268l-0.211,-6.46c0,-1.02 0.528,-1.53 1.582,-1.53c0.387,0 0.668,0.115 0.844,0.343c0.123,0.035 0.651,0.106 1.582,0.211c2.215,0.246 3.349,0.694 3.402,1.345c-0,0.281 -0.343,0.624 -1.029,1.028c-1.986,-0.65 -3.445,-0.993 -4.377,-1.028l-0.263,0.316c0.035,0.51 0.052,1.283 0.052,2.32l-0.211,11.075c0,1.019 0.247,1.529 0.739,1.529l1.845,-0.132c1.372,0 2.075,0.325 2.11,0.976c-0,0.246 -0.092,0.461 -0.277,0.646c-0.185,0.184 -0.536,0.277 -1.055,0.277c-0.518,-0 -0.848,0.017 -0.989,0.052l-1.792,-0.263l-0.211,-0l-0.264,0.263l-0,0.159c0.07,0.58 0.105,1.467 0.105,2.663l-0.105,6.539c-0,3.586 0.246,5.572 0.738,5.959c0.317,0.263 0.897,0.395 1.74,0.395Z"/><text x="0px" y="218.486px" style="font-family:'AmaticSC-Regular', 'Amatic SC';font-stretch:condensed;font-size:54px;">das dir dabei hilft, kreative Id<tspan x="468.07px " y="218.486px ">n</tspan> zu Entwickeln.</text></g></svg>